<?xml version="1.0" encoding="utf-8"?>
<!-- Generator: Adobe Illustrator 27.0.1, SVG Export Plug-In . SVG Version: 6.00 Build 0)  -->
<svg version="1.1" id="Layer_1" xmlns="http://www.w3.org/2000/svg" xmlns:xlink="http://www.w3.org/1999/xlink" x="0px" y="0px"
	 viewBox="0 0 1000 1000" style="enable-background:new 0 0 1000 1000;" xml:space="preserve">
<style type="text/css">
	.st0{display:none;}
	.st1{display:inline;fill:#F9E9DE;}
	.st2{display:inline;}
	.st3{fill:#F9E9DE;stroke:#000000;stroke-width:3;stroke-miterlimit:10;}
	.st4{fill:#F9E9DE;stroke:#000000;stroke-width:2.7476;stroke-linecap:round;stroke-linejoin:round;stroke-miterlimit:10;}
	.st5{fill:#BCBEC0;}
	.st6{fill:#3143AA;}
	.st7{fill:#FFACBD;}
	.st8{fill:#754C29;}
	.st9{fill:#FBB040;}
	.st10{fill:#231F20;}
	.st11{fill:#F7668F;}
	.st12{fill:none;}
	.st13{fill:#F9E9DE;}
	.st14{fill:#FFFFFF;}
	.st15{fill:#7383FF;}
	.st16{fill:#FFF7EB;}
	.st17{fill:#F1F2F2;}
	.st18{fill:#F7F7F7;}
	.st19{fill:#414042;}
	.st20{fill:#ED1C24;}
	.st21{fill:#6D6E71;}
	.st22{fill:none;stroke:#000000;stroke-width:2.6539;stroke-linecap:round;stroke-linejoin:round;stroke-miterlimit:10;}
	.st23{fill:none;stroke:#000000;stroke-width:2.382;stroke-linecap:round;stroke-linejoin:round;stroke-miterlimit:10;}
	.st24{fill:none;stroke:#000000;stroke-width:2.0418;stroke-linecap:round;stroke-linejoin:round;stroke-miterlimit:10;}
	.st25{fill:none;stroke:#000000;stroke-width:2.7476;stroke-linecap:round;stroke-linejoin:round;stroke-miterlimit:10;}
	.st26{fill:#FFF200;}
	.st27{fill:#BE1E2D;}
	.st28{fill:none;stroke:#000000;stroke-width:2.4244;stroke-linecap:round;stroke-linejoin:round;stroke-miterlimit:10;}
	.st29{fill:none;stroke:#000000;stroke-width:2.1761;stroke-linecap:round;stroke-linejoin:round;stroke-miterlimit:10;}
	.st30{fill:none;stroke:#000000;stroke-width:1.8653;stroke-linecap:round;stroke-linejoin:round;stroke-miterlimit:10;}
	.st31{fill:none;stroke:#000000;stroke-width:6;stroke-linecap:round;stroke-linejoin:round;stroke-miterlimit:10;}
	.st32{fill:#808285;}
	.st33{fill:#E6E7E8;}
</style>
<g id="outline_body" class="st0">
	<path class="st1" d="M422.3,684.1c0,0,33.9,56.3,4.2,74.5c-50.8,31.1-84-58.8-159.6-35.3s-37,248.6-37,248.6h529.2
		c0,0,63.8-237-35.4-253c-72.2-11.6-104.9,56.4-138.5,52.2c-53.6-6.7-1.1-79.6-1.1-79.6s-45,24.3-80.7,24.3S422.3,684.1,422.3,684.1
		z"/>
	<g class="st2">
		<path class="st3" d="M316.1,490.4c0,0,6.7,66.7,16.9,106.8c0,0-36.1,2.4-53.1-36c-16.2-36.7-18.2-71.3,2.5-83.9
			C303.2,464.7,316.1,490.4,316.1,490.4z"/>
		<path class="st3" d="M688.9,490.4c0,0-5.1,70.2-15.3,110.3c0,0,34.5-1.1,51.5-39.6c16.2-36.7,18.2-71.3-2.5-83.9
			S688.9,490.4,688.9,490.4z"/>
		<path class="st4" d="M283.1,522c0,0-2.8-22.4,5.5-26.5s24.1,2.3,25.6,33"/>
		<path class="st4" d="M722.4,522c0,0,2.8-22.4-5.5-26.5s-24.1,2.3-25.6,33"/>
		<path class="st3" d="M320.9,400.2c0,0-14.7,113.8,0,170.6c14.7,56.9,128.4,148.1,182.5,145c74.3-4.3,139.4-56.6,171.3-117.3
			c17.1-32.5,23.6-81.9,6.9-198.3C661.3,257.8,544.4,251.6,498.9,253S347.7,254.3,320.9,400.2z"/>
	</g>
</g>
<g id="_x30_5:hairstyle_x5F_under">
	<g id="_x30_3:hairstyle_x5F_on_x2F_01_x5F_">
		<path class="st5" d="M163.8,946.4L230,972c0,0-25.1-185.9,21.1-239.4c6.8-7.9,16.4-9.8,25.4-11.7c32.6-6.7,72.7,17.5,83.3,25.3
			c38,27.8,67.9,23.5,77.3-0.7s-14.6-61.4-14.6-61.4l-6-4.1l-24.1,27.8c-41.8-30.7-52.6-44-77.8-105.5
			c-52.8-168.3,5.5-322.9,5.5-322.9s-63.4,96.7-65.2,238.5c-1.3,96.3-66.4,84-53.2,135.2c14.9,57.8,3.2,81.3-46.8,103.2
			c-67,29.4-57.9,112.1-47.8,153.3l41.3,26.6c0,0-18.7-35.9,0.1-73.9C148.3,862.3,133.9,913.5,163.8,946.4z M296.6,621.6
			c-3.3,9.1-10,16.7-12.9,26c-2.4,7.8-1.9,16.2-1.5,24.4s0.7,16.6-2.2,24.3c-2.8,7.4-8.8,11.9-15.4,15.7c5.5-5.5,10.4-15,10.7-22.8
			c0.5-13.2-9.7-24.9-9.9-38.1c-0.1-12.9,9.1-23.7,17.3-33.6c4.4-5.3,8.5-10.9,11.2-17.3c2.9-6.9,1.3-13.2,1.3-20.5
			c2.7,6.4,2.8,13.2,3.4,19.9C299.4,606.9,299.1,614.5,296.6,621.6z"/>
		<path d="M682.7,289.2c0,0,66.8,176.3,63.4,281.5s4.6,108.7,33.3,132.1s102.9,88.7,57.5,152s22.7,83.9,22.7,83.9l-42,26.1
			c0,0-51.8,1.5-46.5-43.3s27.4-175.2-37.7-200.1s-109.6,49-140.7,49.6c-31.1,0.6-47.5-18.3-8.7-79.4l23.7-17l22,31
			c0,0,59.6-52.4,77.3-153.1C722.7,457.2,682.7,289.2,682.7,289.2z"/>
	</g>
	<g id="_x30_3:hairstyle_x5F_on_x2F_02_x5F_">
		<path class="st6" d="M423,685.2c0,0-244.4-44.4-172-370c15.6-74.3,63.4-89.9,63.4-89.9s27.1-70.6,130.9-57.8
			c32.4,4,54.8,19.3,54.8,19.3s114.2-67.9,179.3,34.9c0,0,86,30.3,85.2,176.1S755,641.5,584.2,691.6c0,0,114.4-58.2,121.5-270.1
			c7.8-231.8-160.6-232.8-199.4-205.3c0,0-160.6-44.9-191.8,114.6S313.4,602.1,423,685.2z"/>
		<path class="st6" d="M309,251.9c-7.1,5.1-16.9,1.8-25,1.9c-14.9,0.2-29.9,6-44.7,8c-19.1,2.7-38.6,3.3-57.8,2
			c-14.9-1-31.7-4.6-39-17.6c-4.5-8.1-6.5-22.9,2.3-27.5c-4-2.9-8.2-6.1-9.6-10.8c-0.8-2.5-0.6-5.2-0.5-7.8
			c0.3-4.5,0.7-9.4,3.6-12.9c1.1-1.3,2.6-2.5,3.1-4.2c0.5-2.3-1.1-4.4-2-6.6c-1.8-4.2-1.1-9.3,1.9-12.8c4.5-5.1,7.4-9.2,7.5-15.7
			c0.2-9.4-0.2-17,2.4-26.4c1.2-4.3,2.4-8.6,4.7-12.3c4.1-6.5,11.2-11.3,16.1-17.2c6.3-7.5,14.3-12.6,23.1-16.9
			c14.3-7,29.8-11.4,45.6-12.9c15-1.5,32.2,1.2,43.7,11.6c12.8,11.5,21.2,30,27,45.8c8.4,22.9,14.8,47.8,15.8,72.7
			c0.5,11.2,1.2,24.7-3.3,35.2C320.7,235.2,315.8,247,309,251.9z"/>
		<path class="st7" d="M317.1,195.2c1.7-5.6,3-24.2,12.1-22.5c0.5,4.1,1.2,8.1,2,12.2c0.2,0.8,0.4,1.7,1,2.2c1.7,1.4,4-0.8,6.2-1.2
			c2-0.4,4.1,1.1,5,3s0.9,4,0.6,6.1c-0.6,4.5-2.2,8.8-3.7,13c-4.3,12.3-5.3,26.5-11.8,37.9c-6.2,10.8-16,19.7-27.3,24.8
			c-3.7,1.7-34.1,14.2-36.3,6c-0.3-1.2,0.6-2.3,1.2-3.3c1.3-2.1,1.7-4.7,1.1-7c-2.8,0.2-5.7,0.4-8.1-1.1c-7.2-4.3,2.2-12.9,6.5-14.9
			c12.2-5.8,19.7-8.2,29.1-18.4C304.5,221.3,312.8,209.1,317.1,195.2z"/>
		<path class="st6" d="M685.3,251.9c7.1,5.1,16.9,1.8,25,1.9c14.9,0.2,29.9,6,44.7,8c19.1,2.7,38.6,3.3,57.8,2
			c14.9-1,31.7-4.6,39-17.6c4.5-8.1,6.5-22.9-2.3-27.5c4-2.9,8.2-6.1,9.6-10.8c0.8-2.5,0.6-5.2,0.5-7.8c-0.3-4.5-0.7-9.4-3.6-12.9
			c-1.1-1.3-2.6-2.5-3.1-4.2c-0.5-2.3,1.1-4.4,2-6.6c1.8-4.2,1.1-9.3-1.9-12.8c-4.5-5.1-7.4-9.2-7.5-15.7c-0.2-9.4,0.2-17-2.4-26.4
			c-1.2-4.3-2.4-8.6-4.7-12.3c-4.1-6.5-11.2-11.3-16.1-17.2c-6.3-7.5-14.3-12.6-23.1-16.9c-14.3-7-29.8-11.4-45.6-12.9
			c-15-1.5-32.2,1.2-43.7,11.6c-12.8,11.5-21.2,30-27,45.8c-8.4,22.9-14.8,47.8-15.8,72.7c-0.5,11.2-1.2,24.7,3.3,35.2
			C673.6,235.2,678.5,247,685.3,251.9z"/>
		<path class="st7" d="M677.2,195.2c-1.7-5.6-3-24.2-12.1-22.5c-0.5,4.1-1.2,8.1-2,12.2c-0.2,0.8-0.4,1.7-1,2.2
			c-1.7,1.4-4-0.8-6.2-1.2c-2-0.4-4.1,1.1-5,3s-0.9,4-0.6,6.1c0.6,4.5,2.2,8.8,3.7,13c4.3,12.3,5.3,26.5,11.8,37.9
			c6.2,10.8,16,19.7,27.3,24.8c3.7,1.7,34.1,14.2,36.3,6c0.3-1.2-0.6-2.3-1.2-3.3c-1.3-2.1-1.7-4.7-1.1-7c2.8,0.2,5.7,0.4,8.1-1.1
			c7.2-4.3-2.2-12.9-6.5-14.9c-12.2-5.8-19.7-8.2-29.1-18.4C689.9,221.3,681.5,209.1,677.2,195.2z"/>
	</g>
	<g id="_x30_3:hairstyle_x5F_on_x2F_03_x5F_">
		<path id="_x30_5:hairstyle_x5F_under_x2F_03" class="st8" d="M603.9,196.3c0,0,92.2,40,122.8,190.4s52.6,148.8,52.6,148.8
			s-15.6,0.7-23.9-16.7c0,0,22,25.7,23.9,55c1.8,29.4-11.7,33.8-11.7,33.8l-17.6,6.1l-7.3-29.8l0.9,32.3c0,0-11.9,7.1-24.8,9.9
			s-5.1,0-5.1,0v-18.5l-8.1,24c0,0-39.2-1.2-35.9-24s19.2-111.8,3.9-209S603.9,196.3,603.9,196.3"/>
	</g>
	<g id="_x30_3:hairstyle_x5F_on_x2F_04_x5F_">
		<path class="st9" d="M293.2,327.8c0,0-29.6,100.9-61.4,131.3s-52.2,70.6-21.2,96.7c31.1,26.1,53.6,51.5,14.8,69.2
			s7.1,40.9-19.1,48.7c0,0,30.4,21.9,57.9,19.1c27.5-2.8,36-22.6,77.6-9.9c41.6,12.7,80.5,2.8,80.5,2.8S255.1,535.4,293.2,327.8z"/>
		<path class="st9" d="M699.2,327.8c0,0,29.6,100.9,61.4,131.3s52.2,70.6,21.2,96.7c-31.1,26.1-53.6,51.5-14.8,69.2
			s-7.1,40.9,19.1,48.7c0,0-30.4,21.9-57.9,19.1s-36-22.6-77.6-9.9c-41.6,12.7-80.5,2.8-80.5,2.8S737.4,535.4,699.2,327.8z"/>
	</g>
	<g id="_x30_3:hairstyle_x5F_on_x2F_05_x5F_">
		<path id="_x30_5:hairstyle_x5F_under_x2F_05" class="st10" d="M721.4,410.1c0,0,47.6,177.9,29.6,321.9s-203.3,29.6-203.3,29.6
			l25.4-75.2L721.4,410.1z"/>
	</g>
	<g id="_x30_3:hairstyle_x5F_on_x2F_06_x5F_">
		<path d="M682.4,585.8c0.3-0.4,0.5-0.8,0.8-1.2C682.9,585,682.6,585.4,682.4,585.8z"/>
		<path d="M688.8,575.6c0.2-0.4,0.5-0.8,0.7-1.1C689.2,574.8,689,575.2,688.8,575.6z"/>
		<path d="M683.5,584c0.2-0.3,0.4-0.6,0.6-1C683.9,583.3,683.7,583.6,683.5,584z"/>
		<path d="M684.1,583c1.2-1.9,2.5-4,3.9-6.1C686.8,578.7,685.5,580.8,684.1,583z"/>
		<path d="M688,576.9c0.3-0.4,0.5-0.9,0.8-1.3C688.5,576,688.2,576.4,688,576.9z"/>
		<path d="M683.1,584.6c0.1-0.2,0.3-0.4,0.4-0.6C683.4,584.2,683.2,584.4,683.1,584.6z"/>
		<path d="M682.1,586.2c0.1-0.1,0.2-0.3,0.2-0.4C682.3,585.9,682.2,586,682.1,586.2z"/>
		<path d="M679,591.1C679,591.1,679,591,679,591.1L679,591.1z"/>
		<path d="M679.1,591c0.1-0.1,0.1-0.2,0.2-0.3C679.2,590.8,679.1,590.9,679.1,591z"/>
		<path d="M679.3,590.7c1-1.6,1.9-3.1,2.8-4.5C680.8,588.3,679.8,589.9,679.3,590.7z"/>
		<path d="M679.3,590.7L679.3,590.7L679.3,590.7z"/>
		<path d="M697.5,561.6c0.3-0.5,0.5-0.9,0.7-1C698.1,560.8,697.8,561.1,697.5,561.6z"/>
		<path d="M696.6,563.1c0.1-0.2,0.3-0.4,0.4-0.6C696.9,562.6,696.8,562.8,696.6,563.1z"/>
		<path d="M697,562.4c0.2-0.3,0.3-0.6,0.5-0.8C697.4,561.8,697.2,562.1,697,562.4z"/>
		<path d="M698.2,560.6C698.2,560.5,698.2,560.5,698.2,560.6C698.2,560.5,698.2,560.6,698.2,560.6z"/>
		<path d="M698.2,560.5C698.3,560.4,698.3,560.4,698.2,560.5L698.2,560.5z"/>
		<path d="M842.1,881.2c-32.8,8.5-54-46.6-29.6-79.4c24.4-32.8,2.1-101.6-32.8-133.4c-34.9-31.8-48.7-73.1-11.6-121.8
			s0-147.2,0-147.2c21.2,0,23.3-11.6,23.3-11.6s-34.9,18-51.9-28.6C684.4,199.3,640,145.3,616.7,98.7
			c-14.2-28.3-27.1-32.8-35.1-31.9c-2.8-1.7-8.4-4.6-13.4-4.1c-8.7-3.3-26.7,0-41.4-8.5c-7.9-4.6-16.2-3.4-24.1-0.8
			c-7.9-2.6-16.1-3.8-24.1,0.8c-14.7,8.5-32.7,5.2-41.4,8.5c-5.1-0.6-10.6,2.3-13.4,4.1c-8-0.9-21,3.6-35.1,31.9
			c-23.3,46.6-67.8,100.6-122.8,260.5C249,405.8,214,387.8,214,387.8s2.1,11.6,23.3,11.6c0,0-37.1,98.5,0,147.2s23.3,90-11.6,121.8
			S168.1,769,192.5,801.8s3.2,87.9-29.6,79.4c0,0-15.9,28.6,19.1,42.4s64.6,10.6,64.6,10.6s-52.4-176.8,21.7-203.3
			s91.6,45.5,143.5,47.6c17.4,0.7,35.9-4.5,40.6-23.2c4.4-17.7-8.5-39.3-17.1-53.9c-16.3-27.8-40.4-51.4-60.6-76.5
			c-6.1-7.5-12.1-15.1-19.4-21.5c-23.6-20.7-62.5-25-77.9-53.6c-30.7-57.2,15.9-76.2,15.9-76.2s4.5-225.7,125.6-283.2
			c12.7,52.9,51.5,44.2,83.8,25.6c32.3,18.5,71.1,27.2,83.8-25.6c121.1,57.5,125.6,283.2,125.6,283.2s46.6,19.1,15.9,76.2
			c-31,57.2-49,41.3-49,41.3c-43.4,69.1-90,90-90,90s-13.8,14.8-27.5,34.9c-13.8,20.1-20.1,64.6,31.8,62.5
			c51.9-2.1,61.4-80.5,135.5-54s29.6,209.6,29.6,209.6s29.6,3.2,64.6-10.6S842.1,881.2,842.1,881.2z"/>
		<path d="M693,568.8c0.4-0.7,0.8-1.3,1.2-1.9C693.8,567.5,693.4,568.1,693,568.8z"/>
		<path d="M691.8,570.8c0.4-0.7,0.8-1.3,1.2-2C692.6,569.4,692.2,570.1,691.8,570.8z"/>
		<path d="M696,564.1c0.2-0.4,0.5-0.7,0.7-1.1C696.4,563.4,696.2,563.7,696,564.1z"/>
		<path d="M689.5,574.4c0.8-1.3,1.6-2.5,2.3-3.7C691,572,690.3,573.2,689.5,574.4z"/>
		<path d="M695.6,564.7c0.1-0.2,0.3-0.4,0.4-0.6C695.8,564.3,695.7,564.5,695.6,564.7z"/>
		<path d="M694.2,566.9c0.5-0.8,0.9-1.5,1.4-2.2C695.2,565.4,694.7,566.1,694.2,566.9z"/>
	</g>
	<g id="_x30_3:hairstyle_x5F_on_x2F_07_x5F_">
		<path id="_x30_5:hairstyle_x5F_under_x2F_07" class="st9" d="M730.2,550.9c0,0,55.1,64.2-2.8,116.5c-13.4,22.6,4.9,27.5,12,42.4
			c7.1,14.8,5.6,28.9,5.6,28.9s-36-21.2-88.9,14.1s-88.2,37.4-98.8,8.5s15.5-80.5,15.5-80.5l90.4-84L730.2,550.9z"/>
	</g>
	<g id="_x30_3:hairstyle_x5F_on_x2F_08_x5F_">
		<path d="M321.4,590.5c-1.4,0-2.8,0.1-4.2,0.2c-2.7-19.1-15.9-34.7-33.5-40.9c1-4.1,1.5-8.5,1.5-12.9c0-13.6-4.8-26.1-12.8-35.9
			c15.6-6.4,26.7-21.7,26.7-39.7c0-23.6-19.2-42.8-42.8-42.8s-42.8,19.2-42.8,42.8c0,7.2,1.8,13.9,4.9,19.8
			C192,485.9,172,509,172,536.8c0,27.1,19,49.7,44.4,55.3c-0.2,1.8-0.3,3.7-0.3,5.6c0,28.1,22.8,50.9,50.9,50.9
			c7.8,0,15.1-1.8,21.7-4.9c6.1,12,18.5,20.2,32.8,20.2c20.3,0,36.8-16.5,36.8-36.8S341.7,590.5,321.4,590.5z"/>
		<path d="M724.6,491.1c1,1,2.1,1.9,3.2,2.7c-11.3,15.5-12.8,36-4.4,52.7c-3.6,2.3-7,5-10.1,8.2c-9.5,9.8-14.7,22.1-15.8,34.7
			c-15.7-6.3-34.3-3-46.8,9.9c-16.5,17-16,44.1,0.9,60.5s44.1,16,60.5-0.9c5-5.1,8.4-11.2,10.3-17.6c22.3,14.9,52.8,12.3,72.1-7.7
			c18.8-19.4,21-48.9,6.6-70.6c1.4-1.2,2.8-2.5,4.1-3.8c19.6-20.2,19.1-52.4-1.1-72c-5.6-5.4-12.1-9.3-19-11.6
			c4-12.8,0.8-27.4-9.5-37.4c-14.6-14.1-37.9-13.8-52,0.8C709.7,453.7,710,477,724.6,491.1z"/>
	</g>
	<g id="_x30_3:hairstyle_x5F_on_x2F_09_x5F_">
		<path class="st11" d="M327.8,269.9c0,0-73.4,67.8-73.4,170.8s-76.2,141.2-14.1,192s-46.6,77.6-39.5,186.4S229,953.2,229,953.2
			S216.3,733,277,733s110.1,59.3,141.2,45.2s48-42.4,29.6-93.2s-86.1-28.2-112.9-127.1S327.8,269.9,327.8,269.9z"/>
		<path class="st11" d="M676.7,269.9c0,0,73.4,67.8,73.4,170.8s76.2,141.2,14.1,192s46.6,77.6,39.5,186.4
			c-2.5,37.9,2,82.3-20.3,115.4c-6.7,9.9-29.4,15.4-32.5,26.8c4.6-17.1,9.2-34.2,13.8-51.3c2-7.3,3.9-14.7,5.1-22.2
			c4.8-31.2,10.6-154.9-42.3-154.9c-60.7,0-110.1,59.3-141.2,45.2c-31.1-14.1-48-42.4-29.6-93.2s86.1-28.2,112.9-127.1
			C696.5,459.1,676.7,269.9,676.7,269.9z"/>
	</g>
</g>
<g id="_x30_4:top">
	<g id="_x30_4:top_x2F_01">
		<path class="st12" d="M764.9,750.3L764.9,750.3c0,0.1,0.1,0.1,0.1,0.2C765,750.4,765,750.3,764.9,750.3z"/>
		<path class="st12" d="M764.5,749.5c0.1,0.1,0.1,0.2,0.2,0.3C764.6,749.7,764.6,749.6,764.5,749.5z"/>
		<path class="st12" d="M615.2,971.9c0,0.2,0,0.4,0,0.5C615.1,972.5,615.2,972.3,615.2,971.9L615.2,971.9z"/>
		<path class="st13" d="M615.2,971.9c1.2-8.1,18-109.1,82.7-144.7c67.1-36.9,75.2-60.9,67.1-76.7c0-0.1-0.1-0.2-0.1-0.2
			c-0.1-0.2-0.2-0.3-0.3-0.5c-0.1-0.1-0.1-0.2-0.2-0.3c-8.9-16.2-40-50.1-101.1-19.1c-8.2,4.1-15.5,8.6-22.3,13
			C636.4,758.1,624.4,809.2,615.2,971.9L615.2,971.9z"/>
		<path class="st6" d="M621.7,971.9h137.4c0.5,0,2.6-10.3,2.7-11c1.7-7,3.2-13.8,8.5-19.1c1.5-1.5,3.3-2.9,4.6-4.6
			c2.4-3.3,2.9-7.8,1.2-11.5c-1.1-2.4-3.1-4.7-2.7-7.3c0.3-2.1,2-3.6,3-5.5c1.9-3.7-0.1-8-0.7-12.1c-1.2-8.4,0.8-22.6,1.7-32.8
			c1.1-12,1.8-24.1,1.9-36.2c-30.4,1.3-67.7,10.6-98.6,41.6C638.8,915.2,623.3,966.3,621.7,971.9z"/>
		<path class="st14" d="M641.2,743.4c-13.4,8.8-24.2,17.5-33.2,23.1c-12.6,27.2-5.7,113.3-38.7,131.5c-36.7,20.3-117,13.4-117,13.4
			l6.9,60.5l0.1,0.5h155.9c0-0.2,0-0.4,0-0.5C624.4,809.2,636.4,758.1,641.2,743.4z"/>
		<path class="st15" d="M836.9,838.2c-2.1-28.9-49.5-96.3-86.7-115.6s-66.6-2.8-112.1-6.8s-54-24.3-54-24.3s0,0-0.1,0
			c-1,0.5-15.1,8.8-22.6,44.3c-7.8,36.8,19.8,38.2,31.7,37c4.4-0.4,9.3-2.8,14.9-6.3c9-5.6,19.7-14.3,33.2-23.1
			c6.7-4.4,14.1-8.9,22.3-13c61-31,92.2,2.9,101.1,19.1c0.1,0.1,0.1,0.2,0.2,0.3c0.1,0.2,0.2,0.3,0.3,0.5l0,0c0,0.1,0.1,0.1,0.1,0.2
			c8.1,15.8,0,39.8-67.1,76.7c-64.7,35.6-81.5,136.7-82.7,144.7c-0.1,0.3-0.1,0.5-0.1,0.5h6.4c0,0,0.1-0.2,0.1-0.5
			c1.6-5.7,17.1-56.7,59-98.6c30.9-30.9,68.2-40.2,98.6-41.6C812.1,830.4,836.9,838.2,836.9,838.2z"/>
		<path class="st6" d="M443.6,972.5H229.9c0,0-8.4-9.4-9.9-25.9c-0.5-5.7,1-8.1,3.5-12.6c2.5-4.6-0.1-11.3-3.6-14.7
			c-2.3-2.2-5.1-4.4-5.8-7.6c-1.1-4.7,2.8-8.9,4.3-13.4c1.8-5.3,0.2-11.1-1.1-16.6c-1.9-7.9-0.7-15.9-0.9-24
			c-0.1-6.3,0-12.6,0.3-18.9c0.8-16.2,2.7-32.5,6.2-48.3c4.1-18.5,10.3-37.9,22.8-52.5c32.3-37.7,79-11.8,79-11.8
			s-20.4,15.5-26.2,21.9C298.4,748.1,425.6,828,443.6,972.5z"/>
		<path class="st13" d="M593.1,772.9c-11.9,1.2-39.5-0.2-31.7-37c7.5-35.5,21.7-43.8,22.6-44.3c-1.7,0.9-45.6,24.3-80.7,24.2
			c-35.8-0.1-81.1-31.8-81.1-31.8s0.2,0.4,0.7,1.1c1.6,1.1,3,2.2,4.1,3.9c5.8,8.7,8.9,20,11.2,28.4c7.6,27.8-4.2,37.5-10.2,44.3
			c-13.5,15.2-4.7,28.3-1.5,35.7c11.9,27.1,20.5,76.3,25.9,115.6l-0.2-1.8c0,0,80.4,6.9,117-13.4c33-18.2,26.2-104.3,38.7-131.5
			C602.4,770.1,597.5,772.4,593.1,772.9z"/>
		<path class="st15" d="M428,761.9c6.1-6.8,17.9-16.5,10.2-44.3c-2.3-8.4-5.3-19.8-11.2-28.4c-1.1-1.7-2.5-2.9-4.1-3.9
			c-2.1-1.4-4.7-2.5-7.7-4.3c0,0-50.6,17.4-90.6,45.3c-9.7,6.7-18.7,14.1-26.2,21.9c0,0,126.5,81,145.1,223.8c0,0.2,0.1,0.4,0.1,0.5
			h15.6c0,0-2.3-26.1-6.8-59.2c-5.4-39.3-14-88.5-25.9-115.6C423.3,790.2,414.6,777.1,428,761.9z"/>
	</g>
	<g id="_x30_4:top_x2F_02">
		<path class="st13" d="M422.3,684.1c0,0,33.9,56.3,4.2,74.5c-50.8,31.1-84-58.8-159.6-35.3s-37,248.6-37,248.6h529.2
			c0,0,63.8-237-35.4-253c-72.2-11.6-104.9,56.4-138.5,52.2c-53.6-6.7-1.1-79.6-1.1-79.6s-45,24.3-80.7,24.3
			S422.3,684.1,422.3,684.1z"/>
		<path class="st16" d="M666.7,726.6c0,0-38.3,95.8-44.5,148.1l44.5,50.2l-5.9,47.5H318.9l-4.7-42.7l37.7-57.1l-18.6-143l15.1,9.5
			l21.5,128.8c0,0,88.1,16.2,120.6,69.5c0,0,41-62,112.8-65.4c0,0,32.2-117,46.9-136.4C650.2,735.6,663.5,726.5,666.7,726.6z"/>
		<path class="st16" d="M340.8,735.4c0,0-19.1-55.9-24.2-56.3s-31.3,19.3-33.8,34.9c-2.4,15.6,57.9,23.4,57.9,23.4
			s-43.1-10.8-44.2-20.3s14.2-22.8,17.8-21.9S340.8,735.4,340.8,735.4z"/>
		<path class="st16" d="M341.2,736.5c0,0,40.7-42.8,45.5-41.1s20.4,30.6,16.1,45.8C398.5,756.4,341.2,736.5,341.2,736.5
			s42.9,9.9,47.8,1.7s-3.4-26.6-7-27.3C378.3,710.3,341.2,736.5,341.2,736.5z"/>
		<path class="st16" d="M340.8,736.2c0,0-63.2,78.9-71,113.3l11.1,7.3L340.8,736.2z"/>
		<path class="st16" d="M341.5,736.2c0,0,63.2,78.9,71,113.3l-11.1,7.3L341.5,736.2z"/>
		<path class="st16" d="M655.7,733.5c0,0,19.1-55.9,24.2-56.3c5-0.5,31.3,19.3,33.8,34.9s-57.9,23.4-57.9,23.4s43.1-10.8,44.2-20.3
			c1.1-9.5-14.2-22.8-17.8-21.9S655.7,733.5,655.7,733.5z"/>
		<path class="st16" d="M655.3,734.7c0,0-40.7-42.8-45.5-41.1s-20.4,30.6-16.1,45.8C598,754.6,655.3,734.7,655.3,734.7
			s-42.9,9.9-47.8,1.7c-4.9-8.2,3.4-26.6,7-27.3C618.2,708.5,655.3,734.7,655.3,734.7z"/>
		<path class="st16" d="M655.7,735.4c0,0,63.2,78.9,71,113.3l-11.1,7.3L655.7,735.4z"/>
		<path class="st16" d="M655.3,733.1c0,0-63.2,78.9-71,113.3l11.1,7.3L655.3,733.1z"/>
		<path class="st16" d="M339,727.8c1.2-1,2.4-2.1,3.8-2.6c1.5-0.6,3.2-0.5,4.4,0.5c1,0.8,1.4,2.2,1.8,3.4c0.8,2.7,1.6,5.5,2.3,8.2
			c0.4,1.3,0.8,2.8,0.2,4.1C348.1,749.2,323.4,741.4,339,727.8z"/>
		<path class="st16" d="M661.4,728.1c1.2,1,2.4,2,3.2,3.3s1.1,3.1,0.3,4.4c-0.7,1.1-1.9,1.8-3.1,2.4c-2.6,1.2-5.1,2.5-7.7,3.7
			c-1.2,0.6-2.6,1.2-4,0.9C641.9,740.9,645.3,715.1,661.4,728.1z"/>
	</g>
	<g id="_x30_4:top_x2F_03">
		<path class="st13" d="M422.3,684.1c0,0,33.9,56.3,4.2,74.5c-50.8,31.1-84-58.8-159.6-35.3s-37,248.6-37,248.6h529.2
			c0,0,63.8-237-35.4-253c-72.2-11.6-104.9,56.4-138.5,52.2c-53.6-6.7-1.1-79.6-1.1-79.6s-45,24.3-80.7,24.3
			S422.3,684.1,422.3,684.1z"/>
		<path class="st7" d="M666.7,726.6c0,0-38.3,95.8-44.5,148.1l44.5,50.2l-5.9,47.5H318.9l-4.7-42.7l37.7-57.1l-18.6-143l15.1,9.5
			l21.5,128.8c0,0,88.1,16.2,120.6,69.5c0,0,41-62,112.8-65.4c0,0,32.2-117,46.9-136.4C650.2,735.6,663.5,726.5,666.7,726.6z"/>
		<path class="st15" d="M333.2,729.6c0,0-22.3-34.7-60.5-25.5c-38.1,9.2-72.7,79.8-84,130.6s-19.1,50.1,20.5,87.5
			c-7.1,24-7.8,26.1-0.7,26.1s12-14.8,19.8-7.8c7.8,7.1,14.1,9.9,21.2,3.5s10.6-12.7,19.8-3.5s19.8,9.9,26.8,2.8
			c7.1-7.1,10.6-7.8,15.5-2.1c4.9,5.6,12.7-0.7,4.9-13.4l35.3-55.2L333.2,729.6z"/>
		<path class="st15" d="M663.8,727.4c0,0,31.8-33.2,69.9-24c38.1,9.2,50.9,80.5,62.2,131.3s19.1,50.1-20.5,87.5
			c7.1,24,7.8,26.1,0.7,26.1s-12-14.8-19.8-7.8s-14.1,9.9-21.2,3.5c-7.1-6.4-10.6-12.7-19.8-3.5s-19.8,9.9-26.8,2.8
			c-7.1-7.1-10.6-7.8-15.5-2.1c-4.9,5.6-18.4-0.7-10.7-13.4l-45.2-55.1L663.8,727.4z"/>
	</g>
	<g id="_x30_4:top_x2F_04">
		<path class="st13" d="M422.3,684.1c0,0,33.9,56.3,4.2,74.5c-50.8,31.1-84-58.8-159.6-35.3s-37,248.6-37,248.6h529.2
			c0,0,63.8-237-35.4-253c-72.2-11.6-104.9,56.4-138.5,52.2c-53.6-6.7-1.1-79.6-1.1-79.6s-45,24.3-80.7,24.3
			S422.3,684.1,422.3,684.1z"/>
		<path class="st7" d="M427.6,753.6c0,0-8.3-58.5-13.2-59.9c-4.9-1.4-34.4,13-39.7,27.9c-5.3,14.9,52.5,33.8,52.5,33.8
			s-40.3-18.7-39.6-28.2c0.7-9.5,18.2-19.7,21.6-18.2S427.6,753.6,427.6,753.6z"/>
		<path class="st7" d="M427.5,754.5c0,0-76.9,65.7-91,98l9.5,9.3L427.5,754.5z"/>
		<path class="st7" d="M564.6,761.5c0,0,24.6-53.7,29.7-53.6s29.2,22.3,30.1,38.1C625.3,761.8,564.6,761.5,564.6,761.5
			s43.8-4.5,45.8-13.8s-11.9-24.1-15.5-23.6C591.2,724.7,564.6,761.5,564.6,761.5z"/>
		<path class="st7" d="M564.8,761.1c0,0,85.4,54.2,103.9,84.2l-8.1,10.5L564.8,761.1z"/>
		<path class="st7" d="M394.2,853.7c0,0,73.4,33.9,95.3,107.3c0,0,24.7-91.1,96-103.8c0,0-8.5-87.5-21.9-98.8
			c0,0,28.2,2.8,40.2,99.5c0,0,56.7,43.4,56.9,114.5H318.9c0,0-8.7-75,60.5-115.2c0,0,2.4-96,53.9-104.5
			C433.2,752.8,407.6,765.5,394.2,853.7z"/>
		<path class="st15" d="M318.9,972.5c0,0-5.9-76.4,60.5-115.2c0,0-11.6-11.3-15.9,0.7s-24.7,2.1-20.8,18.7
			c3.9,16.6-19.8,1.4-16.2,21.9c3.5,20.5-15.5,0-10.2,18.7s-16.6,14.1-8.5,24.7c8.1,10.6-6,15.9-0.4,20.8S301.1,971.9,318.9,972.5z"
			/>
		<path class="st15" d="M394.2,853.7c0,0,5.3-14.5,13.1-4.9s12.7,0.4,18.7,13.4c3.6,7.9,10,3.9,14.2,10.3c2.6,3.9,3.5,8.7,7.7,11.4
			c3.9,2.5,9.8,2.1,10.8,7.9c0.6,3.7-2,7.7-0.4,11c2,4.3,8.5,3.4,12.5,6c3.8,2.5,4.5,7.8,4.5,12.3c0,3.3,0.4,7.6,3.6,8.4
			c1.3,0.3,2.9-0.1,4.1,0.7c1.5,1.1,1.2,3.4,0.9,5.2c-0.3,2.3,0.1,4.9,1.7,6.6s4.8,2,6.2,0.1c0.9-1.2,0.9-2.7,0.9-4.2
			c0-4.2-3.7-7.9-0.7-12c3-4,10-4.3,11.4-9c1-3.7-2.4-7.7-1.3-11.4c1.6-5.5,11.1-5,13-10.4c1.1-3.2-1-7.5,1.3-10
			c1-1.1,2.5-1.5,3.9-1.8c2.8-0.7,5.7-1.5,8.1-3.2c3-2.1,6-19.3,11.7-14.1c8.1,7.4,8.8-13.4,15.9-8.1c7.1,5.3,12.7-14.8,17.6-8.1
			s11.6-7.1,12,7.4c0,0-64.9,7.4-96,103.8C489.5,961,450.3,884.8,394.2,853.7z"/>
		<path class="st15" d="M603.8,857.9c0,0,55.4,45.9,56.9,114.5c0,1.1,9.9-0.7,10.7-1c4.8-2,9.9-12.1,3.1-14.6
			c-2.1-0.8-4.3-0.5-6.6-0.5c-0.7,0-1.4-0.1-1.9-0.6c-0.5-0.6-0.3-1.4-0.1-2.1c0.6-2.2,9.3-25.8,0.6-18c-10.6,9.5,7.1-27.9-4.6-22.9
			c-11.6,4.9,7.1-18.4-6-12.7c-13.1,5.6-4.9-24.7-12-19.1c-7.1,5.6,1.1-21.5-11.3-18c-12.4,3.5-16.9-22.2-24-12
			C608.8,850.9,599.2,844.2,603.8,857.9z"/>
	</g>
	<g id="_x30_4:top_x2F_05">
		<path class="st13" d="M503.4,759.8c33.2,0.5,43.9-11.6,49.4-15.5c3.9-2.8,7.2-9.2,10.2-10c5.4-20.9,21.1-42.7,21.1-42.7
			s-45,24.3-80.7,24.3c-35.8-0.1-81.1-31.8-81.1-31.8s16.5,27.5,16.4,50.3C446.5,750.1,503.4,759.8,503.4,759.8z"/>
		<path class="st15" d="M723.8,719C659,696.3,623,767.3,591.5,771.2c0.7,0.4,1.1,0.7,1.1,0.7c-13.4,31.8-54.1,51.5-69.2,45.9
			c-15.3-5.7-13.2-49.2-19.5-48.5c-6.4,0.7-4.1,54.1-36.6,46.4c-29.4-7-56.3-43.7-61-50.5c-40.5,1.7-77.3-70.1-139.3-41.9
			c-210.1,95.8-37,248.6-37,248.6h529.2C759.2,971.9,909.5,783.8,723.8,719z"/>
		<path class="st17" d="M591.5,771.2c-4.1-2.6-18.7-12.9-22.7-28.3c-1.9-7.2-3.8-9.1-5.8-8.6c-3,0.8-6.3,7.2-10.2,10
			c-5.5,3.9-16.2,16-49.4,15.5c0,0-56.9-9.7-64.7-25.5c-0.3-0.7-0.6-1.4-0.7-2.1c0,0-7.8-9.9-12.7,2.8s-19.8,28.9-19.8,28.9
			s0.3,0.4,0.7,1.1c4.7,6.8,31.6,43.4,61,50.5c32.5,7.8,30.2-45.6,36.6-46.4c6.4-0.7,4.2,42.7,19.5,48.5
			c15.1,5.6,55.8-14.1,69.2-45.9C592.5,771.8,592.1,771.6,591.5,771.2z"/>
		<path class="st17" d="M330.2,723.6c0,0,33.3,11.5,40.7,29.5s-11.6,146.1,28.6,166.2c40.2,20.1,190.6,13.8,201.2,3.2
			S614.2,764.2,624,751c11.6-15.6,36.6-27.4,36.6-27.4s-24,213.8,18.4,248.7H298.9C298.9,972.3,360.9,896.2,330.2,723.6z"/>
	</g>
	<g id="_x30_4:top_x2F_06">
		<path class="st13" d="M422.3,684.1c0,0,33.9,56.3,4.2,74.5c-50.8,31.1-84-58.8-159.6-35.3s-37,248.6-37,248.6h529.2
			c0,0,63.8-237-35.4-253c-72.2-11.6-104.9,56.4-138.5,52.2c-53.6-6.7-1.1-79.6-1.1-79.6s-45,24.3-80.7,24.3
			S422.3,684.1,422.3,684.1z"/>
		<path class="st13" d="M422.3,684.1c0,0,33.9,56.3,4.2,74.5c-50.8,31.1-84-58.8-159.6-35.3s-37,248.6-37,248.6h529.2
			c0,0,63.8-237-35.4-253c-72.2-11.6-104.9,56.4-138.5,52.2c-53.6-6.7-1.1-79.6-1.1-79.6s-45,24.3-80.7,24.3
			S422.3,684.1,422.3,684.1z"/>
		<path class="st16" d="M351.8,735.1c0,0-19.8,138.4,157.4,168.7c177.2,30.4,268.9-33.9,268.9-33.9s6.4-1.4,1.4,19.8
			c-4.9,21.2-1.4,24.7-1.4,34.6c0,9.9-9.1,43.7-19,47.6H229.9c0,0-16.5-9.5-14.3-30.7c2.1-21.2-5.6-35.3-12-48.7s-9.9-34.6-1.4-60.7
			c8.5-26.1-6-86.1,52.9-114.4C295.8,698,356.8,725.2,351.8,735.1z"/>
		<path class="st7" d="M622.9,753.1c0,0,18-19.1,31.8-21.2c0,0-28.6,104.8-19.1,177.9c0,0-193.4,23.6-261.2-83.6
			c0,0,118.2,93.2,224.1,23.3C598.5,849.5,607,766.9,622.9,753.1z"/>
	</g>
	<g id="_x30_4:top_x2F_07">
		<path class="st13" d="M483.8,738.6c46.6,2.8,68.5-3.5,74.8-9.9c2.6-2.6,5-3.2,6.9-2.5c6.7-18.1,18.6-34.7,18.6-34.7
			s-45,24.3-80.7,24.3c-35.8-0.1-81.1-31.8-81.1-31.8s10.1,16.8,14.4,35C440.1,720.4,446.3,736.4,483.8,738.6z"/>
		<path class="st15" d="M749.2,723.1c-14.1-16.9-67.8-18.4-107.3,12.7c-39.5,31.1-50.8,35.3-62.8,31.8s-14.1-25.4-11.3-32.5
			c1.7-4.2,0.4-7.9-2.3-8.9c-1.8-0.7-4.3-0.1-6.9,2.5c-6.4,6.4-28.2,12.7-74.8,9.9c-37.5-2.3-43.7-18.2-47.1-19.6
			c-0.8-0.3-1.5,0.2-2.3,1.9c-3.5,7.1,4.9,10.6,0,24.7c-4.9,14.1-37.4,26.8-62.1,4.9c-24.7-21.9-64.2-47.3-109.4-31.1
			C179.6,749.3,230,971.7,230,971.7h529.2C813.5,771.8,763.4,740.1,749.2,723.1z"/>
	</g>
	<g id="_x30_4:top_x2F_08">
		<path class="st18" d="M723.8,719c-32.8-5.3-57.4,5.9-77.7,19.2l-143.9,131l-163-135.9c-20-11.3-43-19.2-72.2-10.1
			c-75.6,23.5-37,248.6-37,248.6h529.2C759.2,971.9,822.9,735,723.8,719z"/>
		<path class="st13" d="M567.8,764.2c-21.7-19.9,16.3-72.6,16.3-72.6s-45,24.3-80.7,24.3c-35.8-0.1-81.1-31.8-81.1-31.8
			s33.9,56.3,4.2,74.5c-0.8,0.5-1.6,0.9-2.4,1.4l77.3,100.8L567.8,764.2z"/>
		<path class="st15" d="M646.1,738.2L646.1,738.2c1.1-1-0.3-2.8-1.5-1.9c-15.2,10.5-37.4,25.2-47.1,29.2
			c-12.7,5.2-22.1-2.4-25.1-5.3c-0.5-0.5-1.4-0.4-1.9,0.2l-2.6,3.8l-65.4,95.2c-0.5,0.7-1.5,0.7-2,0.1L424.2,760l-1.1-1.4
			c-0.4-0.5-1-0.6-1.5-0.4c-15.2,7.5-61.6-16.7-84.4-29.7c-1.3-0.7-2.5,1.1-1.4,2l3.4,2.8l162.2,135.2c0.5,0.4,1.2,0.4,1.6,0
			L646.1,738.2z"/>
		<path class="st7" d="M609.2,871.6c-3.6-5.6-8.1-10.6-10.8-16.6s-3.4-13.6,0.6-18.9c2.3-3,5.7-4.8,8.4-7.4c2.7-2.6,4.8-6.6,3.2-10
			c-1.4-3-5.1-4.1-8.4-4.4c-7.7-0.6-15.3,1.7-22.6,4.3c-20.1,7.1-39.5,16.3-57.8,27.3c-2.7,1.6-5.8,3.1-8.3,4.8
			c-2.8-1.7-6.4-2.4-10.6-1.6c-4.4,0.8-9.3,1.5-13.3,3c-2.8-2.4-6.7-4.2-10.1-6.2c-18.3-11-37.7-20.2-57.8-27.3
			c-7.3-2.6-14.9-4.9-22.6-4.3c-3.3,0.3-7,1.4-8.4,4.4c-1.6,3.4,0.4,7.4,3.2,10c2.7,2.6,6.2,4.4,8.4,7.4c4,5.3,3.4,12.9,0.6,18.9
			c-2.7,6-7.2,11.1-10.8,16.6c-4.9,7.6-8,16.5-8,25.6c0,4.7,0.9,9.6,3.9,13.3c4,4.9,10.7,6.6,17.1,6.7c13.8,0.1,26.9-6,39.3-12.1
			c2.3-1.1,4.6-2.3,6.9-3.5c-0.9,2.1-1.8,4.3-2.6,6.4c-1.7,4-18.4,49-17.1,49.4c10.8,2.9,22-5.7,32.9-3.2c4.8,1.1,8.8,4.3,13.4,6.1
			c4.6,1.7,10.8,1.5,13.3-2.7c1-1.7,1.2-3.7,1.4-5.7c2-19,3.9-38,5.9-57c2,19,3.9,38,5.9,57c0.2,2,0.4,4,1.4,5.7
			c2.5,4.2,8.7,4.5,13.3,2.7c4.6-1.7,8.6-4.9,13.4-6.1c10.8-2.6,22.1,6,32.9,3.2c1.3-0.3-15.4-45.4-17.1-49.4
			c-1.4-3.1-2.6-6.5-4.1-9.7c4.3,2.4,8.7,4.6,13,6.8c12.4,6.2,25.5,12.3,39.3,12.1c6.3-0.1,13.1-1.8,17.1-6.7
			c3-3.7,3.9-8.6,3.9-13.3C617.2,888.1,614,879.2,609.2,871.6z"/>
	</g>
	<g id="_x30_4:top_x2F_09">
		<path class="st13" d="M422.3,684.1c0,0,33.9,56.3,4.2,74.5c-50.8,31.1-84-58.8-159.6-35.3s-37,248.6-37,248.6h529.2
			c0,0,63.8-237-35.4-253c-72.2-11.6-104.9,56.4-138.5,52.2c-53.6-6.7-1.1-79.6-1.1-79.6s-45,24.3-80.7,24.3
			S422.3,684.1,422.3,684.1z"/>
		<path class="st7" d="M216.3,834.6c0,0-10.6-14.8-3.5-19.8c7.1-4.9,26.1,4.2,31.1,16.2s20.5-19.8,31.8-7.8s21.9-6.4,27.5,6.4
			s25.4-6.4,32.5,7.8c7.1,14.1,25.4-14.1,41.6,4.2c16.2,18.4,36.7-18.4,53.6-0.7c16.9,17.6,36.7-11.3,50.8,2.1
			c14.1,13.4,32.5-14.8,50.8,2.1c18.4,16.9,35.3-9.9,53.6,0c18.4,9.9,52.9-23.3,55.1-7.8c2.1,15.5,43.1-20.5,37.4-1.4
			c-5.6,19.1,46.6-23.3,41.6-6.4s31.1-24,32.5-7.8s40.9-23.3,37.4-6.4c-3.5,16.9-5.6,21.9-5.6,21.9s37.4,73.4-10.6,93.9
			c0,0,6.4,36-18.4,15.5c-24.7-20.5,9.9,18.4-20.5,5.6c-30.4-12.7-26.1,17.6-44.5,1.4c-18.4-16.2-16.9,16.9-27.5,1.4v16.6H327.4
			v-16.4c0,0-8,12.2-23.5-0.5s-13.2,14.6-23.1,0.9c-9.9-13.6-4.7,17.9-16.5,5.2s-20.7,16.5-27.8-0.9s-18.8,13.2-19.8-2.8
			s4.2-18.4,4.2-18.4S167.4,898.6,216.3,834.6z"/>
	</g>
	<g id="_x30_4:top_x2F_10">
		<path class="st13" d="M422.3,684.1c0,0,33.9,56.3,4.2,74.5c-50.8,31.1-84-58.8-159.6-35.3s-37,248.6-37,248.6h529.2
			c0,0,63.8-237-35.4-253c-72.2-11.6-104.9,56.4-138.5,52.2c-53.6-6.7-1.1-79.6-1.1-79.6s-45,24.3-80.7,24.3
			S422.3,684.1,422.3,684.1z"/>
		<path class="st15" d="M749.2,723.1c-14.1-16.9-67.8-18.4-107.3,12.7c-39.5,31.1-50.8,35.3-62.8,31.8s-14.1-25.4-11.3-32.5
			c1.7-4.2,0.4-7.9-2.3-8.9c-1.8-0.7-4.3-0.1-6.9,2.5c-6.4,6.4-28.2,12.7-74.8,9.9c-37.5-2.3-43.7-18.2-47.1-19.6
			c-0.8-0.3-1.5,0.2-2.3,1.9c-3.5,7.1,4.9,10.6,0,24.7c-4.9,14.1-37.4,26.8-62.1,4.9c-24.7-21.9-64.2-47.3-109.4-31.1
			C179.6,749.3,230,971.7,230,971.7h529.2C813.5,771.8,763.4,740.1,749.2,723.1z"/>
		<path class="st7" d="M666.7,719.4c0,0-38.3,103.1-44.5,155.4l44.5,50.2l-5.9,47.5H318.9l-4.7-42.7l37.7-57.1l-18.6-150.3l15.1,9.5
			L369.9,868c0,0,88.1,16.2,120.6,69.5c0,0,41-62,112.8-65.4c0,0,32.2-124.3,46.9-143.7C650.2,728.3,663.5,719.2,666.7,719.4z"/>
	</g>
</g>
<g id="_x30_3:hairstyle_x5F_on">
	<g id="_x30_3:hairstyle_x5F_on_x2F_01">
		<path class="st3" d="M320.9,400.2c0,0-14.7,113.8,0,170.6c14.7,56.9,128.4,148.1,182.5,145c74.3-4.3,139.4-56.6,171.3-117.3
			c17.1-32.5,23.6-81.9,6.9-198.3C661.3,257.8,544.4,251.6,498.9,253S347.7,254.3,320.9,400.2z"/>
		<path class="st3" d="M316.1,490.4c0,0,6.7,66.7,16.9,106.8c0,0-36.1,2.4-53.1-36c-16.2-36.7-18.2-71.3,2.5-83.9
			C303.2,464.7,316.1,490.4,316.1,490.4z"/>
		<path class="st3" d="M688.9,490.4c0,0-5.1,70.2-15.3,110.3c0,0,34.5-1.1,51.5-39.6c16.2-36.7,18.2-71.3-2.5-83.9
			S688.9,490.4,688.9,490.4z"/>
		<path class="st4" d="M283.1,522c0,0-2.8-22.4,5.5-26.5s24.1,2.3,25.6,33"/>
		<path class="st4" d="M722.4,522c0,0,2.8-22.4-5.5-26.5s-24.1,2.3-25.6,33"/>
		<path class="st5" d="M500,186.8c0,0-14.1,229.9,15.2,269.4c0,0-9.2,2.8-28.4,1.8c0,0-18.3-25.7-15.6-84.4c0,0-8.3,49.7,4.6,84.5
			h-7.2c0,0-17.6-7.4-11.1-121.2c0,0-16.6,81.6-1.4,125.7c0,0-38.9,11.9-52.7,8.3c0,0-21.1-6.4-15.6-76.1c0,0-9.2,53.2-0.9,80.7
			c0,0-22,5.5-29.4,4.6c0,0-11.9-15.6-8.3-53.2c0,0-8.3,35.1-4.6,53.3h-8.3l-8.3-35.4c0,0,18.3,169.5,101.7,216.3l-3.8,5.1l-24-11.6
			l18.6,18.8l-6.8,9.2l-21.8,25.1c0,0-72.3-40.4-85.2-122.9c-9-57.2-20.3-102.7-13.3-210C300.5,267.5,375.8,169.4,500,186.8z"/>
		<path d="M500,186.8c0,0-14.6,226.5,15.2,269.4l19.3-3.7c0,0,6.2-53.4,0-83.7c0,0,13.1,44.3,8.3,83.7c0,0,27.5,1.8,37.1,0
			c0,0,10.3-42.4,0-111.2c0,0,12.6,54,10.5,111.2c0,0,43.1,11.2,55.5,7.1c0,0,4-49.8-10.3-97c0,0,66.6,169.9-43.4,290.5l3.2,4.5
			l14-11.6l-10.8,16.2l4.3,6.2l6.9-5.8l-4.3,9.6l24.9,35.6c0,0,85.4-72.9,81.3-211.9S693.6,148.3,500,186.8z"/>
	</g>
	<g id="_x30_3:hairstyle_x5F_on_x2F_02">
		<path class="st3" d="M316.1,490.4c0,0,6.7,66.7,16.9,106.8c0,0-36.1,2.4-53.1-36c-16.2-36.7-18.2-71.3,2.5-83.9
			C303.2,464.7,316.1,490.4,316.1,490.4z"/>
		<path class="st3" d="M688.9,490.4c0,0-5.1,70.2-15.3,110.3c0,0,34.5-1.1,51.5-39.6c16.2-36.7,18.2-71.3-2.5-83.9
			S688.9,490.4,688.9,490.4z"/>
		<path class="st4" d="M283.1,522c0,0-2.8-22.4,5.5-26.5s24.1,2.3,25.6,33"/>
		<path class="st4" d="M722.4,522c0,0,2.8-22.4-5.5-26.5s-24.1,2.3-25.6,33"/>
		<path class="st3" d="M320.9,400.2c0,0-14.7,113.8,0,170.6c14.7,56.9,128.4,148.1,182.5,145c74.3-4.3,139.4-56.6,171.3-117.3
			c17.1-32.5,23.6-81.9,6.9-198.3C661.3,257.8,544.4,251.6,498.9,253S347.7,254.3,320.9,400.2z"/>
		<path class="st6" d="M328.8,418.9c0,0,4.5,50.7,8.7,54.2c4.1,3.4,13.5,0,13.5,0l-1.7-46.2l10.6,44l30.8-1.5c0,0-13.7-56-1.4-84.4
			c0,0,1.5,84.4,12.9,82.5c11.5-1.8,52.4-3.4,52.4-3.4s-6.7-84.4-1.7-97c0,0,3.3,97.7,14,97.7s33.1-3.1,33.1-3.1s-8.1-33.5-5.7-40.9
			l11.9,40.9h31c0,0,8.3-79.4,0-94.1c0,0,15,65.3,8.4,94.1h36.5c0,0,7.5-55.6,2.4-62l6.8,62l45.5,2.5c0,0,12.1-52.5,1.7-93.3
			c0,0,51.5,118.8-8.9,280.2c0,0,42.6-52,55.2-169.2c0,0-16.3,134.4-42.5,179.3c0,0,42.8-37.4,56.2-123.7
			c13.4-86.4,32.5-221.7-61.7-321.4c0,0-42.8-51.1-136.8-29.1c-87.6-17.4-185.5,36.9-208.5,155S285.3,627.5,414,682.9
			c0,0-46.5-27.3-67.6-79.5c0,0,42.3,53.4,74.4,70.3C420.8,673.4,305.7,575.7,328.8,418.9z"/>
	</g>
	<g id="_x30_3:hairstyle_x5F_on_x2F_03">
		<path class="st3" d="M688.9,490.4c0,0-5.1,70.2-15.3,110.3c0,0,34.5-1.1,51.5-39.6c16.2-36.7,18.2-71.3-2.5-83.9
			S688.9,490.4,688.9,490.4z"/>
		<path class="st4" d="M722.4,522c0,0,2.8-22.4-5.5-26.5s-24.1,2.3-25.6,33"/>
		<path class="st3" d="M320.9,400.2c0,0-14.7,113.8,0,170.6c14.7,56.9,128.4,148.1,182.5,145c74.3-4.3,139.4-56.6,171.3-117.3
			c17.1-32.5,23.6-81.9,6.9-198.3C661.3,257.8,544.4,251.6,498.9,253S347.7,254.3,320.9,400.2z"/>
		<path id="hairstyle-03" class="st8" d="M500,186.8c0,0-137.8-43.1-194.8,87.1s-12,163.5-68,215.2s-1.8,117.2,26.6,127.1
			c0,0-24.8-25-23.8-42.4c0,0,17.8,46.8,58.4,61.5s56.4,13.8,56.4,13.8s-33.2-26.2-33.2-32.8c0,0,33.1,34.8,55.7,35.3h31.4
			c0,0-89.3-50.2-68-171.3c0,0-6.3-50.4,7.5-85.3c0,0-7.2,81.3,6.6,84.2c13.8,2.9,0,0,0,0l57.7-5.4c0,0-4.5-29.3,0-46.7
			c0,0,0.9,47.5,8.7,46.7c7.8-0.8,45.5-0.8,45.5-0.8v-31.2l4.9,31.2h31.2v-88l7.7,88h38.8l-2.7-43.8l11.6,43.8h63.4v-29.3l6.7,29.3
			l26.9-1.7c0,0,8.1-58.7,0-66.2c0,0,39.9,115.6-18.5,235.3c0,0,23.1,0.1,29.9-19.7c0,0,5.7,0.8-2.6,12.9c0,0,39.2-28.2,43-90.7
			c2.2-36.7,9.8-47.3,0-138.6C701.7,354,678.4,149.2,500,186.8z"/>
	</g>
	<g id="_x30_3:hairstyle_x5F_on_x2F_04">
		<path class="st3" d="M316.1,490.4c0,0,6.7,66.7,16.9,106.8c0,0-36.1,2.4-53.1-36c-16.2-36.7-18.2-71.3,2.5-83.9
			C303.2,464.7,316.1,490.4,316.1,490.4z"/>
		<path class="st3" d="M688.9,490.4c0,0-5.1,70.2-15.3,110.3c0,0,34.5-1.1,51.5-39.6c16.2-36.7,18.2-71.3-2.5-83.9
			S688.9,490.4,688.9,490.4z"/>
		<path class="st4" d="M283.1,522c0,0-2.8-22.4,5.5-26.5s24.1,2.3,25.6,33"/>
		<path class="st4" d="M722.4,522c0,0,2.8-22.4-5.5-26.5s-24.1,2.3-25.6,33"/>
		<path class="st3" d="M320.9,400.2c0,0-14.7,113.8,0,170.6c14.7,56.9,128.4,148.1,182.5,145c74.3-4.3,139.4-56.6,171.3-117.3
			c17.1-32.5,23.6-81.9,6.9-198.3C661.3,257.8,544.4,251.6,498.9,253S347.7,254.3,320.9,400.2z"/>
		<path class="st9" d="M485.9,343.7c0,0-38.8-34.6-59.3-5.6c-20.5,28.9,9.9,75.2-47.3,89.3s-59.3,56.5-48,85.4s-8.5,52.2-8.5,52.2
			s6.4-19.1-5.6-45.2c-12-26.1-26.1-19.8-37.4-76.2c-11.3-56.5,26.1-296.5,221.6-254.8c0,0,227.3-66.4,207.5,283.1
			c0,0-3.2,28.7-22.6,50.8c-24.7,28.2,0,40.2,0,40.2s-32.5-1.4-18.4-55.1c14.1-53.6-18.7-63.2-63.2-68.1s-56.1-18.4-56.8-62.1
			S531.1,304.9,485.9,343.7z"/>
	</g>
	<g id="_x30_3:hairstyle_x5F_on_x2F_05">
		<path class="st3" d="M316.1,490.4c0,0,6.7,66.7,16.9,106.8c0,0-36.1,2.4-53.1-36c-16.2-36.7-18.2-71.3,2.5-83.9
			C303.2,464.7,316.1,490.4,316.1,490.4z"/>
		<path class="st3" d="M688.9,490.4c0,0-5.1,70.2-15.3,110.3c0,0,34.5-1.1,51.5-39.6c16.2-36.7,18.2-71.3-2.5-83.9
			S688.9,490.4,688.9,490.4z"/>
		<path class="st4" d="M283.1,522c0,0-2.8-22.4,5.5-26.5s24.1,2.3,25.6,33"/>
		<path class="st4" d="M722.4,522c0,0,2.8-22.4-5.5-26.5s-24.1,2.3-25.6,33"/>
		<path class="st3" d="M320.9,400.2c0,0-14.7,113.8,0,170.6c14.7,56.9,128.4,148.1,182.5,145c74.3-4.3,139.4-56.6,171.3-117.3
			c17.1-32.5,23.6-81.9,6.9-198.3C661.3,257.8,544.4,251.6,498.9,253S347.7,254.3,320.9,400.2z"/>
		<path class="st10" d="M491.6,179.6c0,0-154.6-44.8-199.1,132c-11.6,46.2-18,80-20.4,104.7c-3.2,21.2-25.1,175.9-18.8,288.1
			c7.9,139.6,52.9,267.9,52.9,267.9h132.4c0,0,55.1-226.6-25.4-295.4c-15.3-13.1-28.4-25-39.7-36.5c20.7,25.9,59.9,27.1,70.4,30.1
			c0,0-132.2-43-117.5-176.1c4.9-44.8,25.9-47.3,79.1-105.9c55.1-60.7,71.3-71.6,84.7-83.3c0,0,59.6,29.7,106.2,70.9
			c63.5,56.1,136.6,189.4,16.9,274.2c0,0,86.8-14.8,79.4-165.2c0,0,26.5,0,33.9-38.1C732.6,416.3,662.4,116.1,491.6,179.6z"/>
	</g>
	<g id="_x30_3:hairstyle_x5F_on_x2F_06">
		<path class="st3" d="M316.1,490.4c0,0,6.7,66.7,16.9,106.8c0,0-36.1,2.4-53.1-36c-16.2-36.7-18.2-71.3,2.5-83.9
			C303.2,464.7,316.1,490.4,316.1,490.4z"/>
		<path class="st3" d="M688.9,490.4c0,0-5.1,70.2-15.3,110.3c0,0,34.5-1.1,51.5-39.6c16.2-36.7,18.2-71.3-2.5-83.9
			S688.9,490.4,688.9,490.4z"/>
		<path class="st4" d="M283.1,522c0,0-2.8-22.4,5.5-26.5s24.1,2.3,25.6,33"/>
		<path class="st4" d="M722.4,522c0,0,2.8-22.4-5.5-26.5s-24.1,2.3-25.6,33"/>
		<path class="st3" d="M320.9,400.2c0,0-14.7,113.8,0,170.6c14.7,56.9,128.4,148.1,182.5,145c74.3-4.3,139.4-56.6,171.3-117.3
			c17.1-32.5,23.6-81.9,6.9-198.3C661.3,257.8,544.4,251.6,498.9,253S347.7,254.3,320.9,400.2z"/>
		<path class="st7" d="M444.6,154.9c-5.3-1.4-10.3-3.7-14.7-6.9c-1.2-0.8-2.3-1.8-2.8-3.2c-1.2-4,4.4-6.4,8.6-6.8
			c41.7-3.8,83.5-6.4,125.4-7.9c15-0.5,6.8,16.3,8.6,24.2c2.6,11.3,19.7,21.5-2.4,23.4c-17.7,1.5-33.8,8.1-51.4,9.9
			c-10.8,1.1-21.6-0.1-32.4-1.2c-14.7-1.6-36.2,0.3-49.9-6.2C412.1,169.9,426.8,156.4,444.6,154.9z"/>
		<path class="st19" d="M481.7,388.5c0,0-46.6-24.7-15.5-65.6s42.4,14.8,42.4,14.8s32.5-50.8,53.6-1.4
			c21.2,49.4-32.5,53.6-32.5,53.6s53.6,11.3,48-40.9c-2.1-19.8-8.5-30.4-8.5-30.4s38.1,17.6,23.3,50.1s9.2,45.2,29.6,40.2
			s32.5,9.9,22.6,23.3s-2.8,30.4,12,31.1s28.9,12.7,18.4,36.7c-10.6,24-35.3,60.7-12,66.4c23.3,5.6,7.8,47.3-13.4,39.5
			s-9.2-24-9.2-24s-18.4,22.6,0.7,37.4c19.1,14.8,58.6-12.7,37.4-60.7c-12.7-21.9,0.7-12,13.4-41.7c3-7.1,4.5-13.8,5.8-21.3
			c0.6-3.6,1.3-7.3,3.5-10.1c7-8.7,27-5.3,28.8-18.7c2.1-15.5-4.6-360.7-227.3-280.9c0,0-83.3-40.2-141.2,12
			s-134.1,262.6-85.4,285.2c18.4,8.5,38.8,2.8,38.8,2.8s-24,45.9,9.2,58.6s22.6,28.2,15.5,38.1c-7.1,9.9-14.1,47.3,24,45.2
			s19.8-47.3,19.8-47.3s10.6,38.8-15.5,40.2s-29.6-16.2-10.6-40.9c19.1-24.7-26.8-42.4-30.4-67.1s40.9-41.6,33.9-78.4
			s40.9-4.2,31.1-28.9c-9.9-24.7-6.4-38.8,21.9-43.1c28.2-4.2,9.9-50.1,31.8-57.2C445.7,305.2,404.8,377.2,481.7,388.5z"/>
	</g>
	<g id="_x30_3:hairstyle_x5F_on_x2F_07">
		<path class="st3" d="M316.1,490.4c0,0,6.7,66.7,16.9,106.8c0,0-36.1,2.4-53.1-36c-16.2-36.7-18.2-71.3,2.5-83.9
			C303.2,464.7,316.1,490.4,316.1,490.4z"/>
		<path class="st3" d="M688.9,490.4c0,0-5.1,70.2-15.3,110.3c0,0,34.5-1.1,51.5-39.6c16.2-36.7,18.2-71.3-2.5-83.9
			S688.9,490.4,688.9,490.4z"/>
		<path class="st4" d="M283.1,522c0,0-2.8-22.4,5.5-26.5s24.1,2.3,25.6,33"/>
		<path class="st4" d="M722.4,522c0,0,2.8-22.4-5.5-26.5s-24.1,2.3-25.6,33"/>
		<path class="st3" d="M320.9,400.2c0,0-14.7,113.8,0,170.6c14.7,56.9,128.4,148.1,182.5,145c74.3-4.3,139.4-56.6,171.3-117.3
			c17.1-32.5,23.6-81.9,6.9-198.3C661.3,257.8,544.4,251.6,498.9,253S347.7,254.3,320.9,400.2z"/>
		<path class="st9" d="M688.9,490.4c0,0,10.2-21.7,27.4-17c50.8,19.8,0.5,106.4,0.5,106.4s17.3-2.5,50.1-45.9s-9.5-49.8-64.6-216
			S547.7,184.5,547.7,184.5c-32.8-26.5-67.8-23.3-67.8-23.3c-173.6,0-219.2,178.9-203.3,252S202.5,553,229,616.5
			s67.8,70.9,45.5,135.5s-51.9,81.5-10.6,136.6s23.3,82.6,23.3,82.6h170.5c0,0-20.1-25.4-2.1-58.2s-8.5-74.1-24.4-110.1
			s0-42.4,16.9-91.1c16.9-48.7-82.6-84.7-102.7-121.8s-30.7-122.8,23.3-136.6s30.7-78.4,99.5-105.9s70.9-72,70.9-72
			S577,415.2,688.9,490.4z"/>
	</g>
	<g id="_x30_3:hairstyle_x5F_on_x2F_08">
		<path class="st3" d="M316.1,490.4c0,0,6.7,66.7,16.9,106.8c0,0-36.1,2.4-53.1-36c-16.2-36.7-18.2-71.3,2.5-83.9
			C303.2,464.7,316.1,490.4,316.1,490.4z"/>
		<path class="st3" d="M688.9,490.4c0,0-5.1,70.2-15.3,110.3c0,0,34.5-1.1,51.5-39.6c16.2-36.7,18.2-71.3-2.5-83.9
			S688.9,490.4,688.9,490.4z"/>
		<path class="st4" d="M283.1,522c0,0-2.8-22.4,5.5-26.5s24.1,2.3,25.6,33"/>
		<path class="st4" d="M722.4,522c0,0,2.8-22.4-5.5-26.5s-24.1,2.3-25.6,33"/>
		<path class="st3" d="M320.9,400.2c0,0-14.7,113.8,0,170.6c14.7,56.9,128.4,148.1,182.5,145c74.3-4.3,139.4-56.6,171.3-117.3
			c17.1-32.5,23.6-81.9,6.9-198.3C661.3,257.8,544.4,251.6,498.9,253S347.7,254.3,320.9,400.2z"/>
		<path d="M496.9,329.6c0,0,183.2,160.9,200.1,159.9c16.9-1.1,34.9,0,45.5-28.6s-72-327.2-239.3-253.1c0,0-96.4-48.7-190.6,90
			s-46.6,194.8-2.1,187.4S496.9,329.6,496.9,329.6z"/>
	</g>
	<g id="_x30_3:hairstyle_x5F_on_x2F_09">
		<path class="st3" d="M316.1,490.4c0,0,6.7,66.7,16.9,106.8c0,0-36.1,2.4-53.1-36c-16.2-36.7-18.2-71.3,2.5-83.9
			C303.2,464.7,316.1,490.4,316.1,490.4z"/>
		<path class="st3" d="M688.9,490.4c0,0-5.1,70.2-15.3,110.3c0,0,34.5-1.1,51.5-39.6c16.2-36.7,18.2-71.3-2.5-83.9
			S688.9,490.4,688.9,490.4z"/>
		<path class="st4" d="M283.1,522c0,0-2.8-22.4,5.5-26.5s24.1,2.3,25.6,33"/>
		<path class="st4" d="M722.4,522c0,0,2.8-22.4-5.5-26.5s-24.1,2.3-25.6,33"/>
		<path class="st3" d="M320.9,400.2c0,0-14.7,113.8,0,170.6c14.7,56.9,128.4,148.1,182.5,145c74.3-4.3,139.4-56.6,171.3-117.3
			c17.1-32.5,23.6-81.9,6.9-198.3C661.3,257.8,544.4,251.6,498.9,253S347.7,254.3,320.9,400.2z"/>
		<path d="M709.7,403.7c-9.3-69-28.5-201.4-131-226.4c-9.1-26-45.3-54.5-96.6-46.8c-47.4,7.2-66.1,39.3-70.8,49
			c-33,7.5-69.8,30.5-91.2,90.7c-36.2,101.9,3.2,234-70.9,201.2c0,0,47.8,34.7,66.9,19c52.7-43.3,107.8-143.7,151.1-163.6
			c11.3-5.2,30.1,39.1,30.1,39.1s17.4-38.1,33.4-36.9c26.7,2,172,259.3,222.5,125.5C753.1,454.5,721.4,490.5,709.7,403.7z"/>
		<path class="st11" d="M475.9,132.2c-0.6-0.4-1.2-0.8-1.7-1.2c-18.9-14.4,3.4-42.2,13.2-52.3C556.2,7.8,695,45.3,748.7,167.4
			c53.8,122.1,134,165.8,158.5,155.2c0,0-43.3,21.6-80.9-23.6c0,0,39.8,89.8,115.6,58.6c0,0-155.3,113.3-249.1-121.8
			c-15.1-37.9-37.8-75-71.9-98.6c-21.3-14.8-57.5-29-83.8-25.3c-2.9,0.4-5.9,1.4-7.6,3.8c-1,1.4-1.4,3.2-1.9,4.8
			c-2.4,7.1-8.6,12.6-15.6,15.3s-14.8,2.7-22.2,1.4C484.9,136.3,480,134.8,475.9,132.2z"/>
		<path class="st15" d="M476.5,113c0.8,0.3,1.5,0.7,2.1,0.9c14.6,5.9,26.1-3.7,40.2-3.2c7,0.2,22.3,7.5,8.4,12.3
			c5.2,5.9,7.9,20.8-4.1,19.8c-20.5-1.6-41.4,4.3-61.2-3.5c-1.6-0.6-3.4-1.4-4.3-2.9c-0.6-1-0.7-2.2-0.9-3.4c-0.2-2.4-0.5-5,0.7-7.2
			c0.3-0.6,0.7-1.2,1-1.8c0.5-1.5,0-3.1-0.8-4.5c-2.7-5-2.8-11.4,4.3-11.5C466.9,108,472.1,111,476.5,113z"/>
	</g>
	<g id="_x30_3:hairstyle_x5F_on_x2F_10_1_">
		<path class="st3" d="M316.1,490.4c0,0,6.7,66.7,16.9,106.8c0,0-36.1,2.4-53.1-36c-16.2-36.7-18.2-71.3,2.5-83.9
			C303.2,464.7,316.1,490.4,316.1,490.4z"/>
		<path class="st3" d="M688.9,490.4c0,0-5.1,70.2-15.3,110.3c0,0,34.5-1.1,51.5-39.6c16.2-36.7,18.2-71.3-2.5-83.9
			S688.9,490.4,688.9,490.4z"/>
		<path class="st4" d="M283.1,522c0,0-2.8-22.4,5.5-26.5s24.1,2.3,25.6,33"/>
		<path class="st4" d="M722.4,522c0,0,2.8-22.4-5.5-26.5s-24.1,2.3-25.6,33"/>
		<path class="st3" d="M320.9,400.2c0,0-14.7,113.8,0,170.6c14.7,56.9,128.4,148.1,182.5,145c74.3-4.3,139.4-56.6,171.3-117.3
			c17.1-32.5,23.6-81.9,6.9-198.3C661.3,257.8,544.4,251.6,498.9,253S347.7,254.3,320.9,400.2z"/>
		<path d="M607.4,200.8c0,0-127.1-110.8-283.1,14.8s-132.7,420-27.5,464.5s180,13.4,180,13.4s-141.2-44.5-149-129.9
			c0,0,4.9,33.9,33.2,45.9c0,0-64.9-93.9-6.4-219.5c0,0-10.3,52.3,14.1,67.8c0,0,2.8-26.8,16.9-60.7c0,0-2.8,42.4,0,60.7
			c0,0,180.7,18.4,197.6-108.7c0,0,70.1,96.3,108.7,134.8c-2.8-153.2-98.1-200.5-98.1-200.5c113.6,20.1,132.4,189.1,133,195.5
			c1.8,1.6,3.6,3.4,5.5,5.7C732.5,484.5,743.6,217.7,607.4,200.8z"/>
		<path class="st20" d="M692.1,483.8c0,0,14.5-21,34.9-4.8c0,0,0-0.1,0-0.2C706.4,460.8,692.1,483.8,692.1,483.8z"/>
		<path class="st20" d="M593.9,283.4c0,0,95.3,47.3,98.1,200.5c0,0,14.3-23,34.9-5C726.3,472.5,707.5,303.4,593.9,283.4z"/>
		<path class="st21" d="M646.4,641.8c-6.3,7.1-13.7,15-22.7,23.5C632.1,657.8,639.8,649.7,646.4,641.8z"/>
		<path class="st21" d="M674.4,602.2c1.2-0.2,2.3-0.4,3.4-0.7C676.7,601.8,675.6,602,674.4,602.2z"/>
		<path d="M678.2,601.5c24.5-5.4,35.1-20.3,35.1-20.3c-24.9,78.2-89.5,84-89.5,84s71.5,11.3,103.6-105.2
			C727.4,560.1,714.3,593.4,678.2,601.5z"/>
		<path class="st20" d="M646.4,641.8c20.9-23.9,28-39.5,28-39.5S663.7,621.2,646.4,641.8z"/>
		<path class="st20" d="M677.8,601.6c0.1,0,0.3-0.1,0.4-0.1C678,601.5,677.9,601.6,677.8,601.6z"/>
		<path class="st20" d="M713.2,581.2c0,0-10.6,14.9-35.1,20.3c-0.1,0-0.3,0.1-0.4,0.1c-1.1,0.2-2.2,0.5-3.4,0.7c0,0-7,15.6-28,39.5
			c-6.7,7.9-14.3,16.1-22.7,23.5C623.8,665.2,688.4,659.4,713.2,581.2z"/>
	</g>
	<g id="_x30_3:hairstyle_x5F_on_x2F_11_1_">
		<path class="st3" d="M316.1,490.4c0,0,6.7,66.7,16.9,106.8c0,0-36.1,2.4-53.1-36c-16.2-36.7-18.2-71.3,2.5-83.9
			C303.2,464.7,316.1,490.4,316.1,490.4z"/>
		<path class="st3" d="M688.9,490.4c0,0-5.1,70.2-15.3,110.3c0,0,34.5-1.1,51.5-39.6c16.2-36.7,18.2-71.3-2.5-83.9
			S688.9,490.4,688.9,490.4z"/>
		<path class="st4" d="M283.1,522c0,0-2.8-22.4,5.5-26.5s24.1,2.3,25.6,33"/>
		<path class="st4" d="M722.4,522c0,0,2.8-22.4-5.5-26.5s-24.1,2.3-25.6,33"/>
		<path class="st3" d="M320.9,400.2c0,0-14.7,113.8,0,170.6c14.7,56.9,128.4,148.1,182.5,145c74.3-4.3,139.4-56.6,171.3-117.3
			c17.1-32.5,23.6-81.9,6.9-198.3C661.3,257.8,544.4,251.6,498.9,253S347.7,254.3,320.9,400.2z"/>
		<path class="st11" d="M922.2,783.8c8.5,41.3-31.8,45.5-31.8,45.5C858.6,839.9,772.9,769,866,716.1
			c82.1-46.7,26.9-125.4,12.6-143.4c14.7,14.3,51.5,13.5,58.3-21.8c7.4-38.1-19.1-45.5-19.1-45.5c16.9,19.1-1.1,33.9-1.1,33.9
			c-45.5,23.3-67.8-44.5-21.2-73.1s28.6-101.6-21.2-137.6S869,266.1,859.5,209c-8-47.9-59-40.1-75.4-36.3
			c6.2-2.4,15.5-9.1,11.9-27.3c-5.3-26.5-29.6-15.9-29.6-15.9c18-4.2,27.5,45.5-21.2,30.7c-40.6-12.3-58.4,29.7-63.2,44
			c-35.6-21.7-117.8-60.9-188.4-14.4c0,0-80.6-50.8-171.4,10.8c-6.3-16.7-24.3-51.9-61.9-40.4c-48.7,14.8-39.2-34.9-21.2-30.7
			c0,0-24.4-10.6-29.6,15.9c-3.6,18.1,5.7,24.8,11.9,27.3C205,168.9,154,161.1,146,209c-9.5,57.2,34.9,83.6-14.8,119.6
			S63.4,437.7,110,466.2c46.6,28.6,24.4,96.4-21.2,73.1c0,0-18-14.8-1.1-33.9c0,0-26.5,7.4-19.1,45.5c6.9,35.3,43.6,36.1,58.3,21.8
			c-14.3,18-69.5,96.8,12.6,143.4c93.2,52.9,7.4,123.9-24.4,113.3c0,0-40.2-4.2-31.8-45.5c0,0-51.9,56.1,6.4,100.6
			s104.8-15.9,104.8-15.9s-12.7,47.6,48.7,56.1c0,0-36-16.9-13.8-46.6c22.2-29.6,78.4-75.2,73.1-116.5s-30.7-52.9-6.4-108
			c0,0,3.2,27.5,36,14.8c0,0-28.6,6.4-31.8-50.8c-2.9-51.4-48.4-92.5-20.8-134.1c8.3,5.3,19.1,7.2,32.8,4.9
			c0,0-7.4,111.2,59.3,128.1c0,0-70.9-29.6-32.9-249.7c-0.3,2.1-3.5,24.5,9.6,72.9c5.3,20.1,9.5,13.8,34.9,13.8
			c39.4,0,65.6-13.8,218.1-2.1l3.2-62.5c0,0,0,63.5,9.5,63.5s45.5,9.5,45.5,9.5s5-44.4-1.3-78.9c9.2,40.9,35,174-5,234.5
			c0,0,38.1-18.2,38.1-128.4c0,0,17.2,4.8,32.6-8.1c31,42.4-16.3,84.1-19.2,136.4c-3.2,57.2-31.8,50.8-31.8,50.8
			c32.8,12.7,36-14.8,36-14.8c24.4,55.1-1.1,66.7-6.4,108c-5.3,41.3,50.8,86.8,73.1,116.5c22.2,29.6-13.8,46.6-13.8,46.6
			c61.4-8.5,48.7-56.1,48.7-56.1s46.6,60.4,104.8,15.9S922.2,783.8,922.2,783.8z"/>
		<path class="st15" d="M324.3,240.2c-2.1,10.2-7.1,19.5-9.7,29.8c-0.8,3.2-2.2,6.5-5.1,8c-9.8,5.3-9.3-8.1-13.7-10.1
			c-4.6-2.2-11.7,3.1-17.7,1.2c-15-4.7-7.3-21.1-1-30.9c7.1-11.1,11.7-21.2,16.9-33.7c2.3-5.6,4.7-11.4,9.1-15.6
			c4.3-4.2,11.2-6.6,16.6-4c2.5,1.2,4.7,3.3,7.1,4.7c1.6,0.9,3.3,1.5,5.1,1.1c1.7-0.3,3.2-1.5,4.9-2.2c4.6-1.8,10.9,1,12.1,6
			c1.5,6.1-4.9,8.9-8.6,12.4C329.8,217,327.2,226.2,324.3,240.2z"/>
		<path class="st15" d="M681.5,240.2c2.1,10.2,7.1,19.5,9.7,29.8c0.8,3.2,2.2,6.5,5.1,8c9.8,5.3,9.3-8.1,13.7-10.1
			c4.6-2.2,11.7,3.1,17.7,1.2c15-4.7,7.3-21.1,1-30.9c-7.1-11.1-11.7-21.2-16.9-33.7c-2.3-5.6-4.7-11.4-9.1-15.6
			c-4.3-4.2-11.2-6.6-16.6-4c-2.5,1.2-4.7,3.3-7.1,4.7c-1.6,0.9-3.3,1.5-5.1,1.1c-1.7-0.3-3.2-1.5-4.9-2.2c-4.6-1.8-10.9,1-12.1,6
			c-1.5,6.1,4.9,8.9,8.6,12.4C676,217,678.6,226.2,681.5,240.2z"/>
	</g>
	<g id="_x30_3:hairstyle_x5F_on_x2F_12">
		<path class="st3" d="M316.1,490.4c0,0,6.7,66.7,16.9,106.8c0,0-36.1,2.4-53.1-36c-16.2-36.7-18.2-71.3,2.5-83.9
			C303.2,464.7,316.1,490.4,316.1,490.4z"/>
		<path class="st3" d="M688.9,490.4c0,0-5.1,70.2-15.3,110.3c0,0,34.5-1.1,51.5-39.6c16.2-36.7,18.2-71.3-2.5-83.9
			S688.9,490.4,688.9,490.4z"/>
		<path class="st4" d="M283.1,522c0,0-2.8-22.4,5.5-26.5s24.1,2.3,25.6,33"/>
		<path class="st4" d="M722.4,522c0,0,2.8-22.4-5.5-26.5s-24.1,2.3-25.6,33"/>
		<path class="st3" d="M320.9,400.2c0,0-14.7,113.8,0,170.6c14.7,56.9,128.4,148.1,182.5,145c74.3-4.3,139.4-56.6,171.3-117.3
			c17.1-32.5,23.6-81.9,6.9-198.3C661.3,257.8,544.4,251.6,498.9,253S347.7,254.3,320.9,400.2z"/>
		<path d="M442.9,315.8c0,0-22.9,82.2-3.9,135.2c0,0,12.7,8.5,22.2,3.2l4.9-64.2l4.2,65.6c0,0,9.5,3.2,31.8,0l6.4-34.9
			c0,0-0.4,36.4,2.8,36.4c3.2,0,40.6,6,63.9-2.5l4.2-61.4l4.6,62.5c0,0,30.4-1.1,30.4-10.6c0,0-18-106.9-28.6-126
			c0,0,65.9,164.5,98.5,170.5s42.4-25.4,54,11.6c0,0,26.5-69.9-14.8-170.5s-123.9-184.2-216-141.9c0,0-137.6-56.1-209.6,128.1
			c-31.7,81.2-53,164.9-31.4,174c18.4,7.8,29.7-2.5,47.3-3.5C313.7,487.4,417.5,448.2,442.9,315.8z"/>
		<path d="M293.2,583.4c0,0-32.5,64.2,14.1,76.2c0,0-58.6,52.9-2.8,70.6c0,0-55.8,58.6,12,83.3c0,0-48,88.2,12,105.9
			c60,17.6,72.7-31.1,72.7-31.1s-26.1,18.4-31.8-6.4s5.6-50.8-26.1-68.5c0,0,54.4-50.1-7.1-83.3c0,0,52.2-32.5-4.2-69.9
			c0,0,36-9.9,14.8-43.1c0,0-8-9-13.9-20C333,597.2,315.8,603.1,293.2,583.4z"/>
		<path d="M715.4,579.8c0,0,33.1,67.8-13.5,79.8c0,0,58.6,52.9,2.8,70.6c0,0,55.8,58.6-12,83.3c0,0,48,88.2-12,105.9
			c-60,17.6-72.7-31.1-72.7-31.1s26.1,18.4,31.8-6.4c5.6-24.7-5.6-50.8,26.1-68.5c0,0-54.4-50.1,7.1-83.3c0,0-52.2-32.5,4.2-69.9
			c0,0-35.9-5.6-14.8-38.8c0,0,6.4-8.5,12.2-19.5C674.6,601.9,694.2,601.9,715.4,579.8z"/>
	</g>
</g>
<g id="_x30_2:face">
	<g id="_x30_2:face_x2F_01">
		<path d="M655.8,487.9c0,0-17.9-19.3-59.3-14c-33.8,4.3-43.5,46.2-44.6,63.7c-1.2-11.4,6.5-69.8,48.1-75.1
			c44.7-5.7,63.9,15.1,63.9,15.1c1.8,34.3-8.2,53.6-22.9,63.8C651,531.1,657.1,514.3,655.8,487.9z"/>
		<path class="st14" d="M552.3,539.3c-0.2-0.3-0.3-0.9-0.4-1.7c1.1-17.5,10.9-59.5,44.6-63.7c41.4-5.3,59.3,14,59.3,14
			c1.4,26.4-4.8,43.2-14.7,53.5C608.8,563.9,554,542.4,552.3,539.3z"/>
		<circle class="st7" cx="603.9" cy="511.6" r="38.4"/>
		<path class="st22" d="M635.2,542.8c1.6,2,2.7,4.4,3.3,6.9"/>
		<path class="st23" d="M627.3,546.5c1.3,2.4,2.1,5,2.3,7.7"/>
		<path class="st24" d="M619,549.3c0.9,2.3,1.4,4.8,1.5,7.3"/>
		<path d="M491.8,547.2c0.7,7.3,6.3,14,13.7,15.3c1.3,0.2,2.8-0.4,3.1-1.7c0.3-1.2-0.4-2.8-1.7-3.1c-0.7-0.1-1.5-0.3-2.2-0.6
			c-0.2-0.1-0.3-0.1-0.5-0.2c-0.2-0.1-0.1,0,0.2,0.1c-0.1,0-0.2-0.1-0.2-0.1c-0.3-0.2-0.7-0.3-1-0.5s-0.7-0.4-1-0.6
			c-0.2-0.1-0.3-0.2-0.4-0.3c-0.4-0.3,0.4,0.3-0.1-0.1c-0.6-0.5-1.1-1-1.6-1.5c-0.2-0.3-0.5-0.5-0.7-0.8c-0.4-0.5,0.3,0.4-0.1-0.1
			c-0.1-0.1-0.2-0.3-0.3-0.4c-0.4-0.6-0.8-1.2-1.1-1.9c-0.1-0.2-0.2-0.3-0.2-0.5c0.1,0.6,0,0.1,0-0.1c-0.1-0.3-0.2-0.7-0.3-1
			c-0.1-0.4-0.2-0.8-0.3-1.1c0-0.2-0.1-0.4-0.1-0.5c0-0.2,0-0.1,0,0.2c0-0.1,0-0.2,0-0.4c-0.1-1.3-1.1-2.6-2.5-2.5
			C493.1,544.8,491.7,545.8,491.8,547.2L491.8,547.2z"/>
		<path class="st7" d="M466.9,600.8c0,0,18.5-7.2,28-5.8s16.4,2.4,25.6-0.2c9.2-2.6,25.1,2.5,25.1,2.5s-11.8,24.3-39.4,23.4
			C478.6,619.8,471.9,606.6,466.9,600.8z"/>
		<path class="st25" d="M454.6,597.2c0,0,49.5,14.7,103.6-2.3"/>
		<path d="M341.4,487.9c0,0,17.9-19.3,59.3-14c33.8,4.3,43.5,46.2,44.6,63.7c1.2-11.4-6.5-69.8-48.1-75.1
			c-44.7-5.7-63.9,15.1-63.9,15.1c-1.8,34.3,8.2,53.6,22.9,63.8C346.2,531.1,340,514.3,341.4,487.9z"/>
		<path class="st14" d="M444.9,539.3c0.2-0.3,0.3-0.9,0.4-1.7c-1.1-17.5-10.9-59.5-44.6-63.7c-41.4-5.3-59.3,14-59.3,14
			c-1.4,26.4,4.8,43.2,14.7,53.5C388.3,563.9,443.1,542.4,444.9,539.3z"/>
		<circle class="st7" cx="393.2" cy="511.6" r="38.4"/>
		<path class="st22" d="M361.9,542.8c-1.6,2-2.7,4.4-3.3,6.9"/>
		<path class="st23" d="M369.8,546.5c-1.3,2.4-2.1,5-2.3,7.7"/>
		<path class="st24" d="M378.1,549.3c-0.9,2.3-1.4,4.8-1.5,7.3"/>
	</g>
	<g id="_x30_2:face_x2F_02">
		<path d="M655.8,487.9c0,0-17.9-19.3-59.3-14c-33.8,4.3-43.5,46.2-44.6,63.7c-1.2-11.4,6.5-69.8,48.1-75.1
			c44.7-5.7,63.9,15.1,63.9,15.1c1.8,34.3-8.2,53.6-22.9,63.8C651,531.1,657.1,514.3,655.8,487.9z"/>
		<path class="st14" d="M552.3,539.3c-0.2-0.3-0.3-0.9-0.4-1.7c1.1-17.5,10.9-59.5,44.6-63.7c41.4-5.3,59.3,14,59.3,14
			c1.4,26.4-4.8,43.2-14.7,53.5C608.8,563.9,554,542.4,552.3,539.3z"/>
		<circle class="st15" cx="603.9" cy="511.6" r="38.4"/>
		<path class="st22" d="M635.2,542.8c1.6,2,2.7,4.4,3.3,6.9"/>
		<path class="st23" d="M627.3,546.5c1.3,2.4,2.1,5,2.3,7.7"/>
		<path class="st24" d="M619,549.3c0.9,2.3,1.4,4.8,1.5,7.3"/>
		<path d="M491.8,547.2c0.7,7.3,6.3,14,13.7,15.3c1.3,0.2,2.8-0.4,3.1-1.7c0.3-1.2-0.4-2.8-1.7-3.1c-0.7-0.1-1.5-0.3-2.2-0.6
			c-0.2-0.1-0.3-0.1-0.5-0.2c-0.2-0.1-0.1,0,0.2,0.1c-0.1,0-0.2-0.1-0.2-0.1c-0.3-0.2-0.7-0.3-1-0.5s-0.7-0.4-1-0.6
			c-0.2-0.1-0.3-0.2-0.4-0.3c-0.4-0.3,0.4,0.3-0.1-0.1c-0.6-0.5-1.1-1-1.6-1.5c-0.2-0.3-0.5-0.5-0.7-0.8c-0.4-0.5,0.3,0.4-0.1-0.1
			c-0.1-0.1-0.2-0.3-0.3-0.4c-0.4-0.6-0.8-1.2-1.1-1.9c-0.1-0.2-0.2-0.3-0.2-0.5c0.1,0.6,0,0.1,0-0.1c-0.1-0.3-0.2-0.7-0.3-1
			c-0.1-0.4-0.2-0.8-0.3-1.1c0-0.2-0.1-0.4-0.1-0.5c0-0.2,0-0.1,0,0.2c0-0.1,0-0.2,0-0.4c-0.1-1.3-1.1-2.6-2.5-2.5
			C493.1,544.8,491.7,545.8,491.8,547.2L491.8,547.2z"/>
		<path class="st7" d="M466.9,600.8c0,0,18.5-7.2,28-5.8s16.4,2.4,25.6-0.2c9.2-2.6,25.1,2.5,25.1,2.5s-11.8,24.3-39.4,23.4
			C478.6,619.8,471.9,606.6,466.9,600.8z"/>
		<path class="st25" d="M454.6,597.2c0,0,49.5,14.7,103.6-2.3"/>
		<path d="M341.4,487.9c0,0,17.9-19.3,59.3-14c33.8,4.3,43.5,46.2,44.6,63.7c1.2-11.4-6.5-69.8-48.1-75.1
			c-44.7-5.7-63.9,15.1-63.9,15.1c-1.8,34.3,8.2,53.6,22.9,63.8C346.2,531.1,340,514.3,341.4,487.9z"/>
		<path class="st14" d="M444.9,539.3c0.2-0.3,0.3-0.9,0.4-1.7c-1.1-17.5-10.9-59.5-44.6-63.7c-41.4-5.3-59.3,14-59.3,14
			c-1.4,26.4,4.8,43.2,14.7,53.5C388.3,563.9,443.1,542.4,444.9,539.3z"/>
		<circle class="st15" cx="393.2" cy="511.6" r="38.4"/>
		<path class="st22" d="M361.9,542.8c-1.6,2-2.7,4.4-3.3,6.9"/>
		<path class="st23" d="M369.8,546.5c-1.3,2.4-2.1,5-2.3,7.7"/>
		<path class="st24" d="M378.1,549.3c-0.9,2.3-1.4,4.8-1.5,7.3"/>
		<path class="st26" d="M398.5,485l4.3,8.8c0.9,1.7,2.5,3,4.5,3.2l9.7,1.4c4.9,0.7,6.8,6.7,3.3,10.1l-7,6.9c-1.4,1.4-2,3.3-1.7,5.2
			l1.7,9.7c0.8,4.8-4.3,8.5-8.6,6.2L396,532c-1.7-0.9-3.8-0.9-5.5,0l-8.7,4.6c-4.3,2.3-9.4-1.4-8.6-6.2l1.7-9.7
			c0.3-1.9-0.3-3.9-1.7-5.2l-7-6.9c-3.5-3.4-1.6-9.4,3.3-10.1l9.7-1.4c1.9-0.3,3.6-1.5,4.5-3.2l4.3-8.8
			C390.1,480.6,396.3,480.6,398.5,485z"/>
		<path class="st26" d="M608.6,485l4.3,8.8c0.9,1.7,2.5,3,4.5,3.2l9.7,1.4c4.9,0.7,6.8,6.7,3.3,10.1l-7,6.9c-1.4,1.4-2,3.3-1.7,5.2
			l1.7,9.7c0.8,4.8-4.3,8.5-8.6,6.2L606,532c-1.7-0.9-3.8-0.9-5.5,0l-8.7,4.6c-4.3,2.3-9.4-1.4-8.6-6.2l1.7-9.7
			c0.3-1.9-0.3-3.9-1.7-5.2l-7-6.9c-3.5-3.4-1.6-9.4,3.3-10.1l9.7-1.4c1.9-0.3,3.6-1.5,4.5-3.2l4.3-8.8
			C600.1,480.6,606.4,480.6,608.6,485z"/>
	</g>
	<g id="_x30_2:face_x2F_03">
		<path d="M655.8,487.9c0,0-17.9-19.3-59.3-14c-33.8,4.3-43.5,46.2-44.6,63.7c-1.2-11.4,6.5-69.8,48.1-75.1
			c44.7-5.7,63.9,15.1,63.9,15.1c1.8,34.3-8.2,53.6-22.9,63.8C651,531.1,657.1,514.3,655.8,487.9z"/>
		<path class="st14" d="M552.3,539.3c-0.2-0.3-0.3-0.9-0.4-1.7c1.1-17.5,10.9-59.5,44.6-63.7c41.4-5.3,59.3,14,59.3,14
			c1.4,26.4-4.8,43.2-14.7,53.5C608.8,563.9,554,542.4,552.3,539.3z"/>
		<circle class="st15" cx="603.9" cy="511.6" r="38.4"/>
		<path class="st22" d="M635.2,542.8c1.6,2,2.7,4.4,3.3,6.9"/>
		<path class="st23" d="M627.3,546.5c1.3,2.4,2.1,5,2.3,7.7"/>
		<path class="st24" d="M619,549.3c0.9,2.3,1.4,4.8,1.5,7.3"/>
		<path d="M491.8,547.2c0.7,7.3,6.3,14,13.7,15.3c1.3,0.2,2.8-0.4,3.1-1.7c0.3-1.2-0.4-2.8-1.7-3.1c-0.7-0.1-1.5-0.3-2.2-0.6
			c-0.2-0.1-0.3-0.1-0.5-0.2c-0.2-0.1-0.1,0,0.2,0.1c-0.1,0-0.2-0.1-0.2-0.1c-0.3-0.2-0.7-0.3-1-0.5s-0.7-0.4-1-0.6
			c-0.2-0.1-0.3-0.2-0.4-0.3c-0.4-0.3,0.4,0.3-0.1-0.1c-0.6-0.5-1.1-1-1.6-1.5c-0.2-0.3-0.5-0.5-0.7-0.8c-0.4-0.5,0.3,0.4-0.1-0.1
			c-0.1-0.1-0.2-0.3-0.3-0.4c-0.4-0.6-0.8-1.2-1.1-1.9c-0.1-0.2-0.2-0.3-0.2-0.5c0.1,0.6,0,0.1,0-0.1c-0.1-0.3-0.2-0.7-0.3-1
			c-0.1-0.4-0.2-0.8-0.3-1.1c0-0.2-0.1-0.4-0.1-0.5c0-0.2,0-0.1,0,0.2c0-0.1,0-0.2,0-0.4c-0.1-1.3-1.1-2.6-2.5-2.5
			C493.1,544.8,491.7,545.8,491.8,547.2L491.8,547.2z"/>
		<path d="M341.4,487.9c0,0,17.9-19.3,59.3-14c33.8,4.3,43.5,46.2,44.6,63.7c1.2-11.4-6.5-69.8-48.1-75.1
			c-44.7-5.7-63.9,15.1-63.9,15.1c-1.8,34.3,8.2,53.6,22.9,63.8C346.2,531.1,340,514.3,341.4,487.9z"/>
		<path class="st14" d="M444.9,539.3c0.2-0.3,0.3-0.9,0.4-1.7c-1.1-17.5-10.9-59.5-44.6-63.7c-41.4-5.3-59.3,14-59.3,14
			c-1.4,26.4,4.8,43.2,14.7,53.5C388.3,563.9,443.1,542.4,444.9,539.3z"/>
		<circle class="st26" cx="393.2" cy="511.6" r="38.4"/>
		<path class="st22" d="M361.9,542.8c-1.6,2-2.7,4.4-3.3,6.9"/>
		<path class="st23" d="M369.8,546.5c-1.3,2.4-2.1,5-2.3,7.7"/>
		<path class="st24" d="M378.1,549.3c-0.9,2.3-1.4,4.8-1.5,7.3"/>
		<path d="M386.6,521.9c0.6,3.2,2.2,7,5.5,7.3c2.9,0.3,5.1-2.5,6.3-5.2c2.9-6.7,4.7-31.3-4.5-34.5
			C383.6,485.9,385.6,516.8,386.6,521.9z"/>
		<path d="M596.7,521.9c0.6,3.2,2.2,7,5.5,7.3c2.9,0.3,5.1-2.5,6.3-5.2c2.9-6.7,4.7-31.3-4.5-34.5
			C593.7,485.9,595.7,516.8,596.7,521.9z"/>
		<path class="st14" d="M462.2,599.1c0,0-1.6,14.7,2.1,17s7.3-15.3,7.3-15.3L462.2,599.1z"/>
		<path class="st14" d="M544.2,598.5c0,0,3.7,14.3,7.9,15.2s1.6-16.9,1.6-16.9L544.2,598.5z"/>
		<path class="st25" d="M454.6,597.2c0,0,49.5,14.7,103.6-2.3"/>
	</g>
	<g id="_x30_2:face_x2F_04">
		<path d="M333.5,487.5c0,0,10,7.7,45.9,3.8c35.9-3.8,56,8.6,68.4,16.3c0,0-37.8-14.8-90.9-2.4L333.5,487.5z"/>
		<path d="M658.9,487.5c0,0-10,7.7-45.9,3.8c-35.9-3.8-56,8.6-68.4,16.3c0,0,37.8-14.8,90.9-2.4L658.9,487.5z"/>
		<path class="st7" d="M485.5,590.6c10.4-8.4,13.6,1.2,20,0.9c4.9-0.2,11.4-6.2,15.8-2.6c8.9,7.5,21.2,9.6,21.2,9.6
			s-4.2,29.9-36,29.9c-32.5,0-37.4-29.9-37.4-29.9S475.8,598.4,485.5,590.6z"/>
		<path d="M496.8,595.9c5.7-1.3,5.9,1.7,8.7,1.6c2.2-0.1,3.5-1.4,5.9-1.7c5.6-0.7,10.5,4.9,10.5,4.9s-1.9,10.4-15.9,10.4
			c-14.3,0-16.5-10.4-16.5-10.4S491.5,597.2,496.8,595.9z"/>
		<path d="M491.8,547.2c0.7,7.3,6.3,14,13.7,15.3c1.3,0.2,2.8-0.4,3.1-1.7c0.3-1.2-0.4-2.8-1.7-3.1c-0.7-0.1-1.5-0.3-2.2-0.6
			c-0.2-0.1-0.3-0.1-0.5-0.2c-0.2-0.1-0.1,0,0.2,0.1c-0.1,0-0.2-0.1-0.2-0.1c-0.3-0.2-0.7-0.3-1-0.5s-0.7-0.4-1-0.6
			c-0.2-0.1-0.3-0.2-0.4-0.3c-0.4-0.3,0.4,0.3-0.1-0.1c-0.6-0.5-1.1-1-1.6-1.5c-0.2-0.3-0.5-0.5-0.7-0.8c-0.4-0.5,0.3,0.4-0.1-0.1
			c-0.1-0.1-0.2-0.3-0.3-0.4c-0.4-0.6-0.8-1.2-1.1-1.9c-0.1-0.2-0.2-0.3-0.2-0.5c0.1,0.6,0,0.1,0-0.1c-0.1-0.3-0.2-0.7-0.3-1
			c-0.1-0.4-0.2-0.8-0.3-1.1c0-0.2-0.1-0.4-0.1-0.5c0-0.2,0-0.1,0,0.2c0-0.1,0-0.2,0-0.4c-0.1-1.3-1.1-2.6-2.5-2.5
			C493.1,544.8,491.7,545.8,491.8,547.2L491.8,547.2z"/>
		<path class="st25" d="M456.5,593.7c0,0,40.2,18.8,100,2.1"/>
	</g>
	<g id="_x30_2:face_x2F_05">
		<path d="M491.8,547.2c0.7,7.3,6.3,14,13.7,15.3c1.3,0.2,2.8-0.4,3.1-1.7c0.3-1.2-0.4-2.8-1.7-3.1c-0.7-0.1-1.5-0.3-2.2-0.6
			c-0.2-0.1-0.3-0.1-0.5-0.2c-0.2-0.1-0.1,0,0.2,0.1c-0.1,0-0.2-0.1-0.2-0.1c-0.3-0.2-0.7-0.3-1-0.5s-0.7-0.4-1-0.6
			c-0.2-0.1-0.3-0.2-0.4-0.3c-0.4-0.3,0.4,0.3-0.1-0.1c-0.6-0.5-1.1-1-1.6-1.5c-0.2-0.3-0.5-0.5-0.7-0.8c-0.4-0.5,0.3,0.4-0.1-0.1
			c-0.1-0.1-0.2-0.3-0.3-0.4c-0.4-0.6-0.8-1.2-1.1-1.9c-0.1-0.2-0.2-0.3-0.2-0.5c0.1,0.6,0,0.1,0-0.1c-0.1-0.3-0.2-0.7-0.3-1
			c-0.1-0.4-0.2-0.8-0.3-1.1c0-0.2-0.1-0.4-0.1-0.5c0-0.2,0-0.1,0,0.2c0-0.1,0-0.2,0-0.4c-0.1-1.3-1.1-2.6-2.5-2.5
			C493.1,544.8,491.7,545.8,491.8,547.2L491.8,547.2z"/>
		<path class="st27" d="M466.9,600.8c0,0,20.1-19.8,28.5-15.1c10.8,6.1,10.6,4.8,20.2-0.2c8.4-4.4,30,11.8,30,11.8
			s-12.3,30.4-39.9,29.5C478.1,625.8,471.9,606.6,466.9,600.8z"/>
		<path d="M477.9,601.2c0,0,21.7-6.5,24.2-4.2c4,3.6,7.6,2,10.4,0c2.6-1.9,23.7,3,23.7,3s-12.5,8.7-29.6,8.7
			C487.8,608.8,479.6,602.9,477.9,601.2z"/>
		<path class="st25" d="M461.9,598.9c0,0,43.8,11.6,87.2-2.5"/>
		<path d="M346.4,483.2c0,0,10.4-8.7,55.8-4.5c30.8,2.9,42.1,18,43.1,29.3c1.1-7.4-7.6-31.9-45.4-37.4c-50.1-7.3-66.4,8.1-66.4,8.1
			c6.6,15.2,16.9,25.2,30.3,31.8C354.7,503.7,350.2,497.8,346.4,483.2z"/>
		<path class="st14" d="M444.9,509.1c0.2-0.2,0.3-0.6,0.4-1.1c-1-11.4-11.5-26.3-43.1-29.3c-44.9-4.3-55.8,4.5-55.8,4.5
			c3.5,13.6,8.4,20.6,17.4,27.3C393.2,525,443.3,511.1,444.9,509.1z"/>
		<path class="st28" d="M367.7,510.3c-1.3,2-2.1,4.2-2.4,6.6"/>
		<path class="st29" d="M375.2,512.9c-0.9,2.3-1.4,4.8-1.4,7.2"/>
		<path class="st30" d="M383,514.7c-0.6,2.2-0.9,4.5-0.7,6.8"/>
		<path class="st27" d="M422.7,492c0-3.5-0.8-6.8-2.1-9.7c-5.2-1.6-11.2-2.9-18.3-3.5c-8.3-0.8-15.5-1.2-21.8-1.2c-3.1,4-5,9-5,14.5
			c0,13,10.6,23.6,23.6,23.6C412.2,515.6,422.7,505,422.7,492z"/>
		<path d="M651.6,483.2c0,0-10.4-8.7-55.8-4.5c-30.8,2.9-42.1,18-43.1,29.3c-1.1-7.4,7.6-31.9,45.4-37.4c50.1-7.3,66.4,8.1,66.4,8.1
			c-6.6,15.2-16.9,25.2-30.3,31.8C643.3,503.7,647.8,497.8,651.6,483.2z"/>
		<path class="st14" d="M553.1,509.1c-0.2-0.2-0.3-0.6-0.4-1.1c1-11.4,11.5-26.3,43.1-29.3c44.9-4.3,55.8,4.5,55.8,4.5
			c-3.5,13.6-8.4,20.6-17.4,27.3C604.8,525,554.7,511.1,553.1,509.1z"/>
		<path class="st28" d="M630.3,510.3c1.3,2,2.1,4.2,2.4,6.6"/>
		<path class="st29" d="M622.8,512.9c0.9,2.3,1.4,4.8,1.4,7.2"/>
		<path class="st30" d="M615,514.7c0.6,2.2,0.9,4.5,0.7,6.8"/>
		<path class="st27" d="M575.3,492c0-3.5,0.8-6.8,2.1-9.7c5.2-1.6,11.2-2.9,18.3-3.5c8.3-0.8,15.5-1.2,21.8-1.2c3.1,4,5,9,5,14.5
			c0,13-10.6,23.6-23.6,23.6C585.8,515.6,575.3,505,575.3,492z"/>
	</g>
	<g id="_x30_2:face_x2F_06">
		<path class="st7" d="M478.4,602.2c0,0,10.1-16.7,17.6-12.5c6.6,3.7,7.8,2.7,13.5-0.2c8.7-4.5,17.8,12.2,17.8,12.2
			s-1.9,24.5-26.1,23.1C483.1,623.7,480.8,610.4,478.4,602.2z"/>
		<path d="M491.8,547.2c0.7,7.3,6.3,14,13.7,15.3c1.3,0.2,2.8-0.4,3.1-1.7c0.3-1.2-0.4-2.8-1.7-3.1c-0.7-0.1-1.5-0.3-2.2-0.6
			c-0.2-0.1-0.3-0.1-0.5-0.2c-0.2-0.1-0.1,0,0.2,0.1c-0.1,0-0.2-0.1-0.2-0.1c-0.3-0.2-0.7-0.3-1-0.5s-0.7-0.4-1-0.6
			c-0.2-0.1-0.3-0.2-0.4-0.3c-0.4-0.3,0.4,0.3-0.1-0.1c-0.6-0.5-1.1-1-1.6-1.5c-0.2-0.3-0.5-0.5-0.7-0.8c-0.4-0.5,0.3,0.4-0.1-0.1
			c-0.1-0.1-0.2-0.3-0.3-0.4c-0.4-0.6-0.8-1.2-1.1-1.9c-0.1-0.2-0.2-0.3-0.2-0.5c0.1,0.6,0,0.1,0-0.1c-0.1-0.3-0.2-0.7-0.3-1
			c-0.1-0.4-0.2-0.8-0.3-1.1c0-0.2-0.1-0.4-0.1-0.5c0-0.2,0-0.1,0,0.2c0-0.1,0-0.2,0-0.4c-0.1-1.3-1.1-2.6-2.5-2.5
			C493.1,544.8,491.7,545.8,491.8,547.2L491.8,547.2z"/>
		<path class="st14" d="M444.9,539.3c0.2-0.3,0.3-0.9,0.4-1.7c-1.1-17.5-10.9-59.5-44.6-63.7c-41.4-5.3-59.3,14-59.3,14
			c-1.4,26.4,4.8,43.2,14.7,53.5C388.3,563.9,443.1,542.4,444.9,539.3z"/>
		<path d="M397.1,462.6c-44.7-5.7-63.9,15.1-63.9,15.1c-1.8,34.3,8.2,53.6,22.9,63.8c-9.9-10.4-16.1-27.2-14.7-53.5
			c0,0,10.8-11.7,35.2-14.4c-7.2,5.1-11.9,13.5-11.9,23.1c0,15.6,12.7,28.3,28.3,28.3s28.3-12.7,28.3-28.3c0-7-2.5-13.4-6.8-18.3
			c22.7,12.1,29.8,44.5,30.8,59.4C446.5,526.2,438.7,467.8,397.1,462.6z"/>
		<path class="st22" d="M361.9,542.8c-1.6,2-2.7,4.4-3.3,6.9"/>
		<path class="st23" d="M369.8,546.5c-1.3,2.4-2.1,5-2.3,7.7"/>
		<path class="st24" d="M378.1,549.3c-0.9,2.3-1.4,4.8-1.5,7.3"/>
		<path class="st14" d="M560.1,539.3c-0.2-0.3-0.3-0.9-0.4-1.7c1.1-17.5,10.9-59.5,44.6-63.7c41.4-5.3,59.3,14,59.3,14
			c1.4,26.4-4.8,43.2-14.7,53.5C616.7,563.9,561.9,542.4,560.1,539.3z"/>
		<path d="M607.8,462.6c44.7-5.7,63.9,15.1,63.9,15.1c1.8,34.3-8.2,53.6-22.9,63.8c9.9-10.4,16.1-27.2,14.7-53.5
			c0,0-10.8-11.7-35.2-14.4c7.2,5.1,11.9,13.5,11.9,23.1c0,15.6-12.7,28.3-28.3,28.3s-28.3-12.7-28.3-28.3c0-7,2.5-13.4,6.8-18.3
			c-22.7,12.1-29.8,44.5-30.8,59.4C558.5,526.2,566.2,467.8,607.8,462.6z"/>
		<path class="st22" d="M643,542.8c1.6,2,2.7,4.4,3.3,6.9"/>
		<path class="st23" d="M635.1,546.5c1.3,2.4,2.1,5,2.3,7.7"/>
		<path class="st24" d="M626.8,549.3c0.9,2.3,1.4,4.8,1.5,7.3"/>
		<path class="st14" d="M432.7,675.2L432.7,675.2c-1.3-1.3-1.3-3.4,0-4.7l67.9-67.9c1.3-1.3,3.4-1.3,4.7,0l0,0
			c1.3,1.3,1.3,3.4,0,4.7l-67.9,67.9C436.1,676.4,434,676.4,432.7,675.2z"/>
	</g>
	<g id="_x30_2:face_x2F_07">
		<path d="M491.8,547.2c0.7,7.3,6.3,14,13.7,15.3c1.3,0.2,2.8-0.4,3.1-1.7c0.3-1.2-0.4-2.8-1.7-3.1c-0.7-0.1-1.5-0.3-2.2-0.6
			c-0.2-0.1-0.3-0.1-0.5-0.2c-0.2-0.1-0.1,0,0.2,0.1c-0.1,0-0.2-0.1-0.2-0.1c-0.3-0.2-0.7-0.3-1-0.5s-0.7-0.4-1-0.6
			c-0.2-0.1-0.3-0.2-0.4-0.3c-0.4-0.3,0.4,0.3-0.1-0.1c-0.6-0.5-1.1-1-1.6-1.5c-0.2-0.3-0.5-0.5-0.7-0.8c-0.4-0.5,0.3,0.4-0.1-0.1
			c-0.1-0.1-0.2-0.3-0.3-0.4c-0.4-0.6-0.8-1.2-1.1-1.9c-0.1-0.2-0.2-0.3-0.2-0.5c0.1,0.6,0,0.1,0-0.1c-0.1-0.3-0.2-0.7-0.3-1
			c-0.1-0.4-0.2-0.8-0.3-1.1c0-0.2-0.1-0.4-0.1-0.5c0-0.2,0-0.1,0,0.2c0-0.1,0-0.2,0-0.4c-0.1-1.3-1.1-2.6-2.5-2.5
			C493.1,544.8,491.7,545.8,491.8,547.2L491.8,547.2z"/>
		<path class="st31" d="M477.5,603.6c0,0,15.8-28.7,67.3,9.4"/>
		<path class="st14" d="M552.3,539.3c-0.2-0.3-0.3-0.9-0.4-1.7c1.1-17.5,10.9-59.5,44.6-63.7c41.4-5.3,59.3,14,59.3,14
			c1.4,26.4-4.8,43.2-14.7,53.5C608.8,563.9,554,542.4,552.3,539.3z"/>
		<path d="M663.9,477.7c0,0-19.3-20.8-63.9-15.1c-41.6,5.3-49.4,63.6-48.1,75.1c1.1-17.5,10.9-59.5,44.6-63.7c2.1-0.3,4-0.4,6-0.6
			c-7.9,6.5-13,16.4-13,27.5c0,19.6,15.9,35.5,35.5,35.5c10.4,0,19.8-4.5,26.3-11.6c-2.6,6.9-6.1,12.4-10.2,16.7
			C655.7,531.2,665.7,511.9,663.9,477.7z"/>
		<path class="st14" d="M336.6,539.3c-0.2-0.3-0.3-0.9-0.4-1.7c1.1-17.5,10.9-59.5,44.6-63.7c41.4-5.3,59.3,14,59.3,14
			c1.4,26.4-4.8,43.2-14.7,53.5C393.2,563.9,338.4,542.4,336.6,539.3z"/>
		<path d="M448.3,477.7c0,0-19.3-20.8-63.9-15.1c-41.6,5.3-49.4,63.6-48.1,75.1c1.1-17.5,10.9-59.5,44.6-63.7c2.1-0.3,4-0.4,6-0.6
			c-7.9,6.5-13,16.4-13,27.5c0,19.6,15.9,35.5,35.5,35.5c10.4,0,19.8-4.5,26.3-11.6c-2.6,6.9-6.1,12.4-10.2,16.7
			C440.1,531.2,450,511.9,448.3,477.7z"/>
	</g>
	<g id="_x30_2:face_x2F_08">
		<path d="M491.8,547.2c0.7,7.3,6.3,14,13.7,15.3c1.3,0.2,2.8-0.4,3.1-1.7c0.3-1.2-0.4-2.8-1.7-3.1c-0.7-0.1-1.5-0.3-2.2-0.6
			c-0.2-0.1-0.3-0.1-0.5-0.2c-0.2-0.1-0.1,0,0.2,0.1c-0.1,0-0.2-0.1-0.2-0.1c-0.3-0.2-0.7-0.3-1-0.5s-0.7-0.4-1-0.6
			c-0.2-0.1-0.3-0.2-0.4-0.3c-0.4-0.3,0.4,0.3-0.1-0.1c-0.6-0.5-1.1-1-1.6-1.5c-0.2-0.3-0.5-0.5-0.7-0.8c-0.4-0.5,0.3,0.4-0.1-0.1
			c-0.1-0.1-0.2-0.3-0.3-0.4c-0.4-0.6-0.8-1.2-1.1-1.9c-0.1-0.2-0.2-0.3-0.2-0.5c0.1,0.6,0,0.1,0-0.1c-0.1-0.3-0.2-0.7-0.3-1
			c-0.1-0.4-0.2-0.8-0.3-1.1c0-0.2-0.1-0.4-0.1-0.5c0-0.2,0-0.1,0,0.2c0-0.1,0-0.2,0-0.4c-0.1-1.3-1.1-2.6-2.5-2.5
			C493.1,544.8,491.7,545.8,491.8,547.2L491.8,547.2z"/>
		<path class="st7" d="M466.9,600.8c0,0,18.5-7.2,28-5.8s16.4,2.4,25.6-0.2c9.2-2.6,25.1,2.5,25.1,2.5s-11.8,24.3-39.4,23.4
			C478.6,619.8,471.9,606.6,466.9,600.8z"/>
		<path class="st25" d="M454.6,597.2c0,0,49.5,14.7,103.6-2.3"/>
		<path d="M341.4,487.9c0,0,17.9-19.3,59.3-14c33.8,4.3,43.5,46.2,44.6,63.7c1.2-11.4-6.5-69.8-48.1-75.1
			c-44.7-5.7-63.9,15.1-63.9,15.1c-1.8,34.3,8.2,53.6,22.9,63.8C346.2,531.1,340,514.3,341.4,487.9z"/>
		<path class="st14" d="M364,514.1c0-18.8,11.8-34.8,28.4-40.9c-35.6-2-51.1,14.7-51.1,14.7c-1.4,26.4,4.8,43.2,14.7,53.5
			c8.4,5.9,18.4,8.7,28.5,9.7C372.3,543.4,364,529.7,364,514.1z"/>
		<path class="st7" d="M445.2,536.5c-1.5-18.1-11.5-58.4-44.5-62.6c-2.8-0.4-5.5-0.6-8.1-0.7c-16.6,6.2-28.4,22.2-28.4,40.9
			c0,15.6,8.2,29.3,20.6,37.1c23.9,2.3,48.9-5.9,57.3-10c1.7-0.8,2.7-1.5,2.9-1.8c0.2-0.3,0.3-0.9,0.4-1.7
			C445.2,537.3,445.2,536.9,445.2,536.5z"/>
		<path class="st22" d="M361.9,542.8c-1.6,2-2.7,4.4-3.3,6.9"/>
		<path class="st23" d="M369.8,546.5c-1.3,2.4-2.1,5-2.3,7.7"/>
		<path class="st24" d="M378.1,549.3c-0.9,2.3-1.4,4.8-1.5,7.3"/>
		<path d="M657.9,487.9c0,0-17.9-19.3-59.3-14c-33.8,4.3-43.5,46.2-44.6,63.7c-1.2-11.4,6.5-69.8,48.1-75.1
			c44.7-5.7,63.9,15.1,63.9,15.1c1.8,34.3-8.2,53.6-22.9,63.8C653.1,531.1,659.3,514.3,657.9,487.9z"/>
		<path class="st14" d="M635.3,514.1c0-18.8-11.8-34.8-28.4-40.9c35.6-2,51.1,14.7,51.1,14.7c1.4,26.4-4.8,43.2-14.7,53.5
			c-8.4,5.9-18.4,8.7-28.5,9.7C627,543.4,635.3,529.7,635.3,514.1z"/>
		<path class="st7" d="M554.1,536.5c1.5-18.1,11.5-58.4,44.5-62.6c2.8-0.4,5.5-0.6,8.1-0.7c16.6,6.2,28.4,22.2,28.4,40.9
			c0,15.6-8.2,29.3-20.6,37.1c-23.9,2.3-48.9-5.9-57.3-10c-1.7-0.8-2.7-1.5-2.9-1.8s-0.3-0.9-0.4-1.7
			C554.1,537.3,554.1,536.9,554.1,536.5z"/>
		<path class="st22" d="M637.3,542.8c1.6,2,2.7,4.4,3.3,6.9"/>
		<path class="st23" d="M629.5,546.5c1.3,2.4,2.1,5,2.3,7.7"/>
		<path class="st24" d="M621.2,549.3c0.9,2.3,1.4,4.8,1.5,7.3"/>
	</g>
</g>
<g id="_x30_1:ACC_x5F_hair">
	<g id="_x30_1:ACC_x5F_hair_x2F_01">
		<path class="st21" d="M278.8,351.5c0,0,198.6-103.3,440.7-2.2c0,0,47.3,92.2-15.1,78.5c-21.2-4.6-104.6-69.8-200.7-69.2
			c-107.1,0.6-161.7,77-217.7,70.6C238.1,423.8,278.8,351.5,278.8,351.5z"/>
		<path class="st32" d="M278.8,351.5c0,0-39.5-227.6,222.7-219.4s217.6,219.4,217.6,219.4S516.3,254.2,278.8,351.5z"/>
		<path class="st21" d="M276.7,103.6c-11.5,10.4,5.6,150.4,15.4,155.3s133-83,124.1-93.8c-21.8-26.4-57-42.3-86.9-57.4
			C314.2,100.1,291.5,90.1,276.7,103.6z"/>
		<path class="st21" d="M481.6,131.9c0,0-2.3-15.7,20.1-15.7c24.3,0,21.9,17.1,21.9,17.1L481.6,131.9z"/>
		<path class="st7" d="M283.4,135.9c6.2-2.1,81.2,55.8,80.9,64.5s-55.5,47.4-63.4,48.1c-7.9,0.7-13-10.9-7.3-15.8
			c5.7-4.8-11.1-9.6-4.4-18.9c6.7-9.4-12.3-13.7-5.2-22c7.2-8.2-8.5-19.7-1.7-24.1C289.2,163.4,274.4,139,283.4,135.9z"/>
		<path class="st21" d="M722.5,103.6C734,114,716.9,254,707.1,258.9c-9.8,4.9-133-83-124.1-93.8c21.8-26.4,57-42.3,86.9-57.4
			C685,100.1,707.7,90.1,722.5,103.6z"/>
		<path class="st7" d="M715.8,135.9c-6.2-2.1-81.2,55.8-80.9,64.5s55.5,47.4,63.4,48.1c7.9,0.7,13-10.9,7.3-15.8
			c-5.7-4.8,11.1-9.6,4.4-18.9c-6.7-9.4,12.3-13.7,5.2-22c-7.2-8.2,8.5-19.7,1.7-24.1C710,163.4,724.8,139,715.8,135.9z"/>
		<rect x="455.8" y="192.2" class="st21" width="89.4" height="10.1"/>
		<rect x="455.8" y="211.9" class="st21" width="89.4" height="10.1"/>
		<rect x="455.8" y="231.6" class="st21" width="89.4" height="10.1"/>
	</g>
	<g id="_x30_1:ACC_x5F_hair_x2F_02">
		<path class="st7" d="M312.7,395.3l-42.1-30.9c-3.4-2.5-4.1-7.2-1.6-10.6l1-1.3c2.5-3.4,7.2-4.1,10.6-1.6l42.1,30.9
			c3.4,2.5,4.1,7.2,1.6,10.6l-1,1.3C320.9,397.1,316.1,397.8,312.7,395.3z"/>
		<path class="st26" d="M322.5,370.2l5.7,5.2c1.1,1,2.7,1.5,4.2,1.1l7.5-1.7c3.8-0.9,6.9,3,5.3,6.5l-3.2,7c-0.6,1.4-0.6,3,0.2,4.3
			l3.9,6.6c2,3.3-0.7,7.4-4.5,7l-7.6-0.9c-1.5-0.2-3,0.4-4,1.6l-5.1,5.8c-2.5,2.9-7.3,1.6-8-2.1l-1.5-7.5c-0.3-1.5-1.3-2.8-2.7-3.4
			l-7.1-3c-3.5-1.5-3.8-6.4-0.4-8.3l6.7-3.8c1.3-0.7,2.2-2.1,2.3-3.6l0.7-7.7C315.1,369.4,319.7,367.6,322.5,370.2z"/>
		<path class="st7" d="M330.7,348.2l-42.1-30.9c-3.4-2.5-4.1-7.2-1.6-10.6l1-1.3c2.5-3.4,7.2-4.1,10.6-1.6l42.1,30.9
			c3.4,2.5,4.1,7.2,1.6,10.6l-1,1.3C338.8,349.9,334,350.6,330.7,348.2z"/>
		<path class="st26" d="M340.5,323l5.7,5.2c1.1,1,2.7,1.5,4.2,1.1l7.5-1.7c3.8-0.9,6.9,3,5.3,6.5l-3.2,7c-0.6,1.4-0.6,3,0.2,4.3
			l3.9,6.6c2,3.3-0.7,7.4-4.5,7l-7.6-0.9c-1.5-0.2-3,0.4-4,1.6l-5.1,5.8c-2.5,2.9-7.3,1.6-8-2.1l-1.5-7.5c-0.3-1.5-1.3-2.8-2.7-3.4
			l-7.1-3c-3.5-1.5-3.8-6.4-0.4-8.3l6.7-3.8c1.3-0.7,2.2-2.1,2.3-3.6l0.7-7.7C333,322.2,337.6,320.4,340.5,323z"/>
		<path class="st7" d="M676.9,395.3l42.1-30.9c3.4-2.5,4.1-7.2,1.6-10.6l-1-1.3c-2.5-3.4-7.2-4.1-10.6-1.6l-42.1,30.9
			c-3.4,2.5-4.1,7.2-1.6,10.6l1,1.3C668.8,397.1,673.5,397.8,676.9,395.3z"/>
		<path class="st26" d="M667.1,370.2l-5.7,5.2c-1.1,1-2.7,1.5-4.2,1.1l-7.5-1.7c-3.8-0.9-6.9,3-5.3,6.5l3.2,7c0.6,1.4,0.6,3-0.2,4.3
			l-3.9,6.6c-2,3.3,0.7,7.4,4.5,7l7.6-0.9c1.5-0.2,3,0.4,4,1.6l5.1,5.8c2.5,2.9,7.3,1.6,8-2.1l1.5-7.5c0.3-1.5,1.3-2.8,2.7-3.4
			l7.1-3c3.5-1.5,3.8-6.4,0.4-8.3l-6.7-3.8c-1.3-0.7-2.2-2.1-2.3-3.6l-0.7-7.7C674.6,369.4,670,367.6,667.1,370.2z"/>
		<path class="st7" d="M659,348.2l42.1-30.9c3.4-2.5,4.1-7.2,1.6-10.6l-1-1.3c-2.5-3.4-7.2-4.1-10.6-1.6L649,334.6
			c-3.4,2.5-4.1,7.2-1.6,10.6l1,1.3C650.8,349.9,655.6,350.6,659,348.2z"/>
		<path class="st26" d="M649.2,323l-5.7,5.2c-1.1,1-2.7,1.5-4.2,1.1l-7.5-1.7c-3.8-0.9-6.9,3-5.3,6.5l3.2,7c0.6,1.4,0.6,3-0.2,4.3
			l-3.9,6.6c-2,3.3,0.7,7.4,4.5,7l7.6-0.9c1.5-0.2,3,0.4,4,1.6l5.1,5.8c2.5,2.9,7.3,1.6,8-2.1l1.5-7.5c0.3-1.5,1.3-2.8,2.7-3.4
			l7.1-3c3.5-1.5,3.8-6.4,0.4-8.3l-6.7-3.8c-1.3-0.7-2.2-2.1-2.3-3.6L657,326C656.6,322.2,652,320.4,649.2,323z"/>
	</g>
	<g id="_x30_1:ACC_x5F_hair_x2F_03">
		<path class="st26" d="M423.6,376.3l-88.3,18.6c-6.8,1.4-11.4,6.5-10.4,11.2l0.4,2.1c1,4.8,7.3,7.5,14.1,6.1l88.3-18.6
			c6.8-1.4,11.4-6.5,10.4-11.2l-0.4-2.1C436.7,377.6,430.4,374.9,423.6,376.3z"/>
		<path class="st15" d="M424.5,406.5l-88.3,18.6c-6.8,1.4-11.4,6.5-10.4,11.2l0.4,2.1c1,4.8,7.3,7.5,14.1,6.1l88.3-18.6
			c6.8-1.4,11.4-6.5,10.4-11.2l-0.4-2.1C437.5,407.9,431.3,405.1,424.5,406.5z"/>
	</g>
	<g id="_x30_1:ACC_x5F_hair_x2F_04">
		<path class="st26" d="M515.3,353.5c1.6,10.1,86.4,19.6,94.9,11.5c4.3-4.1,2.1-30.3-7.5-34.9C593.1,325.5,513.9,344.8,515.3,353.5z
			 M587.6,337.6c5.8,2.8,7.2,18.7,4.5,21.2c-5.2,4.9-64.8,0-65.8-6.1C525.5,347.4,581.7,334.8,587.6,337.6z"/>
		<path class="st14" d="M581.2,304.9c5.3-2.2,7.4,18.2,11.4,19c4.1,0.9,24.6,2.8,27.7,1.2s6.6-19.5,8.7-19.5
			c6.5-0.1,27.7,58.1-3.4,62.6s-51.2-1.6-52.4-24.5C572.6,328.2,577.4,306.5,581.2,304.9z"/>
		<ellipse cx="586.4" cy="341.9" rx="3.4" ry="7.1"/>
		<ellipse cx="628.4" cy="341.9" rx="3.4" ry="7.1"/>
	</g>
	<g id="_x30_1:ACC_x5F_hair_x2F_05">
		<rect x="710.3" y="402.3" class="st33" width="8" height="35.8"/>
		<path class="st17" d="M738,585.8l12.1,1.7c6.8,1,13.2-3.8,14.2-10.6l13.5-93.9c1-6.8-3.8-13.2-10.6-14.2l-12.1-1.7
			c-6.8-1-13.2,3.8-14.2,10.6l-13.5,93.9C726.4,578.5,731.1,584.8,738,585.8z"/>
		<path class="st33" d="M718.9,598.5l9.1,1.3c7.7,1.1,14.8-4.2,15.9-11.9l17.4-121.2c1.1-7.7-4.2-14.8-11.9-15.9l-9.1-1.3
			c-7.7-1.1-14.8,4.2-15.9,11.9L707,582.6C705.9,590.3,711.2,597.4,718.9,598.5z"/>
		<path class="st7" d="M690.3,606.8l12.9,1.9c9.3,1.3,17.9-5.1,19.2-14.4l20-139.6c1.3-9.3-5.1-17.9-14.4-19.2l-12.9-1.9
			c-9.3-1.3-17.9,5.1-19.2,14.4l-20,139.6C674.6,596.9,681,605.5,690.3,606.8z"/>
		<path class="st17" d="M279.7,408.8h22c0,0,10.9-175.2,194.5-175.2s209.3,177,209.3,177h21.2c0,0,9.1-197.8-231.2-197.8
			S279.7,408.8,279.7,408.8z"/>
		<rect x="287.5" y="402.4" class="st33" width="8" height="35.8"/>
		<path class="st17" d="M267.8,585.8l-12.1,1.7c-6.8,1-13.2-3.8-14.2-10.6L228.1,483c-1-6.8,3.8-13.2,10.6-14.2l12.1-1.7
			c6.8-1,13.2,3.8,14.2,10.6l13.5,93.9C279.4,578.5,274.7,584.8,267.8,585.8z"/>
		<path class="st33" d="M286.9,598.5l-9.1,1.3c-7.7,1.1-14.8-4.2-15.9-11.9l-17.4-121.2c-1.1-7.7,4.2-14.8,11.9-15.9l9.1-1.3
			c7.7-1.1,14.8,4.2,15.9,11.9l17.4,121.2C299.9,590.3,294.6,597.4,286.9,598.5z"/>
		<path class="st7" d="M315.5,606.8l-12.9,1.9c-9.3,1.3-17.9-5.1-19.2-14.4l-20-139.6c-1.3-9.3,5.1-17.9,14.4-19.2l12.9-1.9
			c9.3-1.3,17.9,5.1,19.2,14.4l20,139.6C331.2,596.9,324.8,605.5,315.5,606.8z"/>
	</g>
	<g id="_x30_1:ACC_x5F_hair_x2F_06">
		<path class="st16" d="M215.8,521.2c0,0,69.1-48.2,75.5-89.5s-7.8-114.6,86-100c93.8,14.7,138.1,31.3,188.1,9.2
			c117.2-51.7,156.7,136.6,182.3,143.5c0,0,15,12.3,19.2-29.7c5.5-55.6-54-163.5-60.8-188.3c-6.9-24.8-33.6-118.1-113.2-131
			s-237.4-22-264,32.1S293,335.3,269.7,375.7S177.6,537.3,215.8,521.2z"/>
		<path class="st7" d="M274,367.1c0,0,27.7-67.5,115.1-78.5s208.4-8,266.1,10.1s70.5,27,85.5,47l-27.4-58.3
			c0,0-39.8-54.7-206.9-47.4c-148.9,6.5-180.3,24.6-212.8,57.7L274,367.1z"/>
		<path class="st7" d="M391,662.8l21.5,16.2c0,0,37.1,49.5,64.6,58.2c0,0,102.6-36.9,124.6-56.4l43.6-40.4l-3,9.9
			c0,0-52.4,92-167.3,96.7C475,747,404.1,715.4,391,662.8z"/>
		<path class="st7" d="M475.6,741.5c0,0-1.6,9-17.1,26c-15.6,17-42.1,28-43.3,13.2c-1.2-14.8-22.1,1.2-10.8-22.1
			s68.2-19.1,68.2-19.1C474.4,740.1,475.1,739.7,475.6,741.5z"/>
		<path class="st7" d="M474.4,741.5c0,0,1.6,9,17.1,26c15.6,17,42.1,28,43.3,13.2s22.1,1.2,10.8-22.1s-68.2-19.1-68.2-19.1
			C475.6,740.1,474.9,739.7,474.4,741.5z"/>
		<path class="st7" d="M470.9,742.9c0,0-12.8,107.8-25.7,127c-12.8,19.2,4.1,23.4,12.8,17.2s11.5,24.8,12.8-11.7
			s7.9-134.8,7.9-134.8L470.9,742.9z"/>
		<path class="st7" d="M478,740.6c0,0,2.4,145.1,18.3,153.6c16,8.5,6.4-6.2,19.6-10.6C529.1,879.2,477.5,746.3,478,740.6z"/>
	</g>
	<g id="_x30_1:ACC_x5F_hair_x2F_07">
		<path class="st7" d="M340,607.1c-4.4-7.3-9.8-8.8-13.6-8.8c0,0,0,0-0.1,0c-7.6,0-15.3,6.1-21.5,12.7c-0.5-1-1.2-1.9-2.1-2.5
			c2.6-0.9,4.5-3.5,4.5-6.4c0-2.2-1-4.1-2.6-5.4c5.1-1.1,8.9-5.7,8.9-11.1c0-6.3-5.1-11.4-11.4-11.4s-11.4,5.1-11.4,11.4
			c0,4.6,2.7,8.6,6.7,10.3c-2.3,1.1-3.8,3.4-3.8,6.1c0,2.3,1.1,4.3,2.8,5.5c-1.3,0.5-2.3,1.3-3.1,2.3c-4.1-7.6-9.8-15-17-16.6
			c-4-0.9-10.1-0.4-16.7,7c-9.6,10.8-7,28.5,7.7,52.4c10.3,16.8,22.8,30.7,23.3,31.3c0.8,0.9,1.9,1.4,3.1,1.4c0.1,0,0.1,0,0.2,0
			c1.1,0,2.2-0.4,3.1-1.2c0.6-0.5,13.9-13.3,26-28.8C340.5,632.9,346.1,617.2,340,607.1z M294.2,674.5c-4.3-5.1-12.5-15.2-19.4-26.5
			c-8.5-13.9-16.8-32.5-8.5-41.9c3.3-3.7,5.6-4.3,7-4.3c0.5,0,0.9,0.1,1.1,0.1c7.1,1.6,14.7,17.7,17.8,28.6c0.5,1.7,1.9,2.9,3.7,3.2
			c1.7,0.2,3.4-0.6,4.4-2.1c4.9-8,17.7-24.4,26.1-24.4l0,0c1.5,0,3.7,0.5,6.1,4.5C339,622.6,315,653.8,294.2,674.5z"/>
		<path class="st7" d="M675.7,655.3c12.1,15.5,25.5,28.3,26,28.8c0.8,0.8,1.9,1.2,3.1,1.2c0.1,0,0.1,0,0.2,0c1.2,0,2.3-0.6,3.1-1.4
			c0.5-0.6,13-14.4,23.3-31.3c14.6-24,17.2-41.6,7.7-52.4c-6.5-7.4-12.7-7.9-16.7-7c-7.2,1.6-12.9,9-17,16.6c-0.8-1-1.9-1.9-3.1-2.3
			c1.7-1.2,2.8-3.2,2.8-5.5c0-2.7-1.6-5-3.8-6.1c3.9-1.8,6.7-5.7,6.7-10.3c0-6.3-5.1-11.4-11.4-11.4c-6.3,0-11.4,5.1-11.4,11.4
			c0,5.4,3.8,10,8.9,11.1c-1.6,1.2-2.7,3.2-2.7,5.4c0,3,1.9,5.5,4.5,6.4c-0.9,0.7-1.6,1.5-2.1,2.5c-6.1-6.6-13.9-12.7-21.5-12.7
			c0,0,0,0-0.1,0c-3.8,0-9.3,1.6-13.6,8.8C652.7,617.2,658.2,632.9,675.7,655.3z M666.3,611.7c2.4-4,4.6-4.5,6.1-4.5l0,0
			c8.4,0,21.2,16.5,26.1,24.4c0.9,1.5,2.6,2.3,4.4,2.1c1.7-0.2,3.2-1.5,3.7-3.2c3.2-10.9,10.8-27,17.8-28.6c0.2-0.1,0.6-0.1,1.1-0.1
			c1.4,0,3.7,0.6,7,4.3c8.3,9.4,0,28-8.5,41.9c-6.9,11.3-15.1,21.5-19.4,26.5C683.8,653.8,659.7,622.6,666.3,611.7z"/>
	</g>
	<g id="_x30_1:ACC_x5F_hair_x2F_08">
		<path class="st7" d="M292.5,339.1c0,0-42.4-83.3-81.9-98.8c0,0-24,101.6-19.8,115.8c4.2,14.1,67.8,39.5,67.8,39.5
			s-77.6,16.9-80.5,46.6c-2.8,29.6,28.2,88.9,28.2,88.9l70.6-83.3L292.5,339.1z"/>
		<path class="st7" d="M696.6,334.2c0,0,35.2-86.6,73.2-105.4c0,0,32.5,99.3,29.5,113.7c-3,14.4-64.2,45.1-64.2,45.1
			s78.8,10.3,84.1,39.6c5.3,29.3-20.6,91-20.6,91l-77.4-77L696.6,334.2z"/>
	</g>
	<g id="_x30_1:ACC_x5F_hair_x2F_09_00000034793652577159820170000015901164074363632817_">
		<path id="_x30_1:ACC_x5F_hair_x2F_09" class="st19" d="M438.8,722.3c17.2,5.3,58.7,13.7,125.8,2.4c3.7-0.6,6.7,3,5.5,6.5
			c-1.8,5.2-3.7,12.5-3.8,20.3c0,2.4-1.7,4.4-4.1,4.9c-18,3.2-89.2,13.9-128.3-6.8c-2-1.1-3-3.3-2.4-5.5c0.9-3.7,2-9.9,1-16.3
			C431.9,724.1,435.3,721.2,438.8,722.3z"/>
	</g>
	<g id="_x30_1:ACC_x5F_hair_x2F_10">
		<path class="st14" d="M706.5,496.5c-9.7-10-45.8-15.4-87.3-5.2C579.7,501,544,520,529.3,534c-9.5-8-19.7-12-30.4-11.8
			c-13.1,0.2-23.7,6.6-29.8,11.4c-14.9-13.9-50.4-32.6-89.5-42.3c-41.5-10.2-77.6-4.8-87.3,5.2c-11.6,12-7.5,74.7,93.5,74.2
			c77.3-0.4,90.2-18,90.7-25.2c0.1-1-0.2-2.1-0.7-3.3c4.8-3.8,13.3-8.9,23.2-9.1c8.1-0.1,15.9,3.1,23.5,9.6c-0.4,1-0.5,1.9-0.5,2.7
			c0.5,7.2,13.5,24.8,90.7,25.2C714.1,571.2,718.2,508.5,706.5,496.5z"/>
		<path d="M324.4,507.8c-8.7,9-5.6,55.8,69.9,55.4c57.8-0.3,67.4-13.4,67.8-18.8c0.7-9.2-33.4-30.9-72.5-40.5
			C358.6,496.3,331.6,500.4,324.4,507.8z"/>
		<path d="M674.6,507.8c8.7,9,5.6,55.8-69.9,55.4c-57.8-0.3-67.4-13.4-67.8-18.8c-0.7-9.2,33.4-30.9,72.5-40.5
			C640.4,496.3,667.4,500.4,674.6,507.8z"/>
	</g>
	<g id="_x30_1:ACC_x5F_hair_x2F_11_00000104672625391589956480000003557643739424187324_">
		<path id="_x30_1:ACC_x5F_hair_x2F_11" class="st14" d="M503.2,256.5c99.4,0,181,76,189.8,173.1c0.5-5.8,0.8-11.6,0.8-17.5
			c0-105.3-85.3-190.6-190.6-190.6s-190.6,85.3-190.6,190.6c0,5.9,0.3,11.7,0.8,17.5C322.3,332.6,403.9,256.5,503.2,256.5z"/>
	</g>
	<g id="_x30_1:ACC_x5F_hair_x2F_12">
		<path class="st14" d="M746.9,51.1c-45.6-46.9-118.1,6.1-153,193.4c-27-14.6-57.8-22.9-90.6-22.9c-32.6,0-63.4,8.2-90.2,22.7
			c-35-187.2-107.5-240.1-153-193.2C219.4,93.1,333,246.3,362.2,284c-30.7,33.8-49.5,78.8-49.5,128.1c0,5.9,0.3,11.7,0.8,17.5
			c8.8-97.1,90.4-173.1,189.8-173.1s181,76,189.8,173.1c0.5-5.8,0.8-11.6,0.8-17.5c0-49.2-18.6-94-49.2-127.8
			C673.4,247,787.7,93.2,746.9,51.1z"/>
		<path class="st7" d="M377.6,273.2c0,0-92.8-115.6-65-144.2s72.5,5.1,92.8,123.2L377.6,273.2z"/>
		<path class="st7" d="M629.3,273.2c0,0,92.8-115.6,65-144.2s-72.5,5.1-92.8,123.2L629.3,273.2z"/>
	</g>
	<g id="_x30_1:ACC_x5F_hair_x2F_13">
		<path class="st14" d="M661.6,306c4.5-1.6,8-5.9,8-11.4l-1.4-92.6c-0.1-8.7-9.2-14.3-17.1-10.6l-83.7,39.8
			c-0.6,0.3-1.1,0.6-1.6,0.9c-19.6-6.8-40.6-10.5-62.6-10.5c-20.4,0-40,3.2-58.5,9.2L362,191.4c-7.9-3.7-16.9,1.9-17.1,10.6
			l-1.4,92.6c-0.1,3.4,1.3,6.4,3.4,8.5c-21.6,30.9-34.3,68.5-34.3,109.1c0,5.9,0.3,11.7,0.8,17.5c8.8-97.1,90.4-173.1,189.8-173.1
			s181,76,189.8,173.1c0.5-5.8,0.8-11.6,0.8-17.5C693.8,372.9,681.9,336.4,661.6,306z"/>
		<path class="st7" d="M649.1,272.1l-0.7-48.6c-0.1-4.6-4.8-7.5-9-5.6l-43.9,20.9c-4.5,2.1-4.8,8.4-0.6,11l44.6,27.7
			C643.7,280.1,649.2,277.1,649.1,272.1z"/>
		<path class="st7" d="M364,272.1l0.7-48.6c0.1-4.6,4.8-7.5,9-5.6l43.9,20.9c4.5,2.1,4.8,8.4,0.6,11l-44.6,27.7
			C369.3,280.1,363.9,277.1,364,272.1z"/>
	</g>
</g>
</svg>
