<?xml version="1.0" encoding="UTF-8"?>
<svg id="Avatar" xmlns="http://www.w3.org/2000/svg" width="1000" height="1000" viewBox="0 0 1000 1000">
  <g id="_03:Body_02" data-name="03:Body/02">
    <path d="M422.5,586s2.2,16,3.8,27.9c1.5,11.9,8.8,24.8,7.9,26.5s-8.1,8.7-2.6,11.6c5.5,2.8,18.2,1.1,22.8-.3s15.9-2.1,18.1-7.2-2.1-26.7-2-32.7,2.3-25.1,.7-28.7c-1.7-3.6-16.6-1.8-23.6-1.5-7.1,.1-24.1,5-25.1,4.4h0Z" fill="#f2dfaf"/>
    <path d="M394.7,488.2s-13.5,8.5-18.4,12.3-12.5,11.7-13.3,14.5-.8,6.1-.1,7.1,5.4,1.9,5.4,1.9c0,0-1.9,5.2,0,7.2s6,2.1,6,2.1c0,0-.1,3.4,2,5.3,2.1,2,4.9,1,9-1.1,4.1-2.2,8-4.9,12.6-7.7,4.6-2.7,12.9-5.7,11-8.2s-7.8-14.3-9.1-17.1c-1.4-2.9-5.5-16.5-5.1-16.3h0Z" fill="#f3e0ae"/>
    <path d="M574,492.3s11.3,8.4,16.2,12.2,11.7,10.7,12.5,13.5,4.2,6.8,3.5,7.8-4.9,2.3-4.9,2.3c0,0,.2,4.9-1.7,6.9s-6.4,1.1-6.4,1.1c0,0,0,2.3-2,4.3-2.1,2-4.4,1.1-8.5-1-4.1-2.2-7.2-4.4-11.8-7.2s-17.8-11.4-16-13.9c1.9-2.5,6.2-9.6,7.5-12.4,1.3-2.8,12-13.8,11.6-13.6h0Z" fill="#f3e0ae"/>
    <path d="M418.7,477.2c-8.7,2.7-20.6,8.4-23.7,10.6,.9,5,3.8,14.5,5.7,19.3,1.9,4.9,6.1,11.1,9.1,14.3,3.6-1.9,6.8-3.8,10.8-6,1.5,5.2,1.3,8.9,.9,12.5s0,8.8-.8,15c5.4-.9,13.6-2,20.2-4.4-.1-11.4-3.6-25.1-7.4-34.3-3.9-9.2-8.1-16.9-14.8-27h0Z" fill="#d8d8d8" stroke="#000"/>
    <path d="M551.5,478.6c4.4,1.1,9.2,3.3,13.3,5.6,4.2,2.2,6.2,5,9,8.3-3,4.2-8.2,9.3-10.7,12.6-2.5,3.3-6,10.4-8.9,13.4-2.8-1.1-6.4-6.5-11.2-5.9-1.8,4.1,2.6,20.5,2.6,28.6-4.1-.2-13.1-2.3-17-3.6,.3-9.8,1.8-22.8,5.2-31.8s11.3-20.4,17.7-27.2h0Z" fill="#d8d8d8"/>
    <path d="M486,475.6c-17.4-.4-52-3-52-3,0,0,7.3,10.1,12.6,21.2s10.9,30.1,11.3,40.4c8.5-2.4,13.4-2.6,23.8-2.8,10.6-.1,18.6,1.1,26.6,1.7-.6-11.2,2.2-23.6,7.7-33.7,4.4-9.4,6.7-10,16.1-25.5-17,.7-31,2-46.1,1.7h0Z" fill="#d8d8d8"/>
    <path d="M507.5,580.6c9.1,8.6,17.3,11.9,28.3,12,11.1,0,20.5-3.7,23.3-6.1,2.8-2.5,3.5-6.9,6.2-11.1,2.6,1.8,10.3,4.9,15.4,3,4.1-1.8-4.8-9.9-8.8-14.9s-10.8-12.5-15-15.8c-4,1.5-6.2,3.4-12.8,8.4-14.1,9.3-24.9,17.7-36.6,24.5h0Z" fill="#f3e0ae"/>
    <path d="M419.8,542.7c5.1-.2,16.5-3,20-3.6,.1-10.3-2-22.6-5.3-31s-16.5-30.8-16.5-30.8l15.2-4.6s10.1,12.3,15.4,23.4,9,29.2,9.5,39.5c8.5-2.4,15.4-3.2,25.7-3.3,10.6-.1,16.6,1.9,24.6,2.5-.6-11.2,.9-23.4,6.4-33.5,4.4-9.4,10.1-19.1,18.7-26.7,5.2,2.3,10.4,1.7,17.1,4.8-5.7,8.2-12.6,17.1-16.4,25.7-3.8,8.6-4.6,20.4-6.9,31.8,6.4,2.1,12.5,5.5,16.9,5.6,.5,4.8,.2,9.4-.4,13.7-5.6,4.5-17.4,12.2-21.1,14.6-3.7,2.4-10,7.1-15.6,10.8-3.2-3.4-9.3-12.6-15.3-13.4s-11,1.1-14.3,2.9-3.9,5.8-5.6,10.8c-9.1,0-21.1-.8-25.7-.4s-20.1,4.1-25.6,4.2c-1.6-7.6-3-29-.8-43h0Z" fill="#757ccc"/>
    <path d="M420.7,542.4c5.1-.2,16.5-3,20-3.6,.1-10.3-2-22.6-5.3-31-3.3-8.4-16.4-30.9-16.4-30.9l15.2-4.6s10.1,12.3,15.4,23.4,9,29.2,9.5,39.5c8.5-2.4,15.4-3.2,25.7-3.3,10.6-.1,16.6,1.9,24.6,2.5-.6-11.2,.9-23.4,6.4-33.5,4.4-9.4,10.1-19.1,18.7-26.7,5.2,2.3,10.4,1.7,17.1,4.8-5.7,8.2-12.6,17.1-16.4,25.7-3.8,8.6-4.6,20.4-6.9,31.8,6.4,2.1,12.5,5.5,16.9,5.6,.5,4.8,.2,9.4-.4,13.7-5.6,4.5-17.4,12.2-21.1,14.6s-10,7.1-15.6,10.8c-3.1-3.4-9.3-12.6-15.3-13.4-6-.8-11,1.1-14.3,2.9-3.4,1.7-3.9,5.8-5.6,10.8-9.1,0-21.1-.8-25.7-.4s-20.1,4.1-25.6,4.2c-1.7-7.6-3-29-.9-42.9h0Z" fill="none" stroke="#000" stroke-width="4"/>
    <path d="M511,534.6l17.3,2.3m-86.9,1.6s17.3-3,18-3.5" fill="#d8d8d8" stroke="#000" stroke-width="4"/>
    <path d="M422.4,583.8s2.2,16,3.8,27.9c1.5,11.9,8.8,24.8,7.9,26.5s-8.1,8.7-2.6,11.6c5.5,2.8,18.2,1.1,22.8-.3s15.9-2.1,18.1-7.2-2.1-26.7-2-32.7,2.3-25.1,.7-28.7" fill="none" stroke="#000" stroke-width="4"/>
    <path d="M507.6,580.9c9.1,8.6,17.2,11.9,28.3,12,11.1,0,20.5-3.7,23.3-6.1s3.5-6.9,6.2-11.1c2.6,1.8,10.3,4.9,15.4,3,4.1-1.8-4.8-9.9-8.8-14.9s-10.8-12.5-15-15.8c-4,1.5-6.2,3.4-12.8,8.4" fill="none" stroke="#000" stroke-width="4"/>
    <path d="M394.3,488.3s-13.5,8.5-18.4,12.3-12.5,11.7-13.3,14.5-.8,6.1-.1,7.1,5.4,1.9,5.4,1.9c0,0-1.9,5.2,0,7.2,1.8,2,6,2.1,6,2.1,0,0-.1,3.4,2,5.3,2.1,2,4.9,1,9-1.1,4.1-2.2,8-4.9,12.6-7.7,4.6-2.7,11-8.2,11-8.2m166.1-28.1s10,7.3,15.3,12.4,9.2,8.8,11.6,11.4,6,8.8,5.3,9.8-4.9,2.3-4.9,2.3c0,0,.2,4.9-1.7,6.9-1.8,2-6.4,1.1-6.4,1.1,0,0,0,2.3-2,4.3-2.1,2-4.4,1.1-8.5-1s-9.7-6.4-14-9.8-14.2-11.4-14.2-11.4m-3.8-40.5c4.4,1.1,9.2,3.3,13.3,5.6,4.2,2.2,6.7,4.2,9.5,7.5-2.3,4-8.6,10.1-11.1,13.4s-6,10.4-8.9,13.4c-2.8-1.1-6.4-6.5-11.2-5.9-1.8,4.1,2.6,20.5,2.6,28.6m-127-64.1c-8.7,2.7-20.6,8.4-23.7,10.6,.9,5,3.8,14.5,5.7,19.3,1.9,4.9,6.1,11.1,9.1,14.3,3.6-1.9,6.8-3.8,10.8-6,1.5,5.2,1.3,8.9,.9,12.5s0,8.8-.8,15" fill="none" stroke="#000" stroke-width="4"/>
  </g>
  <g id="_01:Hair_03_" data-name="01:Hair/03_">
    <path d="M369.11,407.06c-5.14-.47-6.17-.7-13.02,3.72-6.85,4.42-5.6,17.68-5.6,17.68,0,0-8.11,2.09-11.77,8.03-3.77,5.93-.69,14.89-.69,14.89,0,0-8.23,4.42-8.23,11.75,.11,7.33,6.97,13.84,20.34,11.28s6.28-20.13,6.28-20.13c0,0,8.8,1.28,12.57-3.26s-.46-13.26-.46-13.26c0,0,10.85,.47,14.74-4.77-4.34-8.73-10.05-16.4-14.17-25.94Z" fill="#715147"/>
    <path d="M368.77,406.83c-5.14-.47-6.17-.7-13.02,3.72s-5.6,17.68-5.6,17.68c0,0-8.11,2.09-11.77,8.03-3.77,5.93-.69,14.89-.69,14.89,0,0-8.23,4.42-8.23,11.75,.11,7.33,6.97,13.84,20.34,11.28,13.37-2.56,6.28-20.13,6.28-20.13,0,0,8.8,1.28,12.57-3.26s-.46-13.26-.46-13.26c0,0,10.85,.47,14.74-4.77" fill="none" stroke="#000" stroke-width="3.47"/>
    <path d="M598.98,408.92c5.14-.47,6.17-.81,13.02,3.49s5.83,17.57,5.83,17.57c0,0,8.11,1.98,12,7.79,3.77,5.82,.91,14.89,.91,14.89,0,0,8.34,4.3,8.34,11.63s-6.74,13.96-20.22,11.63c-13.48-2.44-6.63-20.01-6.63-20.01,0,0-8.68,1.4-12.57-3.02-3.88-4.42,.23-13.26,.23-13.26,0,0-10.85,.7-14.85-4.54,4.34-8.84,9.94-16.52,13.94-26.18Z" fill="#715147"/>
    <path d="M599.32,408.69c5.14-.47,6.17-.81,13.02,3.49s5.83,17.57,5.83,17.57c0,0,8.11,1.98,12,7.79,3.77,5.82,.91,14.89,.91,14.89,0,0,8.34,4.3,8.34,11.63s-6.74,13.96-20.22,11.63c-13.48-2.44-6.63-20.01-6.63-20.01,0,0-8.68,1.4-12.57-3.02-3.88-4.42,.23-13.26,.23-13.26,0,0-10.85,.7-14.85-4.54" fill="none" stroke="#000" stroke-width="3.47"/>
  </g>
  <path id="Head_Fill" data-name="Head Fill" d="M338.1,376.5c-.8-18.1,13.9-29,27.9-26.8,0,0,5.9-25,20-43.9,16.3-21.8,50.5-37.5,93.8-37.3,43.4,.1,81,10.2,97.9,35.1,11.7,17.2,19.9,48.1,19.9,48.1,13.3-.2,28.7,9.1,27.9,27.2-.8,17.5-15.9,23.9-28.2,24.8-4.1,22.8-15.3,35.7-32.8,51-22,19.1-47.4,24.1-77.3,24.1-29.9,.1-64.2-8.4-86.9-24.5-17-12-28.5-30.9-33-53-12.5-.5-28.4-6.8-29.2-24.8h0Z" fill="#f1deb0"/>
  <g id="_02:Face_19:Cry_" data-name="02:Face/19:Cry_">
    <path d="M407.96,372.52s-4.22,3.97-2.6,8.97c1.62,5.1,5.46,15.42,5.09,24.02-.37,8.59-6.12,11.18-5.47,19.43,.65,8.15,6.81,14.5,6.43,19.68s-4.74,15.26-4.74,15.26c0,0,5.92,5.23,14.02,7.38,8.19,2.15,18.21,3.91,18.21,3.91,0,0,8.25-11.66,7.36-19.03-.9-7.36-3.91-16.34-3.8-23.74,.11-7.41,4.63-16.87,3.9-23.52s-4.97-17-5.46-24.54c-.39-7.53-1.36-22.61-1.36-22.61l-31.56,14.79Zm148.3,.44s1.14,8.38,.46,15.35c-.68,6.97-4.76,11.86-5.33,20.44-.57,8.58,4.39,14.86,2.74,22.99-1.54,8.03-3.47,12.03-3.66,17.33-.19,5.2-.15,13.61-.15,13.61,0,0-9.81,5.47-18.47,8.1s-15.04,3.88-15.04,3.88c0,0-5.7-16.54-4.01-23.66,1.7-7.22,2.62-16.78,3.43-24.15,.81-7.37-2.06-15.44-.6-21.97,1.46-6.53,3.62-16.73,4.83-24.17s2.76-19.28,2.76-19.28l33.02,11.53Z" fill="#b3d8d6"/>
    <path d="M438.38,471.33s8.43-13.06,7.53-20.42c-.9-7.36-3.91-16.34-3.8-23.74,0-7.41,4.63-16.87,3.9-23.52-.74-6.65-4.97-17-5.46-24.54-.39-7.53,.38-21.51,.38-21.51m-32.65,11.02s-4.21,7.38-2.59,12.48c1.62,5.1,5.46,15.42,5.09,24.02s-6.12,11.18-5.47,19.43c.65,8.15,6.81,14.5,6.43,19.68s-4.87,15.76-4.87,15.76m109.1,13.91s-5.28-15.01-3.59-22.13c1.7-7.22,2.78-15.97,3.59-23.34,.81-7.37-1.84-17.63-.47-24.26,1.46-6.53,5.99-16,7.19-23.34,1.21-7.44,.82-18.48,.82-18.48m32.45,10.9s2.39,11.25,.21,16.14-3.55,15.33-4.12,24.01c-.58,8.68,3.67,9.72,2.13,17.74s-3.94,13.4-4.13,18.6,.54,13.95,.54,13.95" fill="none" stroke="#6ba5a2" stroke-miterlimit="4" stroke-width="4"/>
  </g>
  <path id="Head_Stroke" data-name="Head Stroke" d="M367.1,351c-11.5-2.3-29.8,6.7-29,24.8s16.8,24.3,29.3,24.9m230.1-49.5c17.3-1.2,28.8,8.8,28,26.9s-15.8,24.6-28.2,25.1m-117.6-135.5c43.4,.1,81,10.2,97.9,35.1s22.1,44.4,21.5,80.4-12.6,51.5-34.6,70.6-47.4,24.1-77.3,24.1-64.2-8.4-86.9-24.5c-22.7-16.1-35.7-44.5-35.2-76.4s6.1-49.1,20.9-72c14.6-22.9,50.3-37.4,93.7-37.3" fill="none" stroke="#000" stroke-width="4"/>
  <g id="_02:Face_01:Happy" data-name="02:Face/01:Happy">
    <path id="path-2" d="M467.1,412.7c6.2-1.7,13.6-1.4,26.4-1.6,9.3-.2,9.2,13.4,6.2,21-2.5,6.3-5.5,12.3-13.4,13s-16.6-3.8-20.2-10.3c-4.8-9-5-20.5,1-22.1h0Z" fill="#fcc5c4" stroke="#c70155" stroke-width="4"/>
    <path id="path-3" d="M455.4,396.3s1.2-16.1-7.1-22.3c-9-6.7-22.1-6-30.4,4.7-5.8,7.6-4.2,18.9-4.2,18.9m138.2,1.6s-1.3-16.3-10.2-22.4c-9.3-6.3-21.2-5.7-28.5,3.3-6.5,8.1-5.4,19.3-5.4,19.3" fill="none" stroke="#000" stroke-width="4"/>
    <path id="path-5" d="M430,345.3s3.6-7.3,11.1-5.5c7.5,1.7,7.4,8.4,7.4,8.4,0,0-3.5-2.5-8.2-3.7-4.6-1-9.3,1.2-10.3,.8Zm87.6,.1s1.1-6.4,8.8-6.7c7.7-.3,9.8,7.7,9.8,7.7,0,0-4.4-3-9.2-2.9-4.8,.3-8.3,2.1-9.4,1.9h0Zm-40.9,49.7c2.5-2,6.8-.5,8.1,1.5,1.9,3.1-1.9,6.8-5.8,5.7-3.9-1-5.7-4.5-2.3-7.2Z"/>
  </g>
  <g id="_02:Face_02:Red_Face" data-name="02:Face/02:Red Face">
    <path id="path-21" d="M416.8,398l30.1-11.1s-38.8,4.6-40.4,4.8c-1.5,.2,40.2-13.8,40.2-13.8l-40.7,4.4,39.8-14.5-42.1,7.1m117.5,16.3l31.9-3.3s-38.8-5.1-40.3-5.4c-1.5-.2,42.4-3.4,42.4-3.4l-40.5-5.8,42.1-4.2-42.6-3.6m12.7-20.1l18,2.6m-127.2,3.7l16.9-5.1" fill="none" stroke="#000" stroke-width="4"/>
    <path id="path-18" d="M463.9,411.2c6.8,0,12.4-12,16.8-11.4,5,.7,12.1,9.6,19.6,11.6,1.8,7,2,13.3-2.1,19.3-3.4,5-6.8,12-14.7,11.8s-13.6-4.7-16.2-10.5c-3.6-8-4.4-13.6-3.4-20.8h0Z" fill="#fcc5c4"/>
    <path d="M401.3,419l6.4,19m7-20l6.4,16m7.2-14.4l5.4,12.2m74.4-18.4c-15.9-.2-16.6-12.7-27.5-12.6s-9.9,13.7-26,11.7m46.2-.3c1.4,7.7-.5,9.3-3.5,15.9-2.5,5.5-5.5,11.1-13.5,10.8s-13.2-2.2-15.8-8.1c-3.6-8-5.8-10.7-4.9-17.8m73.4,5.8l5.4,12.2m6.4-17l6.4,16m8.2-20.9l5.2,18.9" fill="none" stroke="#c70257" stroke-width="4"/>
    <path id="path-19" d="M472,369.7c2.5-2,6.8-.5,8.1,1.5,1.9,3.1-1.9,6.8-5.8,5.7-3.9-1-5.7-4.5-2.3-7.2Z"/>
  </g>
  <g id="_02:Face_03:Proud" data-name="02:Face/03:Proud">
    <path id="path-4" d="M469,421.9c7,1.4,13.5,3,25.7,.2,9-2,7,12.6,3,18.6-3.4,5-6.6,7.3-14.6,7-7.9-.3-15.7-3-18.3-8.8-3.6-8-2-18.1,4.2-17h0Z" fill="#fcc5c4" stroke="#c70155" stroke-width="4"/>
    <path id="path-15" d="M553.7,380s-1.1,16.5-8.9,22.7c-8.5,6.7-26.7,4.5-32.3-3.1-5.7-7.7-5.5-21.2-5.5-21.2m-51.5-.5s-1.4,13.9-9.7,19.4c-9.9,6.4-23.1,3.6-29.6-4.8-5.9-7.6-3-19.1-3-19.1" fill="none" stroke="#000" stroke-width="4"/>
    <path id="path-17" d="M429.7,346.6s2.8-5.9,10.2-4c7.5,1.7,7.4,10.1,7.4,10.1,0,0-3.4-4.1-8.1-5.3-4.7-1.1-8.6-.4-9.5-.8h0Zm90.8,4.1s1.1-6.4,8.8-6.7c7.7-.3,9.8,7.7,9.8,7.7,0,0-4.4-3-9.2-2.9-4.8,.2-8.3,2-9.4,1.9h0Zm-44.8,48.8c2.5-2,6.8-.5,8.1,1.5,1.9,3.1-1.9,6.8-5.8,5.7-3.9-1-5.6-4.5-2.3-7.2Z"/>
  </g>
  <g id="_02:Face_04:Bad_Laugh" data-name="02:Face/04:Bad Laugh">
    <path d="M389.9,376.1c-3.3,5.9,0,18.3,7.3,22.3,9.7,5.3,11.1-2.7,22.8-1.7,11.7,1,14,8.8,24.6,5.1,10.6-3.7,12.6-17.1,6.7-24.5-7.2-9-15.5-15.3-29.4-15.2-11,0-26.5,4.3-32,14h0Z" fill="#fff" stroke="#000" stroke-width="4"/>
    <path d="M501.8,378.6c-3.3,5.9,0,18.3,7.3,22.3,9.7,5.3,11.1-2.7,22.7-1.7s14,8.8,24.6,5.1,12.7-17.1,6.7-24.5c-7.2-9-15.5-15.3-29.4-15.2-11,.1-26.5,4.4-31.9,14h0Z" fill="#fff" stroke="#000" stroke-width="4"/>
    <path id="path-11" d="M410.1,364.5c10.6-1.6,17-1.1,26.7,2,.8,12.5-3,20.6-14.8,19.4-11.7-1.2-12-10.6-11.9-21.4h0Zm62.4,30.2c2.2-3.3,7.7-3.4,10.1-1.5,3.5,2.8,.5,8.7-4.5,9s-8.5-3-5.6-7.5Zm49.9-28.5c10.1-1.8,16.9-.4,26.1,3.5,.8,12.5-2.2,20.2-13.8,19.5s-12.4-12.2-12.3-23h0Z"/>
    <path id="path-12" d="M476.9,416.1c13.2,.2,29.3-1.8,36.2,2.7,9.3,6-1.9,17.8-7.4,22.2-8.2,7.4-14.2,6.2-28.6,4.5s-19.9,2.1-29-4.8c-8.1-6.1-21.7-17-12.9-26.7,7.8-8.4,28.6,1.8,41.7,2.1h0Z" fill="#fcc5c4" stroke="#c70155" stroke-width="4"/>
    <path d="M410.2,347.4l15.7-5m99.8,1.7l16.2,6.5" fill="#d8d8d8" stroke="#000" stroke-width="4"/>
  </g>
  <g id="_02:Face_05:In_Love" data-name="02:Face/05:In Love">
    <path id="path-20" d="M530.7,359.3c13.3,1,22,12.9,20.3,27.6s-12.7,24.1-23.5,23.9-22.8-10.3-21.9-26.3c1-18.9,11.6-26.2,25.1-25.2Zm-100.5-.4c13.2,1.8,21.2,14.3,18.5,28.8s-14.1,23.3-24.9,22.4-22.1-11.7-20.2-27.6c2.2-18.8,13.2-25.4,26.6-23.6h0Zm41.8,28.5c2.2-3.3,9.2-2.6,11.2-.2,3.4,4.1-1.4,7.5-6.4,7.9-4.9,.2-7.7-3.2-4.8-7.7h0Z"/>
    <path d="M531.2,341.9l10.4,5.8m-129.7,.4l11-4.1" fill="#d8d8d8" stroke="#000" stroke-width="4"/>
    <path id="path-22" d="M479.3,433.8c6.8-.7,11.7-.1,15.5-5.8,4.5-6.8,4.8-12.4-1.5-16.6-4.4-2.9-10,.5-15.4,1-6.1,.6-10.9-3.9-16.9,.7s-.2,12.5,2.8,15.1c4.7,4.2,8.7,6.3,15.5,5.6h0Z" fill="#fcc5c4" stroke="#c70256" stroke-width="4"/>
    <path id="path-23" d="M408,385.1c.2,3.8,6,6,8.3,4.8,3.9-2.1,3.9-7.9-.3-9.6-4.2-1.7-8.3,.4-8,4.8h0Zm102.6-1c.2,3.8,6,6,8.3,4.8,3.9-2.1,3.9-7.9-.3-9.6s-8.2,.4-8,4.8h0Zm-91.7-13.5c-.9,6.9,5.8,12.1,11.1,11.5,8.3-.9,10.2-11.3,3.3-16s-13.6-1.4-14.4,4.5h0Zm105,1.1c-1,6.9,5.8,12.1,11.2,11.5,8.3-.9,10.2-11.3,3.3-16s-13.7-1.4-14.5,4.5h0Zm-101.9,24.9c.3,4.9,7.8,7.8,10.8,6.2,5.1-2.7,5.1-10.2-.4-12.5-5.5-2.2-10.8,.5-10.4,6.3h0Zm103.1,.9c.3,4.9,7.8,7.8,10.8,6.2,5.1-2.7,5.1-10.2-.4-12.5-5.5-2.1-10.7,.6-10.4,6.3h0Z" fill="#fff"/>
  </g>
  <g id="_02:Face_06:Yummy" data-name="02:Face/06:Yummy">
    <path id="Face.01.3" d="M506.4,387s8.1-14.7,17.4-17.7,19.3,.6,22.1,6.1,2.4,14-4.2,19.1c-6.6,5.1-15.7,3.5-20.2-1s-4.3-9.8-4.3-14.4c0-.1-6.2,3.4-10.8,7.9Zm-84.3-27s2.9-8.1,8.2-9.8c5.3-1.7,10,4,5.4,6.8s-12.8,3.1-13.6,3Zm117.5,1.6s-2.9-8.1-8.2-9.8-10,4-5.3,6.8c4.5,2.7,12.7,3.1,13.5,3Zm-63.4,23.6c2.2-3.3,7.7-3.4,10.1-1.5,3.5,2.8,.5,8.7-4.5,9s-8.5-3-5.6-7.5Zm-67.6,3.1s8.1-14.7,17.4-17.7,19.4,.6,22.1,6.1,2.4,14-4.2,19.1-15.6,3.5-20.1-1-4.3-9.8-4.3-14.4c0-.1-6.3,3.4-10.9,7.9Z"/>
    <path id="Face.01.2" d="M433.8,379.9c.2,3.8,6,6,8.3,4.8,3.9-2.1,3.9-7.9-.3-9.6-4.2-1.7-8.3,.4-8,4.8h0Zm99.1-1.6c.2,3.8,6,6,8.3,4.8,3.9-2.1,3.9-7.9-.3-9.6s-8.2,.4-8,4.8h0Z" fill="#fff"/>
    <path id="Face.01.1" d="M448.1,417s22.6,12.4,40.4,12c17.8-.3,27-6.1,26.5-14.1-.5-7.9-13.7-15.9-19.1-14s-7.5,8.4-6.5,13.9,4.1,13.3,4.1,13.3c0,0-8.3,0-15.7-.9s-28.8-10-29.7-10.2h0Z" fill="#fcc5c4" stroke="#c70155" stroke-width="4"/>
  </g>
  <g id="_02:Face_07:Shy" data-name="02:Face/07:Shy">
    <path id="path-25" d="M526.8,367.6c6.2-.1,11.8,7.1,12,13.7s-4.2,12.1-10.2,12.4-12.8-5.1-12.4-13.8c.3-9,4.5-12.2,10.6-12.3h0Zm-97,.4c6.2-.1,11.8,7.1,12,13.7s-4.2,12.1-10.2,12.4-12.8-5.1-12.4-13.8c.4-9,4.6-12.2,10.6-12.3h0Zm42.7,6.2c2.2-3.3,7.7-3.4,10.1-1.5,3.5,2.8,.5,8.7-4.5,9s-8.5-2.9-5.6-7.5Z"/>
    <path d="M402.1,408.8l-1.3,11.9m20.2-12.8l-3.2,13m18.2-10.2l-2.2,9.9m91.2-11.2l-2.2,12.4m18.6-13.6l-1,13.8m18.6-13.8l-1.8,13" fill="none" stroke="#c70257" stroke-width="4"/>
    <path d="M462.4,393s.5,20.9,15.4,20.5,15.9-21.1,15.9-21.1m25.7-45.4l16.9,6.7m-114.9-.7l16.4-6.6" fill="none" stroke="#000" stroke-width="4"/>
  </g>
  <g id="_02:Face_08:Self_Proud" data-name="02:Face/08:Self Proud">
    <path id="Face.02.4" d="M446,410.7c11.1,2.5,21,10.4,38.5,11.2,17.5,.8,26.3-11.2,40.9-13.7,14.6-2.5,24.8,3.7,27.8,15.9,3,12.2-6.4,24.8-17,31.4-10.5,6.6-28.1,11-48.2,10.5s-39.9-4.3-50-9.9-20.8-16.1-16.4-30.8,17.4-16.2,24.4-14.6h0Z" fill="#fff"/>
    <path id="Face.02.3" d="M445.6,411c11.1,2.5,21,10.4,38.5,11.2,17.4,.8,26.3-11.2,40.9-13.7,14.6-2.5,24.8,3.7,27.8,15.9,3,12.2-6.4,24.8-17,31.4-10.5,6.6-28.1,11-48.2,10.5s-39.9-4.3-50-9.9-20.8-16.1-16.4-30.8c4.3-14.6,17.3-16.2,24.4-14.6Z" fill="none" stroke="#000" stroke-width="4"/>
    <path id="Face.02.2" d="M517.3,412.1l22.6,38.4m-41.1-30.7l11.6,45m-29.9-42.5l-4.3,42.4m-18.5-48.9l-14.8,41" fill="none" stroke="#000" stroke-width="4"/>
    <path id="Face.02.1" d="M435.7,370.3c6.2-.1,9.9,7.4,10.1,12.3s-3.5,10.6-8.6,10.6-12-3.1-11.5-11.2c.6-8.2,3.9-11.6,10-11.7h0Zm42.2,24.9c2.2-3.3,7.7-3.4,10.1-1.5,3.5,2.8,.5,8.7-4.5,9s-8.5-3-5.6-7.5Zm53.7-23.3c6.2-.1,9.9,7.4,10.1,12.3s-3.5,10.6-8.6,10.6-12-3.1-11.5-11.2,3.9-11.6,10-11.7h0Zm-14.2-18.4s.5-8,9.9-9.4,13.1,8.2,13.1,8.2c0,0-5.8-3.2-11.7-2.3-5.9,.9-9.9,3.5-11.3,3.5h0Zm-95.2-2.7s2-7.8,11.5-7.3c9.5,.4,11.3,10.5,11.3,10.5,0,0-5.1-4.3-11.1-4.5-5.9-.3-10.4,1.5-11.7,1.3h0Z"/>
  </g>
  <g id="_02:Face_09:Cheeky" data-name="02:Face/09:Cheeky">
    <path id="path-6" d="M431.1,370.7c6.2-.1,9.9,7.4,10.1,12.3s-3.5,10.6-8.6,10.6-12-3.1-11.5-11.2c.6-8.2,3.9-11.6,10-11.7h0Zm42.2,24.9c2.2-3.3,7.7-3.4,10.1-1.5,3.5,2.8,.5,8.7-4.5,9s-8.5-3-5.6-7.5Zm39.5-41.7s.5-8,9.9-9.4,13.1,8.2,13.1,8.2c0,0-5.8-3.2-11.7-2.3-5.9,.9-9.9,3.5-11.3,3.5h0Zm-95.2-2.7s2-7.8,11.5-7.3c9.5,.4,11.3,10.5,11.3,10.5,0,0-5.1-4.3-11.1-4.5-5.9-.3-10.4,1.5-11.7,1.3h0Z"/>
    <path d="M534.9,368.4l-26,15,27.2,9.1" fill="none" stroke="#000" stroke-width="4"/>
    <path id="path-7" d="M480.8,423.5c8.2,.1,9.4-8.5,14.7-5.8,5.2,2.6,6.7,11.9,2,20.6-3.7,6.8-8.1,9.6-14.8,9.6s-13.3-1.5-18.1-10.9c-4.7-9-7-14.5-.8-15.2,6.4-.8,8.8,1.5,17,1.7h0Z" fill="#fcc5c4"/>
    <path id="path-9" d="M440.5,409.2c5.4,3.5,5.8,3.7,10.2,6.4,3.5,2,7.4,3.3,12.8,5.1m21.3,16.2c-1.1-6.8-4.6-12.5-3.4-15m14.7-4.7c5.4-3.5,5.5-3.5,7.4-5.2,3-2.7,4.2-2.9,5.5-5.5m-28.7,16.7c8.3,0,13.3-6.6,16.1-5.3,5.2,2.5,6.9,9.8,3.8,18.6-2.6,7.3-10.4,11.4-17.1,11.4s-13.3-1.5-18.1-10.9c-4.7-9-3.4-12.6-1.4-15.5,1.3-1.7,8.5,1.7,16.7,1.7h0Z" fill="none" stroke="#c70155" stroke-width="4"/>
  </g>
  <g id="_02:Face_10:Surprised" data-name="02:Face/10:Surprised">
    <path id="path-1" d="M457.4,392.1c-1.3-7.3-4.2-22.9-24.2-22-17.3,.8-22.4,18.1-19.9,29.4,3.4,14.9,18.2,15.1,26.5,14.8,10.3-.4,19.3-12.9,17.6-22.2h0Zm49.6,2.9c1.6-7.8,7.8-23.8,25.4-21.7,17.2,2,20.6,19.3,17.7,30.5-4,15.5-19.2,17.9-29.3,14.3-8.5-3-15.5-14.3-13.8-23.1h0Z" fill="#fff"/>
    <path id="Face.03.3" d="M457.3,391.8s.6-23.3-24.2-22c-17.3,1.4-22.5,18.1-19.9,29.4,4.6,20.3,26.5,14.8,26.5,14.8m31.9-45.6l23.6-.1m-19.3,10.8l15.5-.2m-13.8,9.9l13.3,.1m17.2,6.1s-.6-23.3,24.2-22c17.3,1.4,20.3,19.2,17.7,30.5-4.6,20.3-28.1,14.7-28.1,14.7" fill="none" stroke="#000" stroke-width="4"/>
    <path id="Face.03.2" d="M483.4,441.8c8.2-.1,9.4,4.6,18.6,3.4,9.2-1.1,10.8-8.2,7.2-15.5-3.5-7.1-14-16-27.7-16.4s-25.6,7.8-28.2,17.6c-2.7,9.8,6.4,13.2,12.6,13.9,6.4,.8,9.3-2.8,17.5-3Z" fill="#fcc5c4" stroke="#c70155" stroke-width="4"/>
    <path id="Face.03.1" d="M436.9,349.5s2.2-6.1,9.8-5c7.6,1,8.3,9.3,8.3,9.3,0,0-3.8-3.8-8.6-4.5-4.7-.6-8.5,.5-9.5,.2h0Zm73.5,3.8s.5-6.5,8.1-7.5c7.6-1,10.5,6.7,10.5,6.7,0,0-4.7-2.6-9.4-2-4.8,.7-8.1,2.8-9.2,2.8h0Zm-64.8,37.6c5-.1,8,6,8.2,9.9,.2,4-2.8,8.6-6.9,8.6s-9.7-2.5-9.3-9c.4-6.6,3.1-9.4,8-9.5h0Zm34.5,9.3c2.3-2.2,6.7-1.2,8.2,.7,2.2,2.9-1.2,6.9-5.2,6.2-4-.6-6.1-3.9-3-6.9h0Zm38-4.3c5-.1,8,6,8.2,9.9,.2,4-2.8,8.6-6.9,8.6s-9.7-2.5-9.3-9,3.1-9.5,8-9.5Z"/>
  </g>
  <g id="_02:Face_11:Frighten" data-name="02:Face/11:Frighten">
    <path id="path-24" d="M484.6,410.3c7.2,1,12.7,4.4,17.7,9.8,6.7,7.3,11.7,42.6,6,46.1-5.8,3.6-16.4-2.2-24.7-2.7-8.3-.5-18.1,4.6-25.1-.5-6.6-4.8-1.5-34.5,5-43.8,5.3-7.7,13.9-10,21.1-8.9Z" fill="#fcc5c4" stroke="#c70256" stroke-width="4"/>
    <path id="path-26" d="M455.3,392.2c.4-12.2-10.9-24.6-24.6-25-14.7-.4-24.9,11.4-25,23.9-.1,13.1,14.3,23.8,26.4,23.6,11.7-.2,22.8-9.6,23.2-22.5h0Zm103.6,4.9c.4-12.2-10.8-24.6-24.6-25-14.7-.4-24.9,11.4-25,23.9-.1,13.1,14.3,23.8,26.4,23.6,11.6-.2,22.8-9.7,23.2-22.5h0Z" fill="#fff" stroke="#000" stroke-width="6"/>
    <path d="M400.3,427v14.5m14.3-12.5l.6,15.5m14.3-14.9l.2,16.2m32.4-103.7s1,7.8-2.8,11.3-11.9-1.6-11.9-1.6m32.9-7l.1,12.5m16-12.1s0,8.5,4.1,10.7,14-.4,14-.4" fill="none" stroke="#000" stroke-width="4"/>
  </g>
  <g id="_02:Face_12:Sigh" data-name="02:Face/12:Sigh">
    <path id="path-27" d="M475.2,407.5c8.3,0,8,2,10.5,3.8,3.5,2.5,5.5,8.6,2.2,13.8-3.1,4.2-6.1-1.3-12.8-1.3s-10.9,5.2-12.6,1c-2.8-6.7-.5-10.6,1.5-13.6,1.3-1.8,2.9-3.8,11.2-3.7h0Z" fill="#fcc5c4" stroke="#c70155" stroke-width="4"/>
    <path d="M414.9,380.3s11.8-1.4,17.6-6.7c5.8-5.3,7.4-12.2,7.4-12.2m70.5-.3s3.5,8.9,11,14.7c7.5,5.8,19.8,8.6,19.8,8.6m-47.6-30l2,17.2m-17.6-20.3l-1.8,19.5m-13.7-15.7l-5.4,15.2" fill="none" stroke="#000" stroke-width="4"/>
    <path id="path-28" d="M470.2,381.8c2.2-3.3,7.7-3.4,10.1-1.5,3.5,2.8,.5,8.7-4.5,9s-8.5-3-5.6-7.5Z"/>
  </g>
  <g id="_02:Face_13:Dizzy" data-name="02:Face/13:Dizzy">
    <path id="path-29" d="M474.1,383.8c2.2-3.3,7.7-3.4,10.1-1.5,3.5,2.8,.5,8.7-4.5,9s-8.5-3-5.6-7.5Z"/>
    <path id="path-30" d="M469.4,403.9c4.1-.1,2.9-5.6,8.2-5.3,4.6,.3,3.3,6.5,7.4,6.9s4.6-5.5,8.6-5.5c4.8,0,6.9,6.7,6.8,12.6-.1,6-.4,10.8-1,11.7-3.4,4-12.1-.6-22.7-1.1s-15.7,2.6-18.9-.3c-4.1-3.8-4-7.5-3-15.1,.6-4.8,.7-10.1,6.3-9.8,4.2,.2,3.9,6,8.3,5.9h0Z" fill="#fcc5c4" stroke="#c70155" stroke-width="4"/>
    <path d="M416.1,393.3s-5.8-11-2.5-19.8,10.7-11.9,20-10.3c10,1.8,15.9,9.9,16.1,17.6s-6.2,15.1-13.5,14.1-11.3-7.2-11-11,4.4-7,7.8-6.6,6.1,5.5,6.1,5.5m70.5,12.2s-5.8-11-2.5-19.8,10.7-11.9,20-10.3c10,1.8,15.9,9.9,16.1,17.6,.2,7.7-6.2,15.1-13.5,14.1s-11.3-7.2-11-11,4.4-7,7.8-6.6c3.4,.4,6.1,5.5,6.1,5.5m-94.5-34.2s7.6,1.2,10.3-.5,6.2-6.2,6.2-6.2m52.9-1s1.9,5,4.8,6.6c2.9,1.6,10.4,1.7,10.4,1.7" fill="none" stroke="#000" stroke-width="4"/>
  </g>
  <g id="_02:Face_14:Sad" data-name="02:Face/14:Sad">
    <path id="path-31" d="M483.6,428.5c15.6-3.1,17.6-12.4,22.7-4.7,4.7,7.2-7,15.1-18.7,17-11.7,2-24.7,6.1-27.1-4.5-1.5-6.5,7.4-4.8,23.1-7.8h0Z" fill="#fcc5c4" stroke="#c70155" stroke-width="4"/>
    <path id="path-34" d="M475.3,402.6c2.3-2.2,6.7-1.2,8.2,.6,2.2,2.9-1.2,6.9-5.2,6.2-3.9-.5-6.1-3.8-3-6.8Zm44.5-6.8c4.8-5.2,12.9-6.3,17.3-2.2,4.6,4.3,.1,11.3-3.2,15s-12.9,7-18.5,1.6c-4.3-4.2-.1-9.5,4.4-14.4h0Zm-100.5-4.1c4.4-5.5,10.4-2.8,15.4,.4,5.3,3.3,7.7,10.5,4.4,14.3-3.3,3.7-10,4.3-16.2-.3-4.7-3.7-7.9-8.9-3.6-14.4h0Z"/>
    <path d="M506.5,343.2s3.3-3.5,10-2.8c6.7,.8,9.2,6.1,9.2,6.1m-89.4,16.1s2.6,5.2,8.8,4.1,10.7-6.7,10.7-6.7" fill="none" stroke="#000" stroke-width="4"/>
    <path d="M423.9,443.5c-.3-8.6,.1-25,.1-25m-12.9-8s-.3,18.1,0,23.8m27.3,11.7c.3-7.7,1-26,1-26" fill="none" stroke="#6ba5a2" stroke-width="4"/>
  </g>
  <g id="_02:Face_15:Speechless" data-name="02:Face/15:Speechless">
    <path d="M388.4,368.5c-.1,11.2,0,17.9,4.4,25.2,4.4,7.4,11.4,12.3,23.1,13.3s20.6-4.2,27.4-11.6c6.8-7.5,8.6-24.5,8.6-24.5,0,0-51-1.8-63.5-2.4h0Z" fill="#fff" stroke="#000" stroke-width="4"/>
    <path d="M388.4,368.5l1-11.3m62.3,13.7l.8-11.4m55.7,7.6l1-11.3m62.3,13.7l.8-11.4" fill="#d8d8d8" stroke="#000" stroke-width="4"/>
    <path id="path-8" d="M480.8,406.8c8.3,0,13.3,2.5,15.8,4.3,3.5,2.5,.2,7.3-3.1,12.5-3.1,4.2-6.6-2-13.3-2s-12.9,5.2-15,1.1c-4.7-9-4.1-9.1-2-12,1.2-1.8,9.3-4,17.6-3.9h0Z" fill="#fcc5c4" stroke="#c70155" stroke-width="4"/>
    <path d="M508.2,367.1c-.1,11.2,0,17.9,4.4,25.2,4.4,7.4,11.4,12.3,23.1,13.3,11.7,1,20.6-4.2,27.4-11.6s8.6-24.5,8.6-24.5c0,0-51-1.8-63.5-2.4h0Z" fill="#fff" stroke="#000" stroke-width="4"/>
    <path id="path-10" d="M396.4,369.7c10.1,.5,13.2-1.8,22.9,1.3,.8,12.5-3.3,19.4-12.6,18.6-9.4-.7-10.5-9.1-10.3-19.9h0Zm73.6,18.9c2.2-3.3,7.7-3.4,10.1-1.5,3.5,2.8,.5,8.7-4.5,9s-8.5-3-5.6-7.5Zm45.7-20c10.1,.5,13.2-1.8,22.9,1.3,.8,12.5-3.3,19.4-12.6,18.6-9.4-.7-10.4-9.1-10.3-19.9h0Z"/>
  </g>
  <g id="_02:Face_16:Anxious" data-name="02:Face/16:Anxious">
    <path id="path-35" d="M479.5,421.2c10.9,.4,16.9,5.1,26.6,2,8.9-2.9,8.4-16.6,2.3-24.5-3.9-5.1-17.2-9.1-29.2-9.9s-26.5,.5-31.4,10.3c-4.7,9.4-2.7,18.6,8.1,21.7,7.3,2.1,14.1,0,23.6,.4h0Z" fill="#f45957"/>
    <path id="path-32" d="M473.7,372.4c2.2-3.3,7.7-3.4,10.1-1.5,3.5,2.8,.5,8.7-4.5,9s-8.5-3-5.6-7.5Z"/>
    <path d="M541.4,358.1l-26,15,27.2,9.1m-124.2-23.1l28.8,12-27.6,12" fill="none" stroke="#000" stroke-width="4"/>
    <path id="path-33" d="M478.5,421.4c5.6,.2,15.6,3.1,22,2,3.6-4.3-3.9-9.5-7-13.5-2-2.6-9.1-4.4-15.2-4.8s-12.4,2.4-15.1,5.3c-2.9,3.2-6.9,6.2-4,10.2,3.5,1.1,14.3,.6,19.3,.8h0Z" fill="#fcc5c4"/>
    <path id="path-36" d="M501,423.2c3.6-4.3-3.9-9.5-7-13.5-2-2.6-9.1-4.4-15.2-4.8s-12.4,2.4-15.1,5.3c-2.9,3.2-6.9,6.2-4,10.2m21.4,1c10.9,.4,16.9,5.1,26.6,2,8.9-2.9,8.4-16.6,2.3-24.5-3.9-5.1-17.2-9.1-29.2-9.9s-26.5,.5-31.4,10.3c-4.7,9.4-2.7,18.6,8.1,21.7,7.3,2.1,14.1,.1,23.6,.4h0Z" fill="none" stroke="#c70101" stroke-width="4"/>
  </g>
  <g id="_02:Face_17:Annoyed" data-name="02:Face/17:Annoyed">
    <path id="path-37" d="M441.7,376.1c5.5,3,4.8,10.5,1.9,14.8-3.5,5.2-10.6,8.2-15.4,4.9s-6-9.4-2-14.9c4.4-5.9,10.1-7.8,15.5-4.8Zm36.4-1.8c2.4-2.1,6.7-.9,8.2,1,2.1,3-1.5,6.9-5.4,6-4-.7-6-4.1-2.8-7h0Zm44.4,3c-5.7,2.6-5.6,10.1-3,14.6,3.1,5.5,9.9,9,14.9,6,5-2.9,6.7-8.9,3.1-14.7-3.8-6.2-9.5-8.5-15-5.9h0Z"/>
    <path d="M505.6,342.7s-.5,7.2,4.3,8.9c4.8,1.7,11.7-1.1,11.7-1.1m-80.4,1.9s7.1,2.5,10.2-.3,5.4-8.8,5.4-8.8m4.7,70.1s1.3-14.1,7.8-19.2c6.4-5.1,15.8-6.2,23.5-.6s8.5,19.9,8.5,19.9" fill="none" stroke="#000" stroke-width="4"/>
    <path d="M551.1,395.9s12.9,3.3,7.8,10.5c-5.1,7.1-13-3-13-3m-133.7-7.8s-13.1,2.3-8.6,9.8,13.2-2,13.2-2" fill="none" stroke="#6ca4a1" stroke-width="4"/>
  </g>
  <g id="_02:Face_19:Cry" data-name="02:Face/19:Cry">
    <path id="path-13" d="M480.6,384.2c8.2,.5,16.2,3.9,20,9.6,4.5,6.8,2.9,18.1-3.5,22.3-4.4,2.9-12.1-3.1-17.4-3.6-6.1-.6-10,4-17,.9-6.3-2.8-5-18.7-2.6-21.9,4.6-6.5,12.3-7.9,20.5-7.3h0Z" fill="#fcc5c4" stroke="#c70256" stroke-width="4"/>
    <path id="path-14" d="M475,367.4c2.4-3.2,7.9-3,10.2-1,3.4,3,.1,8.7-4.9,8.8-5.1,0-8.4-3.4-5.3-7.8h0Z"/>
    <path d="M551.3,339.5l8.9,7.5m-151.2,.8l8.6-7m100.8,19.1l48.6,16.6m-168.5-3.7l46.8-15.9" fill="#d8d8d8" stroke="#000" stroke-width="4"/>
  </g>
  <g id="_01:Hair_02" data-name="01:Hair/02">
    <path id="Hair.02.2" d="M360.6,336.5c2.3-10.6,1.7-25,11.7-39.4,9.4-13.5,29.2-30.7,43.3-32.8-.8-5.3-.3-11.3,1.5-19.6,3.5-16.1,14.1-19.7,23.7-17.9s11,16.7,11,16.7c0,0,.4-18.7,12.1-17.7s11.5,16.1,11.5,16.5,7.7-15.7,18.7-14.5,10.5,8.2,10.4,15.1c-.1,6.9-9,10.8-6.6,15.2,23-1.7,38.3,4.1,54.5,12.3,36.3,18.4,32.8,24.9,41.3,44.2,7.6,17.4,6,58.1,6,58.1,0,0-1.8,.2-9.6,2.2-7.7,2-14,1.1-14,1.1,0,0,3.9-21.8,.4-29.8-3.4-8-4.7-21.4-23.7-24.7-19-3.4-21.1,1.4-38.5,1.3-17.5-.1-25.8-2.1-36.9-4.6-10.6-2.5-18.2-1.9-31-10.1-4-2.6-7.5-5.4-10.6-8.4,.3,.5,.4,.8,.4,.8,0,0-15.9,10.6-24.5,17.2-10.7,8.2-17.5,16-22.3,28.3s-.9,31.3-.9,31.3c0,0-8.1-.2-12-1.1-4.6-1-13.2-4.7-13.2-4.7-.9-.5-5-24.4-2.7-35h0Z" fill="#d9b233"/>
    <path id="Hair.02.1" d="M477.4,319.2c11.1,2.6,19.4,4.5,36.8,4.6s19.4-4.7,38.4-1.3c18.9,3.4,20.2,16.7,23.7,24.7,3.4,8-.4,29.8-.4,29.8,0,0,6.2,.9,14-1.1,7.7-2,9.5-2.2,9.5-2.2,0,0,4-39.2-3.3-56.6-7.3-17.3-16.4-35.3-43.8-45.7-17-6.5-31.4-14-54.3-12.3-2.4-4.4,6.5-8.3,6.6-15.2s.6-13.9-10.4-15.1c-11-1.2-18.7,14.9-18.7,14.5s.2-15.5-11.5-16.5c-11.6-1-12.2,17.7-12.2,17.7,0,0-1.4-14.9-10.9-16.7-9.6-1.8-20.1,1.8-23.6,17.9s-1.9,23.5,3.6,33.8,12.9,21.4,25.7,29.5c12.7,8.3,20.2,7.7,30.8,10.2h0Zm-60.4-53.9c-14,1.2-34.7,19-44.3,32.9-10,14.4-9.3,28.9-11.6,39.4-2.3,10.6,2.7,32.4,3.7,32.7m-.4,.2s8.6,3.7,13.1,4.7c3.9,.9,12,1.1,12,1.1,0,0-3.8-19,.9-31.3,4.8-12.3,11.5-20,22.2-28.3,8.5-6.6,24.4-17.2,24.4-17.2m-72.7,81.3s7.9,2.9,12.6,3.5,14.3,.2,14.3,.2m-26.4,4.6s7.9,2.9,12.6,3.5,14.3,.2,14.3,.2m182.4-7.2s8.4,.6,13.1-.1c4.7-.7,13.8-3.8,13.8-3.8m-27.8,11s8.4,.6,13.1-.1,13.8-3.8,13.8-3.8" fill="none" stroke="#000" stroke-width="4"/>
  </g>
  <g id="_01:Hair_03" data-name="01:Hair/03">
    <path d="M365.24,351.11c-2.86-37.58,.69-53.51,26.39-74.8s67.52-28.85,94.37-28.74c26.96,.23,72.32,15.24,91.4,36.41,19.08,21.17,20.45,44.67,21.36,62.94-14.28,3.37-35.3,3.26-55.18,1.05-19.88-2.21-38.16-8.96-58.61-17.8-20.56-8.84-50.61-31.18-50.61-31.18,0,0-8.68,30.13-21.25,40.95s-28.45,7.1-47.87,11.17Z" fill="#715147"/>
    <path d="M365.69,350.99c-5.03-32.69,2.74-56.19,28.45-77.48,25.71-21.29,54.84-25.83,89.68-25.83s65.35,13.5,90.03,33.85c24.56,20.36,23.53,46.42,25.48,65.15-13.94,4.89-34.96,3.37-54.84,1.16s-42.84-10.82-63.41-19.66-46.96-31.64-46.96-31.64c0,0,.34,13.84-15.99,36.3-16.34,22.45-37.02,14.66-52.44,18.15Z" fill="none" stroke="#000" stroke-width="4"/>
  </g>
  <g id="_01:Hair_01" data-name="01:Hair/01">
    <path id="Hair.01.2" d="M368.1,322.9s9.3-22.9,23.1-35.5c18.4-16.8,36.9-25,70.1-28,30-2.6,60.3,.8,87.3,12.9,21.4,9.6,36.3,25.9,46.1,42.6,11.7,20,5,42.8,4.3,41.9,0,0-15.8-2.4-21.3-7.1-5.6-4.7-13.1-14.4-13.1-14.4,0,0-8,7.3-16,5.5-8.1-1.8-15-17.6-15-17.6,0,0-2,16.9-17.8,17.1s-16.2-16-16.2-16c-1.7,9.1-4.4,18.6-14.9,18.3-10.5-.2-16.7-17.2-16.7-17.3s-2.5,14.7-17.6,15.5-17.2-14.9-17.2-14.9c0,0-2.4,13.7-11.8,15.4s-18.5-7.8-18.5-7.8c0,0-4.4,12-13.6,19s-23.5,7.3-23.5,7.3c-3.1-9.3-3.5-23,2.3-36.9h0Z" fill="#75604c"/>
    <path id="Hair.01.1" d="M368.1,322.6s9.3-22.9,23.1-35.5c18.4-16.8,36.9-25,70.1-28,30-2.6,60.3,.8,87.3,12.9,21.4,9.6,36.3,25.9,46.1,42.6,11.7,20,5,42.8,4.3,41.9,0,0-15.8-2.4-21.3-7.1-5.6-4.7-13.1-14.4-13.1-14.4,0,0-8,7.3-16,5.5-8.1-1.8-15-17.6-15-17.6,0,0-2,16.9-17.8,17.1-15.9,.3-16.2-16-16.2-16-1.7,9.1-4.4,18.6-14.9,18.3-10.5-.2-16.7-17.2-16.7-17.3s-2.5,14.7-17.6,15.5-17.2-14.9-17.2-14.9c0,0-2.4,13.7-11.8,15.4-9.4,1.7-18.5-7.8-18.5-7.8,0,0-4.4,12-13.6,19s-23.5,7.3-23.5,7.3c-3.1-9.3-3.6-23,2.3-36.9h0Z" fill="none" stroke="#000" stroke-width="4"/>
  </g>
  <g id="_03:Body_01" data-name="03:Body/01">
    <path d="M538.9,482.4c10.1,4.1,11.7,10.1,16.5,14.8-7.5,6.3-19.8,19.9-21.7,24.4-5.3-2.4-15.5-10.2-15.5-10.2,0,0,2.8,11.2,4.2,15.5s.9,13.3,.9,13.3c0,0-23.4-17.3-57.3-20.7-34-3.4-59.1,8.8-59.1,8.8,0,0,.3-34.5,6.8-43.8s25.8-24.2,42.6-29.5c16.8-5.3,22.4-6,28.7-7.2,3.4,8,10,31.9,11.6,35,5.5-2.8,21.9-10.2,19.3-8.3,5.8,.9,14.9,3.6,23,7.9Z" fill="#96ca7a"/>
    <path d="M496.1,483c-5.4-19.6-7.7-28.1-10.5-37.5,6.4-1.2,25.8-.9,26.5,1.1,.7,2-1.6,6.2-1.6,6.2,0,0,3.6,1.3,4.1,3.1,.5,1.8-2.6,5.7-2.6,5.7,0,0,3.6,1.5,5.1,4.7s-1,6.5-3.6,8.4c5.7,.9-7.9,4.3-17.4,8.3h0Z" fill="#f2dfaf"/>
    <path d="M536.4,524.3c-5.3-2.4,16.3-30.8,21.2-26.1,4.9,4.6,10.3,12.4,8.8,14.9s-6.4,1.7-6.4,1.7c0,0,1.8,5.9,.2,7.8s-7.1,.3-7.1,.3c0,0,.7,6.3-1.5,7-2.3,.7-9.9-3.1-15.2-5.6h0Z" fill="#f2dfaf"/>
    <path d="M408.8,528.1s.3,23.1,6.6,33.4c6.3,10.3,21.2,19.4,31.5,22.1s19.6,2.8,28,2.9c8.4,.2,18.5,3.3,18.5,3.3,0,0,1.3,5.7-2.2,8.4s-15,2.7-15,2.7c0,0-2.3,7.7-3.3,13.8-1,6-2.5,11.2-1.6,15.6,5.3,.7,35.9,2,41.3,0,.7-4.6,2.2-13.2,2.8-18.3,.7-5.1,6.8-18.5,8.4-30.5,1.6-11.9,1.5-41.5,1.2-40.8s-22.7-15.8-55.3-20.7-61.8,7.9-60.9,8.1h0Z" fill="#715648"/>
    <path d="M468.4,631.6s-.4,12.4,9.9,12.9,17.4,2.5,23.6,.5,6.4-13.6,6.4-13.6l-39.9,.2h0Z" fill="#ada8a5"/>
    <path d="M457.3,587.2s1.5,10.6,9.8,12.1,17.1,2.8,20.6,.9c3.5-1.8,3.3-10.2,3.3-10.2l-33.7-2.8Z" fill="#ada8a5"/>
    <path d="M537.9,483.3c10.1,4.1,13.7,10.4,18.6,15,4.9,4.6,10.3,12.4,8.8,14.9-1.5,2.5-6.4,1.7-6.4,1.7,0,0,1.8,5.9,.2,7.8s-7.1,.3-7.1,.3c0,0,.7,6.3-1.5,7-2.3,.7-9.8-3.2-15.2-5.6-5.3-2.4-18-12.2-18-12.2,0,0,2.8,11.2,4.2,15.5s.9,13.3,.9,13.3c0,0-23.4-17.3-57.3-20.7-34-3.4-59.1,8.8-59.1,8.8,0,0,.3-34.5,6.8-43.8s25.8-24.2,42.6-29.5c16.8-5.3,32-9.7,38.3-10.9,6.4-1.2,19.2,.2,19.9,2.3s-1.6,6.2-1.6,6.2c0,0,3.6,1.3,4.1,3.1s-2.6,5.7-2.6,5.7c0,0,3.5,1.5,5.1,4.7,1.5,3.2-1,6.5-3.6,8.4,5.7,1,14.8,3.7,22.9,8h0Z" fill="none" stroke="#000" stroke-width="4"/>
    <path d="M515.3,475.8s-20.6,7.3-27.8,10.1c-7.1,2.8-22,9-22,9" fill="none" stroke="#000" stroke-width="4"/>
    <path d="M406.5,528.7s.3,23.1,6.6,33.4,21.2,19.4,31.5,22.1,19.6,2.8,28,2.9,18.5,3.3,18.5,3.3c0,0,1.3,5.7-2.2,8.4s-15,2.7-15,2.7c0,0-2.3,7.7-3.3,13.8-1,6-2.5,11.2-1.6,15.6,5.3,.7,35.9,2,41.3,0,.7-4.6,2.2-13.2,2.8-18.3,.7-5.1,6.8-18.5,8.4-30.5,1.6-11.9,1.5-41.5,1.2-40.8-.3,.6-22.7-15.8-55.3-20.7s-61.9,7.9-60.9,8.1h0Z" fill="none" stroke="#000" stroke-width="4"/>
    <path d="M443.7,537s24.4-5.9,36,4.6,13.2,16.6,15.6,26.8c2.5,10.2-3.5,21.9-3.5,21.9" fill="none" stroke="#000" stroke-width="4"/>
    <path d="M484.6,447.5s4.1,8.8,5.9,15.7,5.4,20.3,5.4,20.3" fill="none" stroke="#000" stroke-width="4"/>
    <path d="M484.8,487.5s1.8,9.8,1.7,14.8c-.1,5-2.5,20.8-2.5,20.8" fill="none" stroke="#000" stroke-width="4"/>
    <path d="M554.7,495.8s-7.3,7.8-10.7,10.6-10.8,17-10.8,17" fill="none" stroke="#000" stroke-width="4"/>
    <path d="M457.5,586.4s-1.4,7.7,1.2,10.6c2.6,3,14.9,4.3,14.9,4.3" fill="none" stroke="#000" stroke-width="4"/>
    <path d="M470.4,631.8s-.4,12.4,9.9,12.9,17.4,2.5,23.6,.5,6.4-13.6,6.4-13.6" fill="none" stroke="#000" stroke-width="4"/>
  </g>
</svg>