<?xml version="1.0" encoding="UTF-8"?>
<svg id="a" data-name="Layer 1" xmlns="http://www.w3.org/2000/svg" width="59.4cm" height="84.1cm" viewBox="0 0 1683.78 2383.94">
  <g id="b" data-name="XXL-b">
    <path d="M377.3,413.93s130.04-2.21,149.45-2.85c40.71-1.85,80.99-2.93,108.02-20.54,0,0,19.27-11.28,32.36-37.89,0,0,5.95-11.03,11.59-25.45l366.39,100.38s-27.23,111.88-32.3,222.69c0,0-7.48,136.98,22.5,217.58,17.86,46.37,45.27,83.41,83.16,106.98,43.34,25.33,89.23,23.2,163.95,23.88l9.66,1019.79s-534.51,10.53-915.38,13.43l.6-1618.01Z" style="fill: none; stroke: #603a17; stroke-miterlimit: 10; stroke-width: 2px;"/>
    <g>
      <path d="M680.77,317.59l4.35-5.87-3.84-5.39h1.77l2.05,2.88c.43,.61,.73,1.07,.9,1.38,.23-.38,.53-.81,.89-1.28l2.26-2.99h1.62l-3.95,5.31,4.27,5.95h-1.85l-2.83-4.01c-.13-.19-.3-.44-.49-.76-.27,.44-.45,.72-.54,.84l-2.82,3.93h-1.79Z" style="fill: #603a17;"/>
      <path d="M691.26,317.58l4.35-5.87-3.84-5.39h1.77l2.05,2.88c.43,.61,.73,1.07,.9,1.38,.23-.38,.53-.81,.89-1.28l2.26-2.99h1.62l-3.95,5.31,4.27,5.95h-1.85l-2.84-4.01c-.13-.19-.3-.44-.49-.76-.27,.44-.45,.72-.54,.84l-2.82,3.93h-1.79Z" style="fill: #603a17;"/>
      <path d="M702.83,317.56v-11.26h1.48v9.92h5.55v1.32h-7.03Z" style="fill: #603a17;"/>
    </g>
    <g>
      <path d="M1275.97,991.19l4.35-5.87-3.84-5.39h1.77l2.05,2.88c.43,.61,.73,1.07,.9,1.38,.23-.38,.53-.81,.89-1.28l2.26-2.99h1.62l-3.95,5.31,4.27,5.95h-1.85l-2.83-4.01c-.13-.19-.3-.44-.49-.76-.27,.44-.45,.72-.54,.84l-2.82,3.93h-1.79Z" style="fill: #603a17;"/>
      <path d="M1286.45,991.18l4.35-5.87-3.84-5.39h1.77l2.05,2.88c.43,.61,.73,1.07,.9,1.38,.23-.38,.53-.81,.89-1.28l2.26-2.99h1.62l-3.95,5.31,4.27,5.95h-1.85l-2.83-4.01c-.13-.19-.3-.44-.49-.76-.27,.44-.45,.72-.54,.84l-2.82,3.93h-1.79Z" style="fill: #603a17;"/>
      <path d="M1298.03,991.17v-11.26h1.48v9.92h5.55v1.32h-7.03Z" style="fill: #603a17;"/>
    </g>
    <g>
      <path d="M1256.6,2012.45l4.35-5.87-3.84-5.39h1.77l2.05,2.88c.43,.61,.73,1.07,.9,1.38,.23-.38,.53-.81,.89-1.28l2.26-2.99h1.62l-3.95,5.31,4.27,5.95h-1.85l-2.83-4.01c-.13-.19-.3-.44-.49-.76-.27,.44-.45,.72-.54,.84l-2.82,3.93h-1.79Z" style="fill: #603a17;"/>
      <path d="M1267.09,2012.44l4.35-5.87-3.84-5.39h1.77l2.05,2.88c.43,.61,.73,1.07,.9,1.38,.23-.38,.53-.81,.89-1.28l2.26-2.99h1.62l-3.95,5.3,4.27,5.95h-1.85l-2.84-4.01c-.13-.19-.3-.44-.49-.76-.27,.44-.45,.72-.54,.84l-2.82,3.93h-1.79Z" style="fill: #603a17;"/>
      <path d="M1278.66,2012.43v-11.26h1.48v9.92h5.55v1.32h-7.03Z" style="fill: #603a17;"/>
    </g>
    <line x1="1290.22" y1="1901.86" x2="1261.9" y2="1901.89" style="fill: none; stroke: #603a17; stroke-miterlimit: 10; stroke-width: 2px;"/>
  </g>
  <g id="c" data-name="XL-b">
    <path d="M377.3,413.93s130.04-2.21,149.45-2.85c40.71-1.85,73.04-4.87,96.98-22.33,0,0,16.38-11.6,31.03-37.03,0,0,6.54-10.75,12.18-25.16l351.35,99.22s-28.51,127.6-35.63,218.72c0,0-13.11,132.09,19.4,217.89,18.4,47.14,46.18,80.89,81.98,102.17,37.63,21.74,95.42,23.28,161.22,19.76l10.6,1004.55s-498.45,11.84-879.17,11.35l.6-1586.29Z" style="fill: none; stroke: #2baae2; stroke-miterlimit: 10; stroke-width: 2px;"/>
    <g>
      <path d="M657.98,317.57l4.35-5.87-3.84-5.39h1.77l2.05,2.88c.43,.61,.73,1.07,.9,1.38,.23-.38,.53-.81,.89-1.28l2.26-2.99h1.62l-3.95,5.31,4.27,5.95h-1.85l-2.83-4.01c-.13-.19-.3-.44-.49-.76-.27,.44-.45,.72-.54,.84l-2.82,3.93h-1.79Z" style="fill: #2baae2;"/>
      <path d="M669.55,317.55v-11.26h1.48v9.92h5.55v1.32h-7.03Z" style="fill: #2baae2;"/>
    </g>
    <g>
      <path d="M1238.8,976.79l4.35-5.87-3.84-5.39h1.77l2.05,2.88c.43,.61,.73,1.07,.9,1.38,.23-.38,.53-.81,.89-1.28l2.26-2.99h1.62l-3.95,5.31,4.27,5.95h-1.85l-2.83-4.01c-.13-.19-.3-.44-.49-.76-.27,.44-.45,.72-.54,.84l-2.82,3.93h-1.79Z" style="fill: #2baae2;"/>
      <path d="M1250.37,976.78v-11.26h1.48v9.92h5.55v1.32h-7.03Z" style="fill: #2baae2;"/>
    </g>
    <g>
      <path d="M1231.19,1982.8l4.35-5.87-3.84-5.39h1.77l2.05,2.88c.43,.61,.73,1.07,.9,1.38,.23-.38,.53-.81,.89-1.29l2.26-2.99h1.62l-3.95,5.31,4.27,5.95h-1.85l-2.83-4.01c-.13-.19-.3-.44-.49-.75-.27,.44-.45,.72-.54,.84l-2.82,3.93h-1.79Z" style="fill: #2baae2;"/>
      <path d="M1242.76,1982.78v-11.26h1.48v9.92h5.55v1.32h-7.03Z" style="fill: #2baae2;"/>
    </g>
    <line x1="1254.74" y1="1870.6" x2="1226.42" y2="1870.64" style="fill: none; stroke: #2baae2; stroke-miterlimit: 10; stroke-width: 2px;"/>
  </g>
  <g id="d" data-name="L-b">
    <path d="M377.28,398.93s111.02-.29,130.43-.92c38.14-.84,78.84-.23,102.83-16.24,0,0,14.82-9.29,29.15-31.36,0,0,7.1-10.33,12.74-24.74l339.25,102.48s-33.41,116.56-43.39,208.3c0,0-13.13,112.5,6.91,189.98,14.16,52.29,49.38,106.21,93.9,130.92,30.25,15.82,70.72,15.97,121.55,15.05l15.34,984.23s-440.35,15.19-809.41,13.05l.71-1570.74Z" style="fill: none; stroke: #932a8e; stroke-miterlimit: 10; stroke-width: 2px;"/>
    <path d="M647.08,317.57v-11.26h1.48v9.92h5.55v1.32h-7.03Z" style="fill: #932a8e;"/>
    <path d="M1165.27,964.87v-11.26h1.48v9.92h5.55v1.32h-7.03Z" style="fill: #932a8e;"/>
    <path d="M1169.15,1950.92v-11.26h1.48v9.92h5.55v1.32h-7.03Z" style="fill: #932a8e;"/>
    <line x1="1184.28" y1="1840.9" x2="1155.96" y2="1840.94" style="fill: none; stroke: #932a8e; stroke-miterlimit: 10; stroke-width: 2px;"/>
  </g>
  <g id="e" data-name="M-b">
    <path d="M377.28,398.93s102.65-.72,122.06-1.35c38.14-.84,79.26-.25,103.01-17.7,0,0,13.44-8.96,24.36-33,0,0,4.12-8.87,9.32-21.19l325.96,102.69s-31.87,100.31-43.07,196.02c0,0-15.39,108.32,4.65,185.8,13.82,50.43,40.17,98.78,82.58,127.28,0,0,34.31,23.92,82.57,21.23l31.32,969.39s-401.4,16.19-743.66,12l.89-1541.17Z" style="fill: none; stroke: #8dc641; stroke-miterlimit: 10; stroke-width: 2px;"/>
    <path d="M630.7,317.59v-11.26h2.23l2.67,7.96,.54,1.67c.14-.47,.34-1.07,.6-1.81l2.69-7.84h2v11.25h-1.42v-9.42l-3.27,9.43h-1.34l-3.27-9.57v9.58h-1.42Z" style="fill: #8dc641;"/>
    <path d="M1083.37,951.18v-11.26h2.23l2.67,7.96,.54,1.67c.14-.47,.34-1.07,.6-1.81l2.69-7.84h2v11.25h-1.42v-9.42l-3.27,9.43h-1.34l-3.27-9.57v9.58h-1.42Z" style="fill: #8dc641;"/>
    <path d="M1102.9,1922.42v-11.26h2.23l2.67,7.96,.54,1.67c.14-.47,.34-1.07,.6-1.8l2.69-7.84h2v11.25h-1.42v-9.42l-3.27,9.43h-1.34l-3.27-9.58v9.58h-1.42Z" style="fill: #8dc641;"/>
    <line x1="1115.96" y1="1810.38" x2="1087.64" y2="1810.42" style="fill: none; stroke: #8dc641; stroke-miterlimit: 10; stroke-width: 2px;"/>
  </g>
  <g id="f" data-name="S-b">
    <path d="M377.28,398.93s102.65-.72,122.06-1.35c34.13-.56,61.79-3.59,80.24-13.85,0,0,20.91-11.05,31.6-33.82,0,0,6.25-12.24,10.36-25.39l314.88,105.18s-37.78,108.2-47.86,231.36c0,0-9.84,93.62,15.31,165.75,0,0,22.09,65.94,70.44,98.97,0,0,28.92,23.81,79.67,21.61l18.19,950.55s-424.85,11.38-695.5,11.47l.61-1510.48Z" style="fill: none; stroke: #fbb03c; stroke-miterlimit: 10; stroke-width: 2px;"/>
    <path d="M615.75,313.96l1.4-.12c.11,.89,.47,1.55,1.08,1.96,.61,.42,1.36,.63,2.25,.63,.94,0,1.64-.19,2.1-.57,.46-.38,.69-.83,.69-1.35,0-.53-.22-.94-.65-1.23-.43-.29-1.36-.6-2.79-.92-1.44-.33-2.41-.76-2.91-1.29-.5-.53-.75-1.14-.75-1.84,0-1.02,.38-1.79,1.15-2.32,.77-.53,1.71-.79,2.8-.79,1.39,0,2.44,.32,3.13,.95,.7,.64,1.07,1.44,1.1,2.41l-1.43,.11c-.15-1.44-1.07-2.16-2.74-2.16-1.73,0-2.59,.57-2.59,1.7,0,.45,.18,.81,.54,1.06,.36,.25,1.07,.5,2.15,.74,1.05,.24,1.87,.46,2.43,.68,.57,.22,1.04,.57,1.42,1.04,.38,.48,.57,1.06,.57,1.74,0,1.06-.41,1.89-1.22,2.48-.82,.59-1.79,.89-2.93,.89-1.6,0-2.79-.36-3.58-1.08-.79-.72-1.2-1.63-1.23-2.72Z" style="fill: #fbb03c;"/>
    <path d="M1048.16,936.26l1.4-.12c.11,.89,.47,1.55,1.08,1.96,.61,.42,1.36,.63,2.25,.63,.94,0,1.64-.19,2.1-.57,.46-.38,.69-.83,.69-1.35,0-.53-.22-.94-.65-1.23-.43-.29-1.36-.6-2.79-.92-1.44-.33-2.41-.76-2.91-1.29-.5-.53-.75-1.14-.75-1.84,0-1.02,.38-1.79,1.15-2.32,.77-.53,1.71-.79,2.8-.79,1.39,0,2.44,.32,3.13,.95,.7,.64,1.07,1.44,1.1,2.41l-1.43,.11c-.15-1.44-1.07-2.16-2.74-2.16-1.73,0-2.59,.57-2.59,1.7,0,.45,.18,.81,.54,1.06,.36,.25,1.07,.5,2.15,.74,1.05,.24,1.87,.46,2.43,.68,.57,.22,1.04,.57,1.42,1.04,.38,.48,.57,1.06,.57,1.74,0,1.06-.41,1.89-1.22,2.48-.82,.59-1.79,.89-2.93,.89-1.6,0-2.79-.36-3.58-1.08-.79-.72-1.2-1.63-1.23-2.72Z" style="fill: #fbb03c;"/>
    <path d="M1056.47,1888.66l1.4-.12c.11,.89,.47,1.55,1.08,1.96,.61,.42,1.36,.63,2.25,.63,.94,0,1.64-.19,2.1-.57,.46-.38,.69-.83,.69-1.35,0-.53-.22-.94-.65-1.23-.43-.29-1.36-.6-2.79-.92-1.44-.33-2.41-.76-2.91-1.29-.5-.53-.75-1.14-.75-1.84,0-1.02,.38-1.79,1.15-2.32s1.7-.79,2.8-.79c1.39,0,2.44,.32,3.13,.95,.7,.64,1.07,1.44,1.1,2.41l-1.43,.11c-.15-1.44-1.07-2.16-2.74-2.16-1.73,0-2.59,.57-2.59,1.7,0,.45,.18,.81,.54,1.06,.36,.25,1.07,.5,2.15,.74,1.05,.24,1.87,.46,2.43,.68,.57,.22,1.04,.57,1.42,1.04,.38,.48,.57,1.06,.57,1.74,0,1.06-.41,1.89-1.22,2.48-.82,.59-1.8,.89-2.93,.89-1.6,0-2.79-.36-3.58-1.08-.79-.72-1.2-1.63-1.23-2.72Z" style="fill: #fbb03c;"/>
    <line x1="1070.5" y1="1780.65" x2="1042.18" y2="1780.68" style="fill: none; stroke: #fbb03c; stroke-miterlimit: 10; stroke-width: 2px;"/>
  </g>
  <g id="g" data-name="text-b">
    <g>
      <path d="M436.34,1232.57l3.89-.02c.41,0,.77-.1,1.08-.28,.31-.19,.56-.44,.74-.77,.19-.32,.28-.7,.28-1.11,0-.67-.23-1.23-.7-1.68-.46-.45-1.02-.67-1.69-.67h-1.39v-.88h1.46c.89-.01,1.65,.3,2.27,.93,.62,.63,.93,1.39,.94,2.29,0,.83-.27,1.55-.83,2.15-.56,.6-1.24,.91-2.06,.91l-5.5,.02c-.27,0-.5-.06-.72-.2-.21-.13-.39-.31-.52-.54-.14-.22-.2-.47-.21-.75,0-1.07,.54-1.61,1.62-1.62,.29,0,.56,.07,.79,.2,.23,.14,.42,.31,.55,.53,.13,.22,.2,.47,.2,.75,0,.3-.07,.54-.21,.72Zm-1.32,.05c.46,0,.7-.23,.69-.69,0-.5-.26-.74-.77-.74-.46,0-.7,.23-.69,.69,0,.5,.26,.74,.77,.74Z" style="fill: #231f20;"/>
      <path d="M433.55,1241.8v-.89l6.55-.03c.48,0,.89-.1,1.24-.29,.35-.19,.61-.45,.8-.77,.19-.32,.28-.71,.28-1.15,0-.6-.22-1.12-.65-1.57-.43-.45-.94-.68-1.52-.67h-.1v-.86h.17c.8,0,1.5,.3,2.07,.92,.58,.62,.87,1.35,.87,2.18,0,.89-.27,1.63-.83,2.22-.56,.59-1.28,.89-2.16,.89l-6.72,.03Z" style="fill: #231f20;"/>
      <path d="M433.58,1249.31v-.88l5.14-5.11,.65,.64-4.01,3.95c-.05,.05-.16,.14-.33,.27l-.29,.21-.19,.13,.64-.1,4.44-.02c.19,0,.33,.01,.43,.04,.09,.03,.25,.1,.46,.22-.27-.26-.41-.59-.41-1.01,0-.25,.06-.48,.17-.7,.12-.22,.29-.4,.53-.56,.24-.16,.51-.24,.83-.24,.32,0,.61,.07,.86,.21,.25,.14,.45,.33,.59,.57,.14,.24,.21,.51,.21,.82,0,.39-.15,.74-.45,1.05-.3,.31-.64,.47-1.01,.47l-8.26,.04Zm8.08-.87c.5,0,.74-.25,.74-.75,0-.48-.24-.72-.72-.72-.5,0-.74,.25-.74,.75,0,.48,.24,.72,.72,.72Z" style="fill: #231f20;"/>
      <path d="M443.39,1258.8l-1.54-1.53-.81,1.13-7.42,.03-.02-4.73h.89v1.1l5.26-.02c.3,0,.52,.02,.66,.06,.14,.04,.32,.15,.53,.33,.22,.18,.46,.43,.72,.75,.51-.73,.76-1.44,.76-2.11,0-.77-.18-1.28-.53-1.56,.07,.15,.1,.28,.1,.4,0,.24-.05,.47-.16,.68-.1,.21-.28,.39-.52,.53-.24,.14-.53,.21-.86,.21-.43,0-.79-.16-1.09-.49-.3-.33-.45-.71-.45-1.13,0-.48,.15-.85,.44-1.12,.3-.27,.74-.4,1.32-.41,.72,0,1.33,.28,1.82,.84,.49,.56,.74,1.25,.75,2.07,0,.89-.3,1.78-.93,2.67l1.66,1.67-.6,.63Zm-8.88-1.26l6.12-.03,.62-.87c-.25-.26-.46-.47-.63-.63-.17-.15-.31-.25-.39-.28-.09-.03-.26-.05-.52-.05l-5.2,.02v1.83Zm6.06-4.27c.5,0,.74-.26,.74-.78,0-.49-.25-.74-.75-.73-.51,0-.77,.25-.76,.74,0,.52,.26,.77,.77,.77Z" style="fill: #231f20;"/>
      <path d="M444.79,1258.34c.35-.96,.6-1.86,.74-2.71,.15-.85,.22-1.74,.22-2.67,0-.88-.05-1.65-.13-2.3,.24,0,.53,.07,.87,.23,.33,.15,.62,.34,.86,.55,.24,.22,.44,.47,.6,.77,.16,.29,.28,.62,.36,.98,.08,.36,.12,.76,.13,1.2,0,.61-.1,1.15-.3,1.62-.2,.47-.45,.88-.75,1.23-.3,.34-.64,.61-1.03,.81-.39,.19-.91,.29-1.57,.3Zm.74-.67c.66-.23,1.16-.67,1.53-1.31,.36-.64,.54-1.38,.54-2.23,0-1.17-.47-2.06-1.38-2.66,.07,.14,.14,.41,.23,.81,.08,.41,.13,.9,.13,1.49,0,1.02-.11,1.84-.34,2.47-.23,.63-.47,1.1-.7,1.41Z" style="fill: #231f20;"/>
      <path d="M433.67,1268.48v-.88l6.24-.03c.51,0,.96-.13,1.36-.38,.39-.25,.7-.57,.93-.98,.23-.41,.34-.87,.34-1.39,0-.53-.14-.99-.42-1.38-.28-.4-.65-.71-1.12-.96-.47-.24-1-.36-1.58-.36l-4.44,.02,2.63,2.07c.1,.08,.25,.25,.45,.49l.11,.13c0-.99,.47-1.49,1.43-1.49,.29,0,.55,.07,.79,.21,.24,.14,.43,.33,.58,.56,.15,.23,.22,.49,.22,.78,0,.3-.07,.58-.2,.81-.14,.24-.32,.43-.54,.57-.22,.14-.48,.21-.76,.21-.41,0-.83-.17-1.27-.53l-4.77-3.89v-.84l5.78-.03c1.11,0,2.04,.34,2.81,1.02,.76,.69,1.14,1.56,1.15,2.61,0,.7-.14,1.32-.44,1.86-.3,.54-.7,.96-1.2,1.28-.5,.31-1.09,.47-1.75,.47l-6.31,.03Zm5.89-2.81c.53,0,.79-.27,.79-.82,0-.48-.24-.72-.72-.72-.53,0-.79,.28-.79,.82,0,.48,.24,.72,.72,.72Z" style="fill: #231f20;"/>
      <path d="M433.71,1278.2v-.88c.73,0,1.86-.36,3.36-1.07,1.51-.71,2.48-1.28,2.91-1.73-.75-.69-1.47-1.24-2.16-1.63-.69-.4-1.24-.64-1.65-.72,.31,.24,.46,.54,.46,.91,0,.31-.06,.58-.2,.82-.13,.24-.31,.42-.53,.55s-.48,.2-.78,.2c-.45,0-.82-.15-1.12-.46-.3-.31-.45-.69-.45-1.14,0-.33,.08-.62,.24-.86,.16-.25,.37-.44,.64-.57,.27-.13,.58-.2,.93-.2,.72,0,1.49,.16,2.3,.5,.81,.34,1.84,1.05,3.08,2.15l1.65,1.45c.11,0,.17-.31,.17-.94,0-.56-.14-1.06-.41-1.49s-.64-.78-1.11-1.04c-.47-.26-1-.39-1.6-.39h-.64v-.88h.64c.78,0,1.47,.16,2.05,.48,.59,.33,1.05,.77,1.39,1.34,.34,.57,.51,1.23,.51,1.99,0,.56-.08,1.04-.26,1.42,0,.13,.49,.38,1.47,.74l-.36,.82c-.66-.29-1.18-.56-1.56-.81-.34,.52-.74,.89-1.21,1.1-.47,.21-.96,.32-1.47,.32l-6.31,.03Zm1.45-4.35c.5,0,.74-.24,.74-.72,0-.56-.27-.84-.82-.83-.52,0-.77,.25-.77,.76,0,.54,.29,.8,.85,.8Zm1.09,3.55l3.65-.02c.59,0,1.08-.14,1.46-.41,.38-.27,.6-.51,.67-.73l-1.44-1.19c-.23,.3-.78,.69-1.66,1.16-.88,.48-1.45,.74-1.72,.8l-.96,.38Z" style="fill: #231f20;"/>
      <path d="M447.89,1281.8c-.87-.68-1.59-1.46-2.15-2.36-.56-.9-.85-1.75-.85-2.55,0-.69,.15-1.23,.45-1.62,.3-.39,.71-.59,1.21-.59,.26,0,.51,.06,.73,.17,.23,.11,.42,.29,.57,.51,.15,.23,.23,.49,.23,.8,0,.27-.06,.51-.2,.73-.13,.22-.3,.39-.5,.52-.2,.13-.43,.19-.69,.19-.5,0-.84-.13-1.01-.41,0,.27,.22,.81,.65,1.63,.43,.82,1.14,1.58,2.13,2.29l-.57,.68Zm-1.32-4.96c.48,0,.72-.24,.72-.72,0-.45-.23-.67-.67-.67-.48,0-.72,.24-.72,.72,0,.45,.23,.67,.67,.67Z" style="fill: #231f20;"/>
      <path d="M436.15,1286.3c0-.15-.17-.49-.5-1.01-.33-.52-.66-.95-.99-1.31-.33-.35-.64-.63-.93-.84v-.88l6.74-.03c-.11-.14-.17-.35-.17-.62,0-.29,.05-.54,.16-.76,.11-.22,.28-.42,.52-.58,.24-.16,.53-.25,.88-.25,.27,0,.52,.06,.75,.18,.23,.12,.43,.31,.59,.55,.16,.25,.25,.54,.25,.87,0,.3-.06,.57-.19,.79-.13,.22-.31,.4-.55,.53-.24,.13-.52,.2-.84,.2l-6.87,.03c.59,.61,1.06,1.2,1.39,1.77s.56,1.11,.68,1.61c.12,.5,.18,.85,.18,1.05l6.09-.03v.89l-6.26,.03c-.29,.74-.84,1.11-1.65,1.11-1.2,0-1.8-.59-1.81-1.79,0-.35,.07-.65,.23-.92,.15-.26,.36-.47,.62-.62,.26-.15,.57-.23,.92-.23,.28,0,.53,.08,.75,.25Zm-.74,2.53c.69,0,1.03-.35,1.03-1.04,0-.67-.33-1.01-.99-1-.69,0-1.03,.35-1.03,1.04,0,.67,.33,1.01,.99,1Zm6.5-6.44c.48,0,.72-.24,.72-.72,0-.55-.27-.82-.8-.82-.48,0-.71,.24-.71,.72,0,.54,.27,.81,.79,.81Z" style="fill: #231f20;"/>
      <path d="M433.8,1298.8v-.89l7.22-.03c.99,0,1.49-.41,1.48-1.21v-.14l-8.73-3.13v-.81l6.55-.03s.06,0,.13,.01c.05,0,.11,.01,.16,.01-.18-.19-.27-.42-.27-.69,0-.28,.05-.53,.16-.75,.11-.22,.29-.42,.53-.58,.24-.16,.53-.24,.87-.24,.27,0,.52,.06,.75,.18,.23,.12,.43,.31,.59,.55,.16,.25,.25,.54,.25,.87,0,.46-.15,.83-.44,1.11-.3,.28-.67,.43-1.13,.43l-5.79,.03,.96,.24,1.14,.36,5.16,1.82v.63c0,1.49-.79,2.24-2.41,2.24l-7.18,.03Zm8.16-6.11c.48,0,.72-.25,.72-.75,0-.53-.27-.79-.8-.79-.48,0-.71,.25-.71,.74,0,.54,.27,.8,.79,.8Z" style="fill: #231f20;"/>
      <path d="M433.85,1309.5l-.03-7.68h.89v1.1l5.91-.03c-.13-.16-.2-.4-.2-.74,0-.44,.14-.8,.43-1.09,.29-.29,.66-.43,1.1-.43,.27,0,.52,.06,.75,.18,.23,.12,.43,.31,.59,.56,.17,.25,.25,.54,.25,.88,0,.3-.06,.57-.19,.79-.13,.22-.31,.4-.55,.53-.24,.13-.51,.2-.83,.2l-7.25,.03,.02,4.8,8.71-.04v.88l-9.59,.04Zm8.16-6.49c.48,0,.72-.24,.72-.72,0-.55-.27-.82-.8-.82-.48,0-.71,.24-.71,.72,0,.54,.27,.81,.79,.81Z" style="fill: #231f20;"/>
    </g>
    <path d="M377.23,1222.77c23.86,0,43.2,19.34,43.2,43.2s-19.34,43.2-43.2,43.2" style="fill: none; stroke: #231f20; stroke-miterlimit: 10; stroke-width: 2px;"/>
    <g>
      <path d="M386.09,1337.18v-.89h7.01c.59,0,1.06-.26,1.39-.79s.51-1.18,.51-1.94c0-.93-.25-1.76-.77-2.47-.16,.63-.47,1.27-.92,1.92-.16-.38-.35-.7-.55-.95-.2-.25-.4-.42-.59-.5-.19-.08-.42-.11-.68-.11h-5.4v-.9h5.78c.66,0,1.13,.38,1.39,1.14,.26-.41,.5-1.07,.72-1.99,.53,.34,.96,.89,1.31,1.65,.34,.76,.51,1.5,.51,2.24,0,.75-.11,1.39-.34,1.94-.22,.55-.53,.96-.92,1.24-.39,.28-.86,.42-1.42,.42h-7.05Z" style="fill: #231f20;"/>
      <path d="M386.08,1346.89v-.88c.74,0,1.88-.35,3.4-1.06,1.52-.71,2.51-1.29,2.96-1.74-.27-.29-.78-.68-1.53-1.17-.75-.49-1.47-.84-2.15-1.06,.21,.26,.32,.51,.32,.76,0,.45-.15,.83-.44,1.14-.3,.31-.67,.46-1.12,.46-.45,0-.82-.16-1.11-.47-.3-.31-.44-.69-.44-1.14,0-.48,.17-.87,.52-1.18,.35-.3,.77-.46,1.26-.46,.49,0,.96,.06,1.42,.17s.91,.29,1.36,.52c.45,.23,.98,.58,1.6,1.05,.61,.47,1.12,.93,1.53,1.39-.4,.53-1.16,1.09-2.28,1.69-1.12,.6-2.27,1.05-3.46,1.36l.02,.05,2.6-.31h1.8c.74,0,1.37-.26,1.88-.78,.51-.52,.77-1.17,.77-1.92,0-.56-.13-1.06-.4-1.49-.27-.43-.64-.78-1.1-1.04-.46-.26-1-.4-1.59-.4h-.64v-.89h.64c.78,0,1.46,.17,2.05,.5,.59,.33,1.05,.78,1.38,1.35,.34,.57,.5,1.23,.5,2,0,.49-.08,.95-.24,1.37s-.41,.81-.74,1.16c-.33,.35-.7,.61-1.11,.79-.4,.17-.84,.26-1.32,.26h-6.31Zm1.47-4.39c.48,0,.72-.25,.72-.77s-.26-.77-.79-.77c-.48,0-.72,.25-.72,.74,0,.53,.26,.79,.79,.79Z" style="fill: #231f20;"/>
      <path d="M386.07,1355.23v-.89h6.55c.48,0,.89-.09,1.24-.28,.35-.19,.62-.45,.81-.77,.19-.32,.28-.71,.29-1.15,0-.6-.21-1.12-.64-1.58-.43-.45-.93-.68-1.52-.68h-.1v-.86h.17c.8,0,1.49,.31,2.07,.94,.57,.62,.86,1.35,.86,2.18,0,.89-.28,1.63-.84,2.22-.56,.59-1.28,.88-2.16,.88h-6.72Z" style="fill: #231f20;"/>
      <path d="M386.06,1362.73v-.88l5.17-5.08,.64,.65-4.04,3.93c-.05,.05-.16,.13-.33,.26l-.29,.2-.19,.13,.64-.09h4.44c.19,0,.33,.02,.43,.05,.09,.03,.25,.1,.46,.22-.27-.26-.41-.59-.41-1.01,0-.25,.06-.48,.18-.7,.12-.21,.3-.4,.53-.56,.24-.16,.51-.23,.83-.23,.32,0,.61,.07,.86,.22,.25,.14,.44,.34,.59,.57,.14,.24,.21,.51,.21,.82,0,.39-.15,.74-.45,1.05-.3,.31-.64,.46-1.01,.46h-8.26Zm8.09-.84c.5,0,.74-.25,.74-.74,0-.48-.24-.72-.72-.72-.5,0-.74,.25-.75,.74,0,.48,.24,.72,.72,.72Z" style="fill: #231f20;"/>
      <path d="M392.8,1372.63l-.24,.41h-6.5v-.9h6.12l-6.11-4.51v-.79h6.77c-.13-.14-.19-.37-.19-.69,0-.46,.15-.84,.46-1.13,.3-.29,.67-.44,1.11-.44,.27,0,.52,.06,.75,.18,.23,.12,.43,.31,.59,.56s.24,.54,.24,.87c0,.99-.55,1.49-1.64,1.49h-6.57l.33,.23,4.8,3.61c.39-.8,.91-1.2,1.56-1.2,.43,0,.78,.15,1.07,.45,.29,.3,.44,.66,.44,1.09,0,.45-.14,.82-.42,1.12-.28,.29-.64,.44-1.09,.44-.48,0-.97-.26-1.46-.79Zm1.47-.05c.46,0,.7-.24,.7-.72,0-.12-.03-.24-.1-.34-.07-.1-.15-.19-.26-.26s-.22-.1-.34-.1c-.35,0-.68,.27-.98,.81,.36,.4,.68,.6,.98,.6Zm-.02-5.62c.48,0,.72-.24,.72-.71,0-.55-.26-.82-.8-.82-.48,0-.72,.24-.72,.72,0,.54,.26,.81,.79,.81Z" style="fill: #231f20;"/>
      <path d="M386.05,1382.75v-.88c.74,0,1.88-.35,3.4-1.06,1.52-.71,2.51-1.29,2.96-1.74-.27-.29-.78-.68-1.53-1.17-.75-.49-1.47-.84-2.15-1.06,.21,.26,.32,.51,.32,.76,0,.45-.15,.83-.44,1.14-.3,.31-.67,.46-1.12,.46-.45,0-.82-.16-1.11-.47-.3-.31-.44-.69-.44-1.14,0-.48,.17-.87,.52-1.18,.35-.3,.77-.46,1.26-.46,.49,0,.96,.06,1.41,.17,.45,.11,.91,.29,1.36,.52,.45,.23,.98,.58,1.6,1.05,.61,.47,1.12,.93,1.53,1.39-.4,.53-1.16,1.09-2.28,1.69-1.12,.6-2.27,1.05-3.46,1.36l.02,.05,2.6-.31h1.8c.74,0,1.37-.26,1.88-.78,.51-.52,.77-1.17,.77-1.92,0-.56-.13-1.06-.4-1.49-.27-.43-.64-.78-1.1-1.04-.46-.26-1-.4-1.59-.4h-.64v-.89h.65c.78,0,1.46,.17,2.05,.5,.59,.33,1.05,.78,1.38,1.35,.34,.57,.5,1.23,.5,2,0,.49-.08,.95-.24,1.37-.16,.42-.41,.81-.74,1.16-.33,.35-.7,.61-1.1,.79-.4,.17-.85,.26-1.32,.26h-6.31Zm1.47-4.39c.48,0,.72-.25,.72-.77,0-.51-.26-.77-.79-.77-.48,0-.72,.25-.72,.74,0,.53,.26,.79,.79,.79Z" style="fill: #231f20;"/>
      <path d="M400.2,1386.42c-.87-.68-1.58-1.47-2.14-2.37s-.84-1.75-.84-2.55c0-.69,.15-1.23,.46-1.62,.31-.39,.71-.58,1.21-.58,.26,0,.51,.06,.73,.17,.23,.12,.41,.29,.56,.52,.15,.23,.23,.5,.22,.8,0,.27-.07,.51-.2,.73-.13,.22-.3,.39-.51,.52-.21,.13-.44,.19-.69,.19-.5,0-.84-.14-1.01-.41,0,.27,.21,.82,.64,1.64,.43,.82,1.13,1.59,2.12,2.3l-.57,.67Zm-1.3-4.97c.48,0,.72-.24,.72-.72,0-.45-.22-.67-.67-.67-.48,0-.72,.24-.72,.72,0,.45,.22,.67,.67,.67Z" style="fill: #231f20;"/>
      <path d="M386.04,1390.26v-.88l5.17-5.08,.64,.65-4.04,3.93c-.05,.05-.16,.13-.33,.26l-.29,.2-.19,.13,.64-.09h4.44c.19,0,.33,.02,.43,.05,.09,.03,.25,.1,.46,.22-.27-.26-.41-.59-.41-1.01,0-.25,.06-.48,.18-.7,.12-.21,.3-.4,.53-.56,.24-.16,.51-.23,.83-.23,.32,0,.61,.07,.86,.22,.25,.14,.45,.34,.59,.57,.14,.24,.21,.51,.21,.82,0,.39-.15,.74-.46,1.05-.3,.31-.64,.46-1.01,.46h-8.26Zm8.09-.84c.5,0,.74-.25,.75-.74,0-.48-.24-.72-.72-.72-.5,0-.74,.25-.74,.74,0,.48,.24,.72,.72,.72Z" style="fill: #231f20;"/>
    </g>
    <g>
      <line x1="539.38" y1="981.91" x2="539.38" y2="1624.47" style="fill: none; stroke: #010101; stroke-miterlimit: 10; stroke-width: 2px;"/>
      <path d="M529.78,995.58c.46,.3,1.08,.16,1.38-.31l8.22-12.91,8.22,12.91c.3,.47,.92,.6,1.38,.31,.46-.3,.6-.92,.31-1.38l-9.06-14.23c-.18-.29-.5-.46-.84-.46s-.66,.17-.84,.46l-9.06,14.23c-.11,.17-.16,.35-.16,.54,0,.33,.16,.65,.46,.84Z" style="fill: #010101;"/>
      <path d="M529.78,1610.8c.46-.3,1.08-.16,1.38,.31l8.22,12.91,8.22-12.91c.3-.47,.92-.6,1.38-.31,.46,.3,.6,.92,.31,1.38l-9.06,14.23c-.18,.29-.5,.46-.84,.46s-.66-.17-.84-.46l-9.06-14.23c-.11-.17-.16-.35-.16-.54,0-.33,.16-.65,.46-.84Z" style="fill: #010101;"/>
    </g>
    <g>
      <path d="M573.92,1262.77h-.88v-6.24c0-.51-.11-.96-.34-1.35-.23-.39-.54-.71-.95-.95-.4-.24-.86-.37-1.38-.37s-.95,.11-1.36,.33-.76,.57-1.07,1.06c-.3,.49-.45,1.07-.45,1.75v3.79l.5-1.58,.72-2.45c.3-1.02,.87-1.54,1.71-1.54,.43,0,.8,.15,1.1,.46,.3,.31,.45,.68,.45,1.12s-.15,.84-.46,1.14-.69,.45-1.15,.45c-.59,0-.97-.19-1.15-.58l-.12,.39-1.51,4.56h-.91v-5.78c0-1.12,.34-2.06,1.03-2.81s1.56-1.12,2.62-1.12c.66,0,1.25,.13,1.79,.39,.54,.26,.97,.65,1.31,1.16,.34,.52,.5,1.14,.5,1.86v6.31Zm-2.78-5.91c0-.53-.27-.79-.81-.79-.48,0-.72,.24-.72,.72,0,.53,.27,.79,.81,.79,.48,0,.72-.24,.72-.72Z" style="fill: #231f20;"/>
      <path d="M581.37,1259.94v-3.89c0-.41-.09-.77-.28-1.08-.19-.31-.44-.56-.76-.75s-.7-.28-1.11-.28c-.67,0-1.23,.23-1.68,.69s-.68,1.02-.68,1.68v1.39h-.88v-1.46c0-.89,.31-1.65,.94-2.27s1.39-.93,2.3-.93c.83,0,1.55,.28,2.15,.84,.6,.56,.9,1.25,.9,2.07v5.5c0,.27-.07,.5-.2,.71-.13,.21-.31,.38-.54,.52-.22,.13-.47,.2-.75,.2-1.07,0-1.61-.54-1.61-1.63,0-.29,.07-.56,.2-.79,.14-.23,.31-.42,.53-.55,.22-.13,.47-.2,.75-.2,.3,0,.54,.07,.72,.22Zm.05,1.32c0-.46-.23-.7-.69-.7-.5,0-.74,.26-.74,.77,0,.46,.23,.7,.69,.7,.5,0,.74-.26,.74-.77Z" style="fill: #231f20;"/>
      <path d="M590.58,1262.77h-.89v-6.55c0-.48-.1-.89-.29-1.24-.19-.35-.45-.62-.77-.81-.32-.19-.71-.28-1.15-.28-.6,0-1.12,.21-1.58,.64-.45,.43-.68,.93-.68,1.52v.1h-.86v-.17c0-.8,.31-1.49,.93-2.07,.62-.57,1.35-.86,2.18-.86,.89,0,1.63,.28,2.22,.84s.88,1.28,.88,2.16v6.72Z" style="fill: #231f20;"/>
      <path d="M600.99,1262.77h-.88c0-.08-.13-.25-.39-.51s-.58-.55-.97-.86c-.39-.31-.86-.61-1.42-.91-.56-.3-1.05-.46-1.47-.49v1.8c0,.72-.35,1.08-1.06,1.08-.36,0-.68-.09-.96-.26-.29-.18-.52-.41-.69-.69-.18-.29-.26-.61-.26-.96,0-.59,.19-1.06,.57-1.39,.38-.34,.89-.5,1.54-.5v-3.07c-.08,.13-.31,.19-.68,.19-.48,0-.86-.15-1.15-.45-.29-.3-.43-.67-.43-1.11s.16-.83,.47-1.13c.31-.3,.69-.45,1.14-.45s.82,.15,1.11,.44c.29,.29,.43,.67,.43,1.14v4.52c.53,0,1.25,.25,2.16,.75,.91,.5,1.6,1.06,2.07,1.67v-8.4h.88v9.6Zm-5.88-8.19c0-.48-.25-.72-.74-.72-.54,0-.8,.27-.8,.8,0,.48,.25,.71,.74,.71,.54,0,.8-.26,.8-.79Zm-.1,6.87v-1.49c-.83,0-1.25,.34-1.25,1.01,0,.26,.1,.51,.31,.74,.2,.23,.44,.34,.7,.34,.16,0,.24-.2,.24-.6Z" style="fill: #231f20;"/>
      <path d="M610.57,1262.77h-6.41v-3.26c0-.82,.22-1.33,.67-1.51-1.09-.36-1.63-1.13-1.63-2.3,0-.31,.05-.6,.14-.88,.09-.28,.24-.56,.45-.84,.21-.28,.47-.51,.78-.67,.31-.17,.65-.25,1.04-.25,.52,0,.93,.15,1.24,.44,.31,.29,.46,.67,.46,1.14,0,.3-.07,.57-.2,.81s-.31,.42-.54,.55c-.22,.13-.48,.2-.77,.2-.96,0-1.44-.45-1.44-1.35,0-.04,0-.14,.02-.29-.21,.21-.31,.56-.31,1.07s.17,.95,.51,1.32c.34,.36,.75,.54,1.24,.54h1.39v.84h-1.25c-.61,0-.91,.35-.91,1.05v2.5h4.63v-8.71h.89v9.6Zm-4.11-8.11c0-.53-.27-.8-.8-.8-.49,0-.74,.24-.74,.72,0,.53,.27,.79,.8,.79,.49,0,.73-.24,.73-.71Z" style="fill: #231f20;"/>
      <path d="M618.92,1262.77h-.89v-6.55c0-.48-.1-.89-.29-1.24-.19-.35-.45-.62-.77-.81-.32-.19-.71-.28-1.15-.28-.6,0-1.12,.21-1.58,.64-.45,.43-.68,.93-.68,1.52v.1h-.86v-.17c0-.8,.31-1.49,.93-2.07,.62-.57,1.35-.86,2.18-.86,.89,0,1.63,.28,2.22,.84s.88,1.28,.88,2.16v6.72Z" style="fill: #231f20;"/>
      <path d="M626.36,1259.94v-3.89c0-.41-.09-.77-.28-1.08-.19-.31-.44-.56-.76-.75s-.7-.28-1.11-.28c-.67,0-1.23,.23-1.68,.69-.45,.46-.68,1.02-.68,1.68v1.39h-.88v-1.46c0-.89,.31-1.65,.94-2.27s1.39-.93,2.3-.93c.83,0,1.55,.28,2.15,.84s.9,1.25,.9,2.07v5.5c0,.27-.07,.5-.2,.71-.13,.21-.31,.38-.54,.52-.22,.13-.47,.2-.75,.2-1.07,0-1.61-.54-1.61-1.63,0-.29,.07-.56,.21-.79s.31-.42,.53-.55c.22-.13,.47-.2,.75-.2,.3,0,.54,.07,.72,.22Zm.05,1.32c0-.46-.23-.7-.69-.7-.5,0-.74,.26-.74,.77,0,.46,.23,.7,.69,.7,.5,0,.74-.26,.74-.77Z" style="fill: #231f20;"/>
      <path d="M635.48,1256.24h-.84v-.19c0-.42-.09-.8-.28-1.12s-.44-.59-.75-.78c-.31-.19-.67-.28-1.08-.28-1.3,0-2.03,.62-2.19,1.88,.3-.1,.52-.15,.67-.15h2.62v5.86c0,.39-.15,.73-.45,1.01-.3,.28-.65,.42-1.04,.42-1.09,0-1.63-.54-1.63-1.63,0-.29,.07-.55,.2-.79,.13-.23,.31-.41,.54-.55,.22-.13,.48-.2,.78-.2,.27,0,.5,.07,.71,.22v-3.5h-3.21v-.48c0-.82,.29-1.51,.87-2.07,.58-.56,1.29-.84,2.13-.84,.57,0,1.08,.13,1.52,.38,.44,.25,.79,.59,1.04,1,.26,.42,.38,.9,.38,1.45v.36Zm-2.68,5.04c0-.48-.24-.72-.72-.72s-.74,.25-.74,.74,.24,.72,.72,.72,.74-.25,.74-.74Z" style="fill: #231f20;"/>
      <path d="M643.88,1253.67c-.45,.91-1.08,1.63-1.87,2.17s-1.63,.81-2.52,.81c-.52,0-.98-.09-1.41-.28-.42-.19-.74-.42-.95-.7-.21-.28-.31-.6-.31-.96,0-.29,.07-.55,.21-.78,.14-.22,.33-.41,.57-.55,.24-.14,.52-.21,.83-.21,.44,0,.8,.14,1.08,.43s.41,.65,.41,1.09c0,.68-.3,1.11-.91,1.27,.63,0,1.22-.13,1.76-.38s1-.58,1.39-.98c.38-.4,.7-.87,.95-1.42l.77,.5Zm0,6.12c-.45,.91-1.08,1.63-1.87,2.17s-1.63,.81-2.52,.81c-.51,0-.98-.09-1.4-.28s-.74-.42-.95-.69-.32-.6-.32-.97c0-.26,.06-.5,.18-.72,.12-.22,.3-.41,.55-.57,.25-.16,.54-.24,.87-.24,.3,0,.55,.06,.77,.19,.22,.13,.39,.31,.52,.53,.13,.23,.19,.49,.19,.79,0,.68-.3,1.11-.91,1.27,.86,0,1.66-.24,2.4-.73,.73-.49,1.3-1.17,1.7-2.05l.77,.5Zm-4.71-5.02c0-.53-.27-.79-.81-.79-.48,0-.73,.24-.73,.72,0,.53,.27,.79,.8,.79,.49,0,.73-.24,.73-.72Zm0,6.12c0-.53-.27-.79-.81-.79-.48,0-.73,.24-.73,.72,0,.53,.27,.79,.8,.79,.49,0,.73-.24,.73-.72Z" style="fill: #231f20;"/>
      <path d="M653.09,1262.77h-.88v-6.24c0-.51-.12-.96-.37-1.36-.25-.39-.57-.71-.98-.94-.4-.23-.87-.35-1.39-.35s-.99,.14-1.39,.41c-.4,.27-.72,.64-.96,1.11-.24,.47-.37,.99-.37,1.58v4.44l2.09-2.62c.08-.1,.25-.25,.49-.45l.13-.11c-.99,0-1.49-.48-1.49-1.44,0-.29,.07-.55,.22-.79,.14-.24,.33-.43,.57-.57,.23-.14,.49-.22,.78-.22,.3,0,.58,.07,.81,.21,.24,.14,.43,.32,.57,.55,.14,.22,.21,.48,.21,.76,0,.41-.18,.83-.53,1.27l-3.91,4.75h-.84v-5.78c0-1.11,.34-2.04,1.03-2.8,.69-.76,1.56-1.14,2.62-1.14,.7,0,1.32,.15,1.86,.45,.54,.3,.96,.7,1.27,1.21,.31,.51,.47,1.09,.47,1.75v6.31Zm-2.78-5.91c0-.53-.27-.79-.81-.79-.48,0-.72,.24-.72,.72,0,.53,.27,.79,.81,.79,.48,0,.72-.24,.72-.72Z" style="fill: #231f20;"/>
      <path d="M656.7,1248.6c-.68,.87-1.47,1.58-2.37,2.14-.9,.56-1.75,.84-2.55,.84-.69,0-1.23-.15-1.62-.46-.39-.31-.59-.71-.59-1.21,0-.26,.06-.51,.17-.73,.12-.23,.29-.41,.52-.57,.23-.15,.5-.23,.8-.23,.27,0,.51,.07,.73,.2,.22,.13,.39,.3,.52,.51,.13,.21,.19,.43,.19,.69,0,.5-.14,.84-.41,1.01,.27,0,.82-.21,1.64-.64,.82-.43,1.59-1.13,2.3-2.12l.67,.57Zm-4.97,1.3c0-.48-.24-.72-.72-.72-.45,0-.67,.22-.67,.67,0,.48,.24,.72,.72,.72,.45,0,.67-.22,.67-.67Z" style="fill: #231f20;"/>
      <path d="M663.8,1262.77h-7.68v-.89h1.1v-5.9c-.16,.13-.4,.19-.74,.19-.44,0-.8-.15-1.08-.44-.29-.29-.43-.66-.43-1.1,0-.27,.06-.52,.18-.75,.12-.23,.31-.42,.56-.59,.25-.16,.55-.25,.88-.25,.3,0,.57,.07,.79,.2,.22,.13,.4,.31,.53,.55,.13,.24,.2,.51,.2,.83v7.25h4.8v-8.71h.88v9.6Zm-6.46-8.19c0-.48-.24-.72-.71-.72-.55,0-.82,.27-.82,.8,0,.48,.24,.71,.72,.71,.54,0,.81-.26,.81-.79Z" style="fill: #231f20;"/>
      <path d="M673.52,1262.77h-.88c0-.74-.35-1.86-1.05-3.37s-1.27-2.48-1.71-2.92c-.7,.75-1.24,1.47-1.64,2.15-.4,.69-.64,1.23-.73,1.64,.24-.3,.54-.46,.91-.46,.31,0,.58,.07,.81,.2,.23,.13,.42,.31,.55,.53s.2,.48,.2,.78c0,.45-.16,.82-.47,1.11-.31,.3-.69,.45-1.14,.45-.33,0-.62-.08-.86-.24-.25-.16-.44-.38-.57-.65-.13-.27-.2-.58-.2-.93,0-.72,.17-1.49,.51-2.3,.34-.81,1.06-1.83,2.17-3.07l1.45-1.64c0-.11-.31-.17-.94-.17-.56,0-1.06,.13-1.49,.4-.43,.27-.78,.64-1.04,1.1-.26,.46-.4,1-.4,1.59v.64h-.88v-.64c0-.78,.17-1.46,.5-2.05,.33-.59,.78-1.05,1.35-1.38s1.23-.5,2-.5c.56,0,1.04,.09,1.42,.26,.13,0,.38-.49,.74-1.46l.81,.36c-.29,.66-.56,1.18-.81,1.56,.52,.34,.88,.75,1.1,1.22,.21,.47,.32,.96,.32,1.47v6.31Zm-4.34-1.46c0-.5-.24-.74-.72-.74-.56,0-.84,.27-.84,.81s.25,.77,.76,.77c.54,0,.8-.28,.8-.84Zm3.55-1.08v-3.65c0-.59-.13-1.08-.4-1.46-.27-.38-.51-.6-.72-.67l-1.2,1.44c.3,.23,.68,.79,1.15,1.66,.47,.88,.74,1.45,.79,1.72l.38,.96Z" style="fill: #231f20;"/>
      <path d="M682.93,1253.67c-.45,.91-1.08,1.63-1.87,2.17s-1.63,.81-2.52,.81c-.52,0-.98-.09-1.41-.28-.42-.19-.74-.42-.95-.7-.21-.28-.31-.6-.31-.96,0-.29,.07-.55,.21-.78s.33-.41,.57-.55c.24-.14,.52-.21,.83-.21,.44,0,.8,.14,1.08,.43s.41,.65,.41,1.09c0,.68-.3,1.11-.91,1.27,.63,0,1.22-.13,1.76-.38s1-.58,1.39-.98c.38-.4,.7-.87,.95-1.42l.77,.5Zm0,6.12c-.45,.91-1.08,1.63-1.87,2.17s-1.63,.81-2.52,.81c-.51,0-.98-.09-1.4-.28-.42-.19-.74-.42-.95-.69s-.32-.6-.32-.97c0-.26,.06-.5,.18-.72,.12-.22,.3-.41,.55-.57,.25-.16,.54-.24,.87-.24,.3,0,.55,.06,.77,.19,.22,.13,.39,.31,.52,.53,.13,.23,.19,.49,.19,.79,0,.68-.3,1.11-.91,1.27,.86,0,1.66-.24,2.4-.73,.73-.49,1.3-1.17,1.71-2.05l.77,.5Zm-4.71-5.02c0-.53-.27-.79-.81-.79-.48,0-.73,.24-.73,.72,0,.53,.27,.79,.8,.79,.49,0,.73-.24,.73-.72Zm0,6.12c0-.53-.27-.79-.81-.79-.48,0-.73,.24-.73,.72,0,.53,.27,.79,.8,.79,.49,0,.73-.24,.73-.72Z" style="fill: #231f20;"/>
      <path d="M689.35,1250.53h-.86c0-.68-.19-1.24-.56-1.67s-.88-.65-1.5-.65c-.5,0-.93,.17-1.29,.51-.36,.34-.58,.7-.66,1.08l2.57,1.53v8.64c.2-.14,.44-.22,.73-.22,.45,0,.8,.15,1.06,.44,.26,.29,.4,.67,.4,1.15,0,.29-.06,.56-.18,.79-.12,.23-.3,.42-.53,.56-.24,.14-.53,.21-.87,.21-.95,0-1.42-.53-1.42-1.58v-9.57l-2.71-1.61c.38-1.82,1.36-2.74,2.93-2.74,.58,0,1.09,.12,1.51,.37,.43,.24,.77,.58,1.01,1.01,.25,.43,.37,.93,.37,1.51v.26Zm-.88,10.85c0-.53-.25-.79-.75-.79s-.76,.25-.76,.74c0,.53,.24,.79,.72,.79,.53,0,.79-.25,.79-.74Z" style="fill: #231f20;"/>
      <path d="M699.07,1262.77h-.89l-2.35-7.37-.29-1.25-.26,1.25-2.38,7.37h-.88v-6.79c-.18,.14-.42,.22-.72,.22-.42,0-.78-.15-1.06-.46-.29-.31-.43-.68-.43-1.1,0-.27,.06-.52,.18-.75s.31-.43,.56-.59c.25-.16,.54-.24,.87-.24,.46,0,.82,.15,1.09,.44,.27,.29,.4,.67,.4,1.14v5.57l.48-1.58,1.75-5.44h.84l1.92,5.89,.29,1.21v-7.1h.89v9.6Zm-6.89-8.19c0-.48-.24-.72-.71-.72-.55,0-.83,.27-.83,.8,0,.48,.24,.71,.71,.71,.55,0,.82-.26,.82-.79Z" style="fill: #231f20;"/>
      <path d="M708.67,1262.77h-.89v-7.01c0-.59-.26-1.06-.79-1.39-.53-.34-1.18-.5-1.94-.5-.93,0-1.76,.26-2.47,.77,.63,.16,1.27,.47,1.92,.91-.38,.16-.7,.35-.95,.55-.25,.2-.42,.4-.5,.59-.08,.19-.11,.42-.11,.68v5.4h-.89v-5.78c0-.66,.38-1.13,1.13-1.39-.41-.26-1.07-.5-1.99-.72,.34-.53,.89-.96,1.65-1.31,.76-.34,1.5-.52,2.24-.52s1.39,.11,1.94,.33c.55,.22,.96,.53,1.24,.92,.28,.39,.42,.86,.42,1.41v7.05Z" style="fill: #231f20;"/>
      <path d="M719.37,1262.77h-7.68v-.89h1.1v-5.9c-.16,.13-.4,.19-.74,.19-.44,0-.8-.15-1.08-.44-.29-.29-.43-.66-.43-1.1,0-.27,.06-.52,.18-.75,.12-.23,.31-.42,.56-.59,.25-.16,.55-.25,.88-.25,.3,0,.57,.07,.79,.2,.22,.13,.4,.31,.53,.55,.13,.24,.2,.51,.2,.83v7.25h4.8v-8.71h.88v9.6Zm-6.46-8.19c0-.48-.24-.72-.71-.72-.55,0-.82,.27-.82,.8,0,.48,.24,.71,.72,.71,.54,0,.81-.26,.81-.79Z" style="fill: #231f20;"/>
      <path d="M727.48,1260.36c-.15,0-.49,.16-1.01,.49-.52,.33-.96,.66-1.31,.99s-.64,.64-.85,.93h-.88v-6.74c-.14,.11-.35,.17-.62,.17-.29,0-.54-.05-.76-.16-.22-.11-.42-.28-.58-.52-.16-.24-.25-.53-.25-.88,0-.27,.06-.52,.18-.75s.31-.43,.56-.59c.25-.16,.54-.24,.87-.24,.3,0,.57,.06,.79,.19,.22,.13,.4,.31,.53,.55s.19,.52,.19,.84v6.87c.61-.59,1.2-1.05,1.78-1.38,.58-.33,1.11-.55,1.61-.67,.5-.12,.85-.18,1.05-.18v-6.09h.89v6.26c.73,.3,1.1,.85,1.1,1.65,0,1.2-.6,1.8-1.8,1.8-.35,0-.65-.08-.91-.23-.26-.15-.47-.36-.62-.62-.15-.26-.22-.57-.22-.92,0-.28,.09-.53,.26-.75Zm-3.88-5.78c0-.48-.24-.72-.71-.72-.55,0-.82,.27-.82,.8,0,.48,.24,.71,.72,.71,.54,0,.81-.26,.81-.79Zm6.41,6.53c0-.69-.34-1.03-1.03-1.03s-1.01,.33-1.01,.98,.34,1.03,1.03,1.03,1.01-.33,1.01-.98Z" style="fill: #231f20;"/>
      <path d="M743.76,1262.77h-.81l-2.61-3.19-2.62,3.19h-.84v-8.14c0-.31,.07-.58,.2-.82,.14-.24,.32-.42,.54-.56,.22-.13,.49-.2,.79-.2,.45,0,.82,.15,1.14,.46s.47,.68,.47,1.12c0,.31-.07,.58-.2,.81-.13,.23-.31,.42-.53,.55-.22,.13-.48,.2-.78,.2s-.55-.09-.74-.26v5.42l2.19-2.68h.77l2.16,2.61v-8.11h.88v9.6Zm-4.58-8.11c0-.53-.27-.8-.81-.8-.48,0-.72,.24-.72,.72,0,.53,.25,.79,.76,.79s.77-.24,.77-.71Z" style="fill: #231f20;"/>
      <path d="M743.86,1251.66h-.91v-3.36h.91v3.36Z" style="fill: #231f20;"/>
      <path d="M752.09,1262.77h-.89v-6.55c0-.48-.1-.89-.29-1.24-.19-.35-.45-.62-.77-.81-.32-.19-.71-.28-1.15-.28-.6,0-1.12,.21-1.58,.64-.45,.43-.68,.93-.68,1.52v.1h-.86v-.17c0-.8,.31-1.49,.93-2.07,.62-.57,1.35-.86,2.18-.86,.89,0,1.63,.28,2.22,.84s.88,1.28,.88,2.16v6.72Z" style="fill: #231f20;"/>
      <path d="M761.97,1256.02l.41,.24v6.5h-.89v-6.12l-4.51,6.12h-.79v-6.77c-.14,.13-.38,.19-.69,.19-.46,0-.84-.15-1.13-.45-.29-.3-.44-.67-.44-1.11,0-.27,.06-.52,.18-.75s.31-.43,.56-.59c.25-.16,.54-.24,.87-.24,.99,0,1.49,.54,1.49,1.63v6.57l.24-.33,3.6-4.8c-.8-.39-1.2-.91-1.2-1.56,0-.43,.15-.78,.45-1.08,.3-.29,.66-.44,1.09-.44,.45,0,.82,.14,1.12,.42,.29,.28,.44,.64,.44,1.09,0,.48-.26,.97-.79,1.46Zm-5.67-1.44c0-.48-.24-.72-.71-.72-.55,0-.82,.27-.82,.8,0,.48,.24,.71,.72,.71,.54,0,.81-.26,.81-.79Zm5.62-.02c0-.46-.24-.7-.72-.7-.12,0-.24,.03-.34,.1-.1,.07-.19,.15-.25,.26-.07,.11-.1,.22-.1,.34,0,.35,.27,.68,.81,.98,.4-.36,.6-.68,.6-.98Z" style="fill: #231f20;"/>
      <path d="M770.49,1260.36c-.15,0-.49,.16-1.01,.49-.52,.33-.96,.66-1.31,.99s-.64,.64-.85,.93h-.88v-6.74c-.14,.11-.35,.17-.62,.17-.29,0-.54-.05-.76-.16-.22-.11-.42-.28-.58-.52-.16-.24-.25-.53-.25-.88,0-.27,.06-.52,.18-.75s.31-.43,.56-.59c.25-.16,.54-.24,.87-.24,.3,0,.57,.06,.79,.19,.22,.13,.4,.31,.53,.55s.19,.52,.19,.84v6.87c.61-.59,1.2-1.05,1.78-1.38s1.11-.55,1.61-.67c.5-.12,.85-.18,1.05-.18v-6.09h.89v6.26c.73,.3,1.1,.85,1.1,1.65,0,1.2-.6,1.8-1.8,1.8-.35,0-.65-.08-.91-.23s-.47-.36-.62-.62c-.15-.26-.22-.57-.22-.92,0-.28,.09-.53,.26-.75Zm-3.88-5.78c0-.48-.24-.72-.71-.72-.55,0-.82,.27-.82,.8,0,.48,.24,.71,.72,.71,.54,0,.81-.26,.81-.79Zm6.41,6.53c0-.69-.34-1.03-1.03-1.03s-1.01,.33-1.01,.98,.34,1.03,1.03,1.03,1.01-.33,1.01-.98Z" style="fill: #231f20;"/>
      <path d="M775.08,1248.32c-.4,1.24-1.05,2.14-1.94,2.7-.89,.55-1.9,.83-3.03,.83-.42,0-.78-.03-1.08-.09l-.05-.55c.78-.35,1.39-.89,1.82-1.63-.14,.16-.38,.24-.7,.24-.27,0-.5-.06-.69-.18s-.35-.29-.47-.5c-.12-.21-.18-.46-.18-.74,0-.39,.13-.71,.4-.97s.6-.39,.99-.39c.3,0,.56,.07,.79,.22,.22,.14,.4,.34,.53,.6,.13,.25,.2,.54,.2,.87,0,1.09-.5,1.92-1.51,2.47,.93,0,1.78-.29,2.53-.86s1.28-1.34,1.58-2.31l.81,.31Zm-4.2,.15c0-.46-.23-.7-.7-.7s-.67,.22-.67,.67,.23,.69,.7,.69,.67-.22,.67-.67Z" style="fill: #231f20;"/>
      <path d="M781.01,1262.77h-.89v-6.55c0-.48-.1-.89-.29-1.24-.19-.35-.45-.62-.77-.81-.32-.19-.71-.28-1.15-.28-.6,0-1.12,.21-1.58,.64-.45,.43-.68,.93-.68,1.52v.1h-.86v-.17c0-.8,.31-1.49,.93-2.07,.62-.57,1.35-.86,2.18-.86,.89,0,1.63,.28,2.22,.84s.88,1.28,.88,2.16v6.72Z" style="fill: #231f20;"/>
      <path d="M788.42,1253.17h.88v6.81c.25-.14,.51-.22,.77-.22s.49,.06,.71,.17c.21,.11,.4,.29,.55,.53,.15,.24,.23,.53,.23,.86,0,.45-.16,.82-.47,1.11-.31,.3-.69,.45-1.14,.45s-.82-.15-1.1-.44c-.29-.29-.43-.67-.43-1.12v-8.16Zm2.3,8.16c0-.5-.24-.74-.73-.74-.52,0-.78,.26-.78,.77s.25,.74,.74,.74,.77-.26,.77-.77Z" style="fill: #231f20;"/>
      <path d="M799.94,1262.77h-.88c0-.74-.35-1.86-1.05-3.37s-1.27-2.48-1.71-2.92c-.7,.75-1.24,1.47-1.64,2.15-.4,.69-.64,1.23-.73,1.64,.24-.3,.54-.46,.91-.46,.31,0,.58,.07,.81,.2,.23,.13,.42,.31,.55,.53s.2,.48,.2,.78c0,.45-.16,.82-.47,1.11-.31,.3-.69,.45-1.14,.45-.33,0-.62-.08-.86-.24-.25-.16-.44-.38-.57-.65s-.2-.58-.2-.93c0-.72,.17-1.49,.51-2.3,.34-.81,1.06-1.83,2.17-3.07l1.45-1.64c0-.11-.31-.17-.94-.17-.56,0-1.06,.13-1.49,.4-.43,.27-.78,.64-1.04,1.1-.26,.46-.4,1-.4,1.59v.64h-.88v-.64c0-.78,.17-1.46,.5-2.05s.78-1.05,1.35-1.38c.57-.34,1.23-.5,2-.5,.56,0,1.04,.09,1.42,.26,.13,0,.38-.49,.74-1.46l.81,.36c-.29,.66-.56,1.18-.81,1.56,.52,.34,.88,.75,1.1,1.22s.32,.96,.32,1.47v6.31Zm-4.34-1.46c0-.5-.24-.74-.72-.74-.56,0-.84,.27-.84,.81s.25,.77,.76,.77c.54,0,.8-.28,.8-.84Zm3.55-1.08v-3.65c0-.59-.13-1.08-.4-1.46-.27-.38-.51-.6-.72-.67l-1.2,1.44c.3,.23,.68,.79,1.15,1.66,.47,.88,.74,1.45,.79,1.72l.38,.96Z" style="fill: #231f20;"/>
      <path d="M799.94,1251.6c-.96-.35-1.86-.6-2.71-.76-.85-.15-1.74-.23-2.67-.23-.88,0-1.65,.04-2.3,.12,0-.32,.13-.71,.39-1.17,.26-.46,.68-.85,1.25-1.17,.57-.31,1.2-.47,1.89-.47,.61,0,1.11,.07,1.51,.22v-1.81h.84v2.19c.07,0,.26,.14,.58,.42,.31,.28,.5,.5,.55,.65-.11-.51-.16-.85-.16-1.03v-2.23h.84v5.26Zm-.67-.74c-.23-.66-.66-1.17-1.3-1.54s-1.38-.55-2.22-.55c-1.17,0-2.06,.46-2.67,1.37,.14-.07,.41-.14,.81-.22,.41-.08,.9-.12,1.49-.12,1.02,0,1.84,.12,2.47,.35,.63,.23,1.1,.47,1.41,.71Z" style="fill: #231f20;"/>
      <path d="M802.51,1242.51c-.39,1.14-1,1.95-1.82,2.44s-1.74,.73-2.77,.73c-.31,0-.59-.03-.84-.08l-.05-.5c.73-.36,1.27-.86,1.63-1.51-.13,.18-.33,.26-.6,.26-.37,0-.66-.12-.89-.37-.22-.25-.34-.56-.34-.92,0-.34,.12-.63,.36-.87,.24-.24,.54-.35,.88-.35,.4,0,.73,.15,.98,.44s.39,.65,.39,1.08c0,1.01-.46,1.75-1.37,2.23,.84,0,1.6-.26,2.26-.77,.66-.51,1.14-1.21,1.44-2.11l.72,.31Zm-3.79,.09c0-.4-.2-.6-.6-.6s-.62,.2-.62,.6,.21,.63,.62,.63,.6-.21,.6-.63Z" style="fill: #231f20;"/>
      <path d="M809.39,1262.77h-5.68v-5.64c0-.45,.14-.83,.43-1.13,.29-.3,.66-.45,1.1-.45,.31,0,.58,.07,.82,.22,.24,.14,.43,.33,.57,.57,.14,.23,.21,.5,.21,.8,0,.44-.14,.81-.43,1.11-.29,.3-.65,.45-1.08,.45-.28,0-.53-.07-.74-.22v3.4h3.91v-5.35c0-.75-.27-1.37-.8-1.88-.54-.51-1.18-.76-1.93-.76-.5,0-.96,.11-1.38,.34-.42,.23-.79,.58-1.09,1.06-.3,.48-.46,1.05-.46,1.7v.64h-.89v-.64c0-.79,.17-1.47,.5-2.06,.33-.59,.79-1.05,1.35-1.38,.57-.33,1.23-.5,1.99-.5,1,0,1.84,.33,2.55,.99s1.05,1.47,1.05,2.42v6.31Zm-3.38-5.61c0-.52-.26-.77-.79-.77-.46,0-.7,.24-.7,.72,0,.51,.26,.77,.79,.77,.47,0,.7-.24,.7-.71Z" style="fill: #231f20;"/>
      <path d="M819.4,1262.77h-.88v-6.24c0-.51-.11-.96-.34-1.35-.23-.39-.54-.71-.95-.95-.4-.24-.86-.37-1.38-.37s-.95,.11-1.36,.33-.76,.57-1.07,1.06c-.3,.49-.45,1.07-.45,1.75v3.79l.5-1.58,.72-2.45c.3-1.02,.87-1.54,1.71-1.54,.43,0,.8,.15,1.1,.46s.45,.68,.45,1.12-.15,.84-.46,1.14-.69,.45-1.15,.45c-.59,0-.97-.19-1.15-.58l-.12,.39-1.51,4.56h-.91v-5.78c0-1.12,.34-2.06,1.03-2.81s1.56-1.12,2.62-1.12c.66,0,1.25,.13,1.79,.39,.54,.26,.97,.65,1.31,1.16,.34,.52,.5,1.14,.5,1.86v6.31Zm-2.78-5.91c0-.53-.27-.79-.81-.79-.48,0-.72,.24-.72,.72,0,.53,.27,.79,.81,.79,.48,0,.72-.24,.72-.72Z" style="fill: #231f20;"/>
      <path d="M828.86,1262.77h-5.68v-5.64c0-.45,.14-.83,.43-1.13,.29-.3,.66-.45,1.1-.45,.31,0,.58,.07,.82,.22,.24,.14,.43,.33,.57,.57s.21,.5,.21,.8c0,.44-.14,.81-.43,1.11-.29,.3-.65,.45-1.08,.45-.28,0-.53-.07-.74-.22v3.4h3.91v-5.35c0-.75-.27-1.37-.8-1.88-.54-.51-1.18-.76-1.93-.76-.5,0-.96,.11-1.38,.34-.42,.23-.79,.58-1.09,1.06-.3,.48-.46,1.05-.46,1.7v.64h-.89v-.64c0-.79,.17-1.47,.5-2.06,.33-.59,.79-1.05,1.35-1.38,.57-.33,1.23-.5,1.99-.5,1,0,1.84,.33,2.55,.99,.7,.66,1.05,1.47,1.05,2.42v6.31Zm-3.38-5.61c0-.52-.26-.77-.79-.77-.46,0-.7,.24-.7,.72,0,.51,.26,.77,.79,.77,.47,0,.7-.24,.7-.71Z" style="fill: #231f20;"/>
      <path d="M838.46,1262.77h-.89v-7.01c0-.59-.26-1.06-.79-1.39-.53-.34-1.18-.5-1.94-.5-.93,0-1.76,.26-2.47,.77,.63,.16,1.27,.47,1.92,.91-.38,.16-.7,.35-.95,.55-.25,.2-.42,.4-.5,.59-.08,.19-.11,.42-.11,.68v5.4h-.89v-5.78c0-.66,.38-1.13,1.13-1.39-.41-.26-1.07-.5-1.99-.72,.34-.53,.89-.96,1.65-1.31,.76-.34,1.5-.52,2.24-.52s1.39,.11,1.94,.33c.55,.22,.96,.53,1.24,.92,.28,.39,.42,.86,.42,1.41v7.05Z" style="fill: #231f20;"/>
      <path d="M848.18,1262.77h-.88c0-.74-.36-1.88-1.07-3.4-.71-1.52-1.29-2.51-1.74-2.96-.29,.27-.68,.78-1.17,1.53s-.84,1.47-1.06,2.15c.26-.21,.51-.32,.76-.32,.45,0,.83,.15,1.14,.44,.31,.29,.46,.67,.46,1.12s-.16,.82-.47,1.11c-.31,.3-.69,.45-1.14,.45-.48,0-.87-.17-1.18-.52-.3-.35-.46-.76-.46-1.26s.06-.96,.17-1.42c.11-.45,.29-.91,.52-1.36,.23-.45,.58-.98,1.05-1.6,.47-.61,.93-1.12,1.39-1.53,.53,.4,1.09,1.16,1.69,2.28,.6,1.12,1.05,2.27,1.36,3.46l.05-.02-.31-2.6v-1.8c0-.74-.26-1.37-.79-1.88-.53-.51-1.17-.76-1.92-.76-.56,0-1.06,.13-1.49,.4-.43,.27-.78,.64-1.04,1.1-.26,.46-.4,1-.4,1.59v.64h-.88v-.64c0-.78,.17-1.46,.5-2.05,.33-.59,.78-1.05,1.35-1.38s1.23-.5,2-.5c.49,0,.95,.08,1.37,.24,.42,.16,.81,.41,1.16,.74,.35,.33,.61,.7,.79,1.1,.17,.4,.26,.84,.26,1.32v6.31Zm-4.39-1.46c0-.48-.26-.72-.77-.72s-.77,.26-.77,.79c0,.48,.25,.72,.74,.72,.53,0,.79-.26,.79-.79Z" style="fill: #231f20;"/>
      <path d="M858.6,1262.77h-.88c0-.08-.13-.25-.39-.51s-.58-.55-.97-.86c-.39-.31-.86-.61-1.42-.91-.56-.3-1.05-.46-1.47-.49v1.8c0,.72-.35,1.08-1.06,1.08-.36,0-.68-.09-.96-.26-.29-.18-.52-.41-.69-.69s-.26-.61-.26-.96c0-.59,.19-1.06,.57-1.39,.38-.34,.89-.5,1.54-.5v-3.07c-.08,.13-.31,.19-.68,.19-.48,0-.86-.15-1.15-.45-.29-.3-.43-.67-.43-1.11s.16-.83,.47-1.13c.31-.3,.69-.45,1.14-.45s.82,.15,1.11,.44c.29,.29,.43,.67,.43,1.14v4.52c.53,0,1.25,.25,2.16,.75,.91,.5,1.6,1.06,2.07,1.67v-8.4h.88v9.6Zm-5.88-8.19c0-.48-.25-.72-.74-.72-.54,0-.8,.27-.8,.8,0,.48,.25,.71,.74,.71,.54,0,.8-.26,.8-.79Zm-.1,6.87v-1.49c-.83,0-1.25,.34-1.25,1.01,0,.26,.1,.51,.31,.74s.44,.34,.7,.34c.16,0,.24-.2,.24-.6Z" style="fill: #231f20;"/>
      <path d="M866.02,1253.17h.88v6.81c.25-.14,.51-.22,.77-.22s.49,.06,.71,.17c.21,.11,.4,.29,.55,.53,.15,.24,.23,.53,.23,.86,0,.45-.16,.82-.47,1.11-.31,.3-.69,.45-1.14,.45s-.82-.15-1.1-.44c-.29-.29-.43-.67-.43-1.12v-8.16Zm2.3,8.16c0-.5-.24-.74-.73-.74-.52,0-.78,.26-.78,.77s.25,.74,.74,.74,.77-.26,.77-.77Zm1.87-8.16h.88v6.81c.25-.14,.51-.22,.77-.22,.29,0,.54,.07,.76,.2,.22,.13,.39,.32,.53,.55,.13,.23,.2,.5,.2,.8,0,.45-.16,.82-.47,1.11-.31,.3-.69,.45-1.14,.45s-.82-.15-1.1-.44c-.29-.29-.43-.67-.43-1.12v-8.16Zm2.3,8.16c0-.5-.24-.74-.73-.74-.52,0-.78,.26-.78,.77s.25,.74,.74,.74,.77-.26,.77-.77Z" style="fill: #231f20;"/>
      <path d="M881.01,1262.77h-4.92v-.89h1.2v-4.54c0-.22,.13-.61,.39-1.15,.27-.55,.4-.92,.4-1.13,0-.7-.39-1.1-1.18-1.2-.68,0-1.19,.11-1.54,.34,.34,0,.63,.06,.89,.18,.26,.12,.44,.29,.56,.53,.12,.23,.18,.5,.18,.82,0,.27-.06,.51-.17,.74-.12,.22-.3,.42-.54,.57s-.54,.24-.89,.24c-.32,0-.59-.07-.8-.2s-.39-.33-.52-.59-.21-.53-.21-.83c0-.44,.08-.83,.23-1.17,.15-.34,.44-.67,.88-.98,.43-.31,1.04-.46,1.83-.46,.65,0,1.19,.18,1.61,.54,.42,.36,.63,.84,.63,1.45,0,.28-.14,.71-.42,1.29-.28,.59-.42,.97-.42,1.15v4.39h1.95v-8.71h.89v9.6Zm-4.83-7.13c0-.49-.26-.74-.77-.74s-.74,.25-.74,.74,.25,.77,.74,.77,.77-.26,.77-.77Z" style="fill: #231f20;"/>
      <path d="M889.12,1260.36c-.15,0-.49,.16-1.01,.49-.52,.33-.96,.66-1.31,.99s-.64,.64-.85,.93h-.88v-6.74c-.14,.11-.35,.17-.62,.17-.29,0-.54-.05-.76-.16-.22-.11-.42-.28-.58-.52-.16-.24-.25-.53-.25-.88,0-.27,.06-.52,.18-.75s.31-.43,.56-.59c.25-.16,.54-.24,.87-.24,.3,0,.57,.06,.79,.19,.22,.13,.4,.31,.53,.55s.19,.52,.19,.84v6.87c.61-.59,1.2-1.05,1.78-1.38,.58-.33,1.11-.55,1.61-.67,.5-.12,.85-.18,1.05-.18v-6.09h.89v6.26c.73,.3,1.1,.85,1.1,1.65,0,1.2-.6,1.8-1.8,1.8-.35,0-.65-.08-.91-.23-.26-.15-.47-.36-.62-.62s-.22-.57-.22-.92c0-.28,.09-.53,.26-.75Zm-3.88-5.78c0-.48-.24-.72-.71-.72-.55,0-.82,.27-.82,.8,0,.48,.24,.71,.72,.71,.54,0,.81-.26,.81-.79Zm6.41,6.53c0-.69-.34-1.03-1.03-1.03s-1.01,.33-1.01,.98,.34,1.03,1.03,1.03,1.01-.33,1.01-.98Z" style="fill: #231f20;"/>
      <path d="M900.91,1262.77h-.89v-7.01c0-.59-.26-1.06-.79-1.39-.53-.34-1.18-.5-1.94-.5-.93,0-1.76,.26-2.47,.77,.63,.16,1.27,.47,1.92,.91-.38,.16-.7,.35-.95,.55-.25,.2-.42,.4-.5,.59-.08,.19-.11,.42-.11,.68v5.4h-.89v-5.78c0-.66,.38-1.13,1.13-1.39-.41-.26-1.07-.5-1.99-.72,.34-.53,.89-.96,1.65-1.31,.76-.34,1.5-.52,2.24-.52s1.39,.11,1.94,.33c.55,.22,.96,.53,1.24,.92,.28,.39,.42,.86,.42,1.41v7.05Z" style="fill: #231f20;"/>
      <path d="M901.23,1268h-.84v-1.2c0-.21,.08-.43,.23-.66,.04-.07,.08-.12,.11-.16-.27,.27-.6,.4-.98,.4-.27,0-.5-.06-.7-.18s-.36-.28-.47-.49c-.12-.21-.18-.45-.18-.72s.06-.51,.19-.72c.13-.21,.3-.38,.52-.5,.22-.13,.47-.19,.75-.19,.25,0,.47,.05,.67,.16,.2,.1,.37,.26,.5,.48,.13,.21,.2,.48,.2,.79v3Zm-.72-2.98c0-.45-.22-.67-.67-.67s-.67,.22-.67,.67,.22,.67,.67,.67,.67-.22,.67-.67Z" style="fill: #231f20;"/>
      <path d="M910.91,1262.77h-.88v-6.24c0-.51-.12-.96-.37-1.36-.25-.39-.57-.71-.98-.94-.4-.23-.87-.35-1.39-.35s-.99,.14-1.39,.41c-.4,.27-.72,.64-.96,1.11-.24,.47-.37,.99-.37,1.58v4.44l2.09-2.62c.08-.1,.25-.25,.49-.45l.13-.11c-.99,0-1.49-.48-1.49-1.44,0-.29,.07-.55,.22-.79,.14-.24,.33-.43,.57-.57,.23-.14,.49-.22,.78-.22,.3,0,.58,.07,.81,.21,.24,.14,.43,.32,.57,.55,.14,.22,.21,.48,.21,.76,0,.41-.18,.83-.53,1.27l-3.91,4.75h-.84v-5.78c0-1.11,.34-2.04,1.03-2.8,.69-.76,1.56-1.14,2.62-1.14,.7,0,1.32,.15,1.86,.45,.54,.3,.96,.7,1.27,1.21,.31,.51,.47,1.09,.47,1.75v6.31Zm-2.78-5.91c0-.53-.27-.79-.81-.79-.48,0-.72,.24-.72,.72,0,.53,.27,.79,.81,.79,.48,0,.72-.24,.72-.72Z" style="fill: #231f20;"/>
      <path d="M703.93,1293.29c.45,0,.85,.23,1.2,.69s.53,.97,.53,1.55c0,.88-.3,1.54-.89,1.99s-1.23,.67-1.92,.67c-1.83,0-2.75-.99-2.75-2.96,0-1.22,.48-2.18,1.43-2.87,.95-.69,2.11-1.04,3.48-1.04,1.58,0,2.95,.35,4.12,1.05l.41,.25,2.95-3.13,1.58,1.37-2.73,2.8,1.65,1.41v10.91h-8.42v-2.05h1.29v-5.94c0-.93,.18-1.59,.54-1.99l1.72-1.87c-.77-.64-1.75-.97-2.94-.97-.41,0-.83,.05-1.27,.14Zm-1.04,3.28c.67,0,1.01-.34,1.01-1.01s-.34-1-1.01-1-1,.33-1,1,.33,1.01,1,1.01Zm5.35,1.51v5.84h2.38v-8.32l-.65-.47-1.05,1.19c-.46,.52-.69,1.1-.69,1.77Z" style="fill: #231f20;"/>
      <path d="M713.54,1289.41c-3.98-1.01-7.63-1.51-10.94-1.51-.8,0-1.58,.02-2.32,.07,.15-1.1,.75-2.21,1.8-3.34,1.05-1.13,2.53-1.7,4.45-1.7,1.11,0,2.08,.22,2.9,.67,.82,.45,1.55,1.04,2.18,1.79,.63,.74,1.11,1.55,1.44,2.42,.33,.87,.5,1.4,.5,1.6Zm-10.12-3.14c.49-.02,.9-.04,1.23-.04,1.68,0,3.55,.28,5.62,.84-1.05-1.52-2.33-2.28-3.83-2.28-.71,0-1.36,.14-1.95,.42s-.95,.63-1.06,1.06Z" style="fill: #231f20;"/>
      <path d="M710.91,1278.03c-.69,0-1.23-.17-1.62-.51-.39-.34-.58-.78-.58-1.33,0-.62,.2-1.11,.6-1.45,.4-.35,.92-.52,1.56-.52,.71,0,1.25,.19,1.62,.58,.36,.39,.54,.89,.54,1.51,0,.91-.37,1.68-1.12,2.3,.52,0,1.16-.22,1.93-.65,.77-.44,1.39-.96,1.86-1.57,.47-.61,.7-1.19,.7-1.74l1.58,.79c-.36,1.53-1.38,2.71-3.07,3.54-1.69,.83-3.59,1.25-5.71,1.25v-1.22c.2,0,.5-.08,.91-.25,.4-.17,.67-.41,.78-.72Zm-.07-2.66c-.55,0-.83,.26-.83,.79s.28,.83,.83,.83,.79-.28,.79-.83-.26-.79-.79-.79Z" style="fill: #231f20;"/>
      <path d="M727.85,1298.62v-7.05h2.37v8.24l-.9,.64c.51,.04,.97,.3,1.37,.8,.4,.5,.61,1.21,.61,2.11,0,.85-.28,1.55-.85,2.1-.57,.55-1.27,.82-2.1,.82s-1.54-.24-2.14-.73c-.59-.48-.89-1.27-.89-2.37-.47,.23-1.11,.73-1.9,1.49-.79,.76-1.19,1.19-1.19,1.27h-2.45v-9.18c-.94,0-1.63-.09-2.07-.28-.44-.18-.78-.49-1.02-.91s-.36-.9-.36-1.44c0-.77,.25-1.42,.76-1.93s1.19-.77,2.04-.77c.76,0,1.46,.23,2.08,.68,.63,.45,.94,1.25,.94,2.38v8.65c.86-.82,2.46-1.8,4.83-2.95,.58-.28,.87-.81,.87-1.59Zm-8.72-5.4c-.64,0-.97,.33-.97,.98s.32,1,.97,1,.98-.33,.98-1-.33-.98-.98-.98Zm9.15,8.96c-.74,0-1.12,.37-1.12,1.12s.37,1.15,1.12,1.15,1.15-.38,1.15-1.15-.38-1.12-1.15-1.12Z" style="fill: #231f20;"/>
      <path d="M745.52,1297.83l-5.98,8.14h-2.44v-9.14c-.76,0-1.38-.07-1.85-.2s-.86-.42-1.16-.86c-.3-.44-.45-.97-.45-1.57,0-.66,.23-1.28,.68-1.85,.45-.57,1.16-.86,2.13-.86,.76,0,1.46,.23,2.08,.68,.63,.45,.94,1.25,.94,2.39v8.13l4.79-6.3c-.29-.02-.59-.24-.9-.66s-.47-.93-.47-1.53c0-.78,.25-1.43,.74-1.94s1.21-.77,2.13-.77c.7,0,1.33,.23,1.88,.69,.55,.46,.83,1.2,.83,2.23,0,.82-.42,1.49-1.26,2.02,.36,.18,.61,.45,.75,.81,.14,.37,.22,.97,.22,1.81v6.91h-2.37v-7.71l-.29-.43Zm-9.07-4.57c-.64,0-.97,.33-.97,.98s.32,1,.97,1,.98-.33,.98-1-.33-.98-.98-.98Zm9.25-.11c-.65,0-.98,.32-.98,.97s.33,1.01,.98,1.01,.97-.34,.97-1.01-.32-.97-.97-.97Z" style="fill: #231f20;"/>
      <path d="M755.45,1300.96c.81,0,1.46,.22,1.95,.67s.73,1.09,.73,1.92c0,.75-.24,1.38-.73,1.89-.49,.51-1.17,.77-2.04,.77-1.87,0-2.8-1.03-2.8-3.1,0-1.64,.52-3.3,1.56-4.97,1.04-1.67,2.14-2.76,3.3-3.28,1.79,1.46,3.16,3.33,4.1,5.62v-3.09c0-2.64-1.38-3.95-4.14-3.95s-4.22,1.49-4.22,4.46h-2.27c0-1.78,.5-3.29,1.5-4.54s2.69-1.87,5.08-1.87c1.34,0,2.49,.21,3.43,.63s1.68,1.03,2.2,1.82c.52,.79,.78,1.74,.78,2.85v9.18h-2.49c-.19-.86-.67-2.17-1.45-3.93-.78-1.76-1.67-3.16-2.65-4.17-.17,0-.52,.41-1.05,1.23-.53,.82-.79,1.45-.79,1.87Zm-.07,3.59c.65,0,.98-.33,.98-1s-.33-.98-.98-.98-.97,.33-.97,.98,.32,1,.97,1Z" style="fill: #231f20;"/>
      <path d="M767.97,1282.78l1.79,.94c-.37,1.32-1.26,2.46-2.66,3.41-1.41,.95-3.05,1.42-4.94,1.42-1.76,0-3.11-.27-4.06-.82-.95-.55-1.43-1.33-1.43-2.35,0-.77,.25-1.4,.75-1.91s1.17-.76,2.01-.76c.79,0,1.4,.25,1.85,.76,.45,.51,.68,1.1,.68,1.79s-.18,1.1-.54,1.3c0,.08,.4,.11,1.19,.11,1.2,0,2.3-.35,3.32-1.06,1.02-.71,1.7-1.65,2.05-2.83Zm-8.67,1.48c-.67,0-1.01,.34-1.01,1.01s.34,1,1.01,1,1-.33,1-1-.33-1.01-1-1.01Z" style="fill: #231f20;"/>
      <path d="M773.57,1305.97l-7.34-7.49,1.55-1.37,6.01,6.16v-6.48c-1.1,0-1.95-.18-2.55-.55s-.91-1.05-.91-2.04c0-.66,.22-1.28,.67-1.85s1.16-.86,2.14-.86c.76,0,1.45,.23,2.08,.68,.63,.45,.94,1.25,.94,2.39v11.41h-2.59Zm-.43-12.71c-.65,0-.98,.33-.98,.98s.33,1,.98,1,.98-.33,.98-1-.33-.98-.98-.98Z" style="fill: #231f20;"/>
      <path d="M701.99,1336.75l-2.42,1.26-2.37-1.26c-.98,.18-1.48,.89-1.48,2.13v7.73l2.95-2.8c-1.2-.28-1.8-1.03-1.8-2.27,0-.76,.25-1.4,.76-1.9,.51-.51,1.16-.76,1.95-.76,.7,0,1.31,.22,1.85,.65s.8,1.09,.8,1.97c0,.82-.37,1.61-1.12,2.37l-5.18,5.29h-2.59v-10.08c0-1.11,.34-2.1,1.02-2.97,.68-.87,1.56-1.37,2.65-1.49l2.55,1.22,2.56-1.22c1.15,.05,2.05,.46,2.7,1.23,.65,.77,.98,1.85,.98,3.23v10.08h-2.37v-10.29c0-1.24-.48-1.95-1.44-2.13Zm-2.45,3.59c-.72,0-1.08,.36-1.08,1.08s.36,1.12,1.08,1.12,1.08-.37,1.08-1.12-.36-1.08-1.08-1.08Z" style="fill: #231f20;"/>
      <path d="M709.84,1325.98l1.79,.94c-.37,1.32-1.26,2.46-2.66,3.41-1.41,.95-3.05,1.42-4.94,1.42-1.76,0-3.11-.27-4.06-.82-.95-.55-1.43-1.33-1.43-2.35,0-.77,.25-1.4,.75-1.91,.5-.5,1.17-.76,2.01-.76,.79,0,1.4,.25,1.85,.76,.45,.51,.68,1.1,.68,1.79s-.18,1.1-.54,1.3c0,.08,.4,.11,1.19,.11,1.2,0,2.3-.35,3.32-1.06,1.02-.71,1.7-1.65,2.05-2.83Zm-8.67,1.48c-.67,0-1.01,.34-1.01,1.01s.34,1,1.01,1,1-.33,1-1-.33-1.01-1-1.01Z" style="fill: #231f20;"/>
      <path d="M715.13,1343.19c-1.18-.26-1.77-1.04-1.77-2.34,0-.78,.25-1.41,.75-1.9s1.16-.73,1.96-.73c.73,0,1.35,.22,1.87,.66,.52,.44,.78,1.08,.78,1.93,0,.76-.37,1.56-1.12,2.41l-5.18,5.94h-2.59v-9.58c0-1.52,.58-2.72,1.74-3.59s2.64-1.31,4.44-1.31c2.12,0,3.7,.45,4.72,1.34,1.03,.9,1.54,2.08,1.54,3.55v9.58h-2.37v-9.5c0-2.04-1.29-3.07-3.86-3.07-1.04,0-1.95,.25-2.71,.76-.76,.51-1.14,1.28-1.14,2.31v6.73l2.92-3.21Zm.9-3.49c-.72,0-1.08,.36-1.08,1.08s.36,1.12,1.08,1.12,1.08-.37,1.08-1.12-.36-1.08-1.08-1.08Z" style="fill: #231f20;"/>
      <path d="M741.55,1349.17h-2.04v-10.88c-.92,.8-2.08,1.46-3.47,1.97v-1.99c2.05-.96,3.43-2.17,4.15-3.61h1.36v14.51Z" style="fill: #231f20;"/>
      <path d="M757.73,1336.49c.45,0,.85,.23,1.2,.69,.35,.46,.53,.97,.53,1.55,0,.88-.3,1.54-.89,1.99s-1.23,.67-1.92,.67c-1.83,0-2.75-.99-2.75-2.96,0-1.22,.48-2.18,1.43-2.87,.95-.69,2.11-1.04,3.48-1.04,1.58,0,2.95,.35,4.12,1.05l.41,.25,2.95-3.13,1.58,1.37-2.73,2.8,1.65,1.41v10.91h-8.42v-2.05h1.29v-5.94c0-.93,.18-1.59,.54-1.99l1.72-1.87c-.77-.64-1.75-.97-2.94-.97-.41,0-.83,.05-1.27,.14Zm-1.04,3.28c.67,0,1.01-.34,1.01-1.01s-.34-1-1.01-1-1,.33-1,1,.33,1.01,1,1.01Zm5.35,1.51v5.84h2.38v-8.32l-.65-.47-1.05,1.19c-.46,.52-.69,1.1-.69,1.77Z" style="fill: #231f20;"/>
      <path d="M767.33,1332.61c-3.98-1.01-7.63-1.51-10.94-1.51-.8,0-1.58,.02-2.32,.07,.15-1.1,.75-2.21,1.8-3.34,1.05-1.13,2.53-1.7,4.45-1.7,1.11,0,2.08,.22,2.9,.67,.82,.45,1.55,1.04,2.18,1.79s1.11,1.55,1.44,2.42,.5,1.4,.5,1.6Zm-10.12-3.14c.49-.02,.9-.04,1.23-.04,1.68,0,3.55,.28,5.62,.83-1.05-1.52-2.33-2.28-3.83-2.28-.71,0-1.36,.14-1.95,.42-.59,.28-.95,.63-1.06,1.06Z" style="fill: #231f20;"/>
      <path d="M764.71,1321.23c-.69,0-1.23-.17-1.62-.51-.39-.34-.58-.78-.58-1.33,0-.62,.2-1.11,.6-1.45,.4-.35,.92-.52,1.56-.52,.71,0,1.25,.19,1.62,.58s.54,.89,.54,1.51c0,.91-.37,1.68-1.12,2.3,.52,0,1.16-.22,1.93-.65,.77-.44,1.39-.96,1.86-1.57,.47-.61,.7-1.19,.7-1.74l1.58,.79c-.36,1.53-1.38,2.71-3.07,3.54-1.69,.83-3.59,1.25-5.71,1.25v-1.22c.2,0,.5-.08,.91-.25,.4-.17,.67-.41,.78-.72Zm-.07-2.66c-.55,0-.83,.26-.83,.79s.28,.83,.83,.83,.79-.28,.79-.83-.26-.79-.79-.79Z" style="fill: #231f20;"/>
      <path d="M781.65,1341.82v-7.05h2.37v8.24l-.9,.64c.51,.04,.97,.3,1.37,.8,.4,.5,.61,1.21,.61,2.11,0,.85-.28,1.55-.85,2.1-.57,.55-1.27,.82-2.1,.82s-1.54-.24-2.14-.73-.89-1.27-.89-2.37c-.47,.23-1.11,.73-1.9,1.49-.79,.76-1.19,1.19-1.19,1.27h-2.45v-9.18c-.94,0-1.63-.09-2.07-.28-.44-.18-.78-.49-1.02-.91-.24-.42-.36-.9-.36-1.44,0-.77,.25-1.42,.76-1.93,.51-.52,1.19-.77,2.04-.77,.76,0,1.46,.23,2.08,.68,.63,.45,.94,1.25,.94,2.38v8.65c.86-.82,2.46-1.8,4.83-2.95,.58-.28,.87-.81,.87-1.59Zm-8.72-5.4c-.64,0-.97,.33-.97,.98s.32,1,.97,1,.98-.33,.98-1-.33-.98-.98-.98Zm9.15,8.96c-.74,0-1.12,.37-1.12,1.12s.37,1.15,1.12,1.15,1.15-.38,1.15-1.15-.38-1.12-1.15-1.12Z" style="fill: #231f20;"/>
    </g>
    <g>
      <g>
        <path d="M742.25,1158.63c-.1,0-.2,.01-.29,.03h-.03c-.32,.08-.74,.52-1.03,1.16-.31,.65-.51,1.48-.51,2.2,0,.14,0,.27,.02,.39,.1,.92,.58,1.85,1.08,2.87,.5,1.02,1.02,2.13,1.11,3.44,.01,.16,.02,.32,.02,.49,0,.87-.14,1.72-.33,2.24-.21,.54-.55,.99-.83,1.42-.29,.43-.5,.82-.55,1.23-.01,.07-.01,.15-.01,.21,.01,.75,.46,1.09,1.06,1.12h.02c.54,0,1-.34,1.4-.87,.39-.52,.69-1.19,.9-1.69,.45-1.07,.75-2.3,.75-3.66,0-.25,0-.51-.03-.77-.1-1.2-.49-2.36-.88-3.29-.33-.81-1.22-1.83-1.23-3.24h0c0-.52,.17-.92,.31-1.25,.14-.33,.25-.59,.25-.91,0-.07,0-.15-.02-.23-.08-.54-.61-.9-1.18-.9Z"/>
        <path d="M744.11,1165.17c-.33-.81-1.22-1.83-1.23-3.24h0c0-.52,.17-.92,.31-1.25,.14-.33,.25-.59,.25-.91,0-.07,0-.15-.02-.23-.08-.54-.61-.9-1.18-.9-.1,0-.2,.01-.29,.03h-.03c-.32,.08-.74,.52-1.03,1.16-.31,.65-.51,1.48-.51,2.2,0,.14,0,.27,.02,.39,.1,.92,.58,1.85,1.08,2.87,.5,1.02,1.02,2.13,1.11,3.44,.01,.16,.02,.32,.02,.49,0,.87-.14,1.72-.33,2.24-.21,.54-.55,.99-.83,1.42-.29,.43-.5,.82-.55,1.23-.01,.07-.01,.15-.01,.21,.01,.75,.46,1.09,1.06,1.12h.02c.54,0,1-.34,1.4-.87,.39-.52,.69-1.19,.9-1.69,.45-1.07,.75-2.3,.75-3.66,0-.25,0-.51-.03-.77-.1-1.2-.49-2.36-.88-3.29Z"/>
        <path d="M749.05,1165.55h0c-.16,0-.3-.11-.35-.26h0c0-.05-.01-.09,0-.13,.04-.4,.05-.92,.05-1.49,0-.51,0-1.06,0-1.63s.04-1.15,.04-1.67c0-.52-.05-.97-.17-1.2-.17-.35-.56-.54-1.01-.54h0c-.51,0-.97,.26-1.1,.63-.1,.27-.15,.75-.14,1.29,0,.8,.08,1.73,.08,2.47v9.94c0,.34-.02,.71-.02,1.04,0,.32,.03,.61,.08,.74,.12,.34,.65,.66,1.17,.66,.38,0,.71-.14,.92-.5,.17-.28,.24-.75,.24-1.29,0-.61-.08-1.3-.08-1.93v-3.96h4.33v3.84c0,.7-.08,1.44-.08,2.08,0,.48,.05,.9,.17,1.17,.17,.39,.57,.59,1.02,.59,.46,0,.9-.22,1.06-.56,.12-.23,.19-.86,.18-1.54,0-.76-.06-1.61-.06-2.23v-8.2c0-.61,.06-1.42,.06-2.16,0-.71-.07-1.37-.22-1.59-.15-.28-.59-.53-1.06-.52-.14,0-.29,.02-.42,.06-.29,.1-.42,.25-.54,.58-.11,.32-.15,.78-.15,1.3,0,.47,.03,.99,.03,1.5v3.51h-4Z"/>
        <path d="M760.84,1158.64c-.15,0-.32,.01-.49,.04h-.02c-.34,.06-.7,.21-.88,.32-.99,.63-1.73,1.96-2.21,3.38-.44,1.27-.67,2.95-.67,4.65,0,1.89,.29,3.82,.87,5.25,.54,1.34,1.48,2.68,2.52,3.02,.2,.07,.47,.11,.76,.11,.49,0,1.02-.11,1.24-.22,1.03-.48,1.84-1.58,2.39-3.04,.54-1.45,.81-3.25,.81-5.04,0-2.72-.63-5.44-1.76-7-.57-.78-1.38-1.47-2.56-1.47Zm1.16,13.28c-.11,.25-.28,.73-.59,1.05-.11,.11-.24,.22-.46,.24h-.06c-.35,0-.56-.23-.73-.44-.17-.22-.3-.49-.42-.77-.23-.56-.4-1.17-.46-1.47-.25-1.08-.38-2.3-.38-3.53,0-1.12,.11-2.26,.33-3.28h0c.25-1.12,.57-2.32,1.45-2.89l.03-.02h.03c.07-.04,.12-.04,.14-.04,.12-.02,.31,.11,.34,.21h0c1.27,1.35,1.57,3.54,1.57,6.03,0,1.82-.21,3.49-.81,4.9Z"/>
        <path d="M768.74,1158.61c-.23,0-.47,0-.71,.03-.57,.03-1.33,.16-1.5,.38-.17,.18-.22,.36-.22,.64,0,.29,.08,.66,.15,1.08,.43,2.49,.91,5.43,.91,8.32,0,1.2-.08,2.38-.29,3.53-.13,.69-.39,1.43-.39,1.92,0,.07,0,.13,.01,.19,.04,.27,.18,.44,.37,.58,.2,.13,.48,.21,.75,.21,.39,0,.76-.15,.92-.37,.13-.16,.25-.5,.32-.9,.08-.4,.13-.85,.19-1.25,.13-.87,.11-1.68,.16-2.69,0-.13,.08-.24,.18-.31h.03v-.02h0s.07-.03,.11-.03c2.18-.16,3.51-1.14,4.45-2.42,.59-.81,1.04-1.97,1.04-3.22,0-.4-.05-.82-.15-1.24-.64-2.62-2.98-4.42-6.36-4.43Zm1.06,9.26s-.02,0-.04,0h-.09c-.08-.02-.15-.06-.2-.11h0s-.02-.03-.02-.04h0v-.02h-.01v-.02h0s-.04-.1-.04-.15h0c-.09-2.26-.41-4.29-.74-6.34-.02-.11,.02-.23,.1-.31,.08-.08,.19-.12,.3-.11,.91,.11,1.85,.4,2.62,.91,.76,.51,1.35,1.29,1.43,2.31,0,.11,.01,.21,.01,.31,0,1.88-1.4,3.28-3.3,3.55Z"/>
      </g>
      <path d="M713.51,1175.4c1.62,.19,1.32-1.8,1.32-3.52v-11.06c0-.73,.03-1.6-.25-1.99-.26-.36-.8-.44-1.04-.41-1.19,.15-.99,1.39-.99,2.73v10.85c0,1.64-.2,3.26,.95,3.4Z"/>
      <path d="M715.95,1169.4c-.03,2.22,.71,4.13,1.95,5.26,.35,.32,1.01,.89,1.7,.75,.58-.12,.89-.83,.71-1.49-.17-.61-1.11-1-1.49-1.57-2-3.02,1.13-7.38,.33-11.22,.81,.23,1.26,.46,1.66,.79,1.3,1.06,2.15,2.99,2.4,5.13,.14,1.15,.04,2.45,.04,3.73,0,1.6-.42,4.45,.95,4.64,1.47,.2,1.28-1.3,1.28-2.65v-11.68c0-1.42,.11-2.81-1.2-2.69-1.05,.09-1.1,1.34-1.04,2.65-.75-.7-1.65-1.53-2.94-1.95-.89-.29-3.54-1.01-3.94,.08-.3,.81,.37,1.45,.54,1.99,.43,1.33,.08,2.96-.21,4.18-.28,1.2-.73,2.63-.75,4.06Z"/>
      <path d="M735,1158.38c-1.1,.08-1.1,1.36-1.04,2.69-.81-.83-1.66-1.55-2.98-1.99-.88-.29-3.49-1-3.89,.08-.3,.81,.35,1.4,.54,2.03,.66,2.24-.39,4.37-.79,6.5-.33,1.77-.19,3.9,.5,5.34,.25,.52,.68,1.04,1.16,1.49,.18,.17,.4,.4,.68,.59,.31,.21,.67,.36,1.1,.28,.08-.01,.15-.04,.21-.07,.38-.19,.56-.66,.57-.96,.04-1.05-.8-1.11-1.33-1.74-.21-.25-.43-.61-.54-.91-1.25-3.45,1.47-7.24,.66-10.6,2.35,.78,3.3,2.43,3.85,4.93,.37,1.68,.25,4.23,.25,6.34,0,1.39-.19,2.85,.91,3.02,1.46,.23,1.32-1.32,1.32-2.69v-9.73c0-1.65,.49-4.72-1.2-4.6Z"/>
      <path d="M708.41,1159.33c-1.03-.59-2.65-1.04-4.43-.87-.4,.04-1.13,.06-1.41,.41-.37,.48-.16,1.31-.04,1.95,.68,3.67,1.26,8.29,.5,12.18-.12,.64-.37,1.41-.21,1.86,.15,.41,.65,.72,1.2,.66,1.04-.11,1.12-1.3,1.28-2.36,.18-1.13,.23-2.19,.29-3.27,1.74,.04,3.02-.66,3.98-1.53,.77-.71,1.51-1.78,1.74-3.27,.45-2.92-1.16-4.77-2.9-5.76Zm-2.9,8.36c-.06-2.31-.42-4.68-.79-6.83,.03-.04,.08-.06,.12-.08,1.51,.05,2.69,.58,3.48,1.41,1.85,1.95,.15,5.62-2.82,5.51Z"/>
    </g>
    <g>
      <path d="M638.78,1409.98h-.76c-1.78-2.45-2.67-4.89-2.67-7.32,0-.84,.08-1.63,.25-2.39,.17-.76,.46-1.56,.86-2.41,.41-.84,.93-1.72,1.56-2.64h.7c-1.57,2.49-2.36,4.99-2.36,7.49s.81,4.94,2.42,7.27Z" style="fill: #231f20;"/>
      <path d="M641.05,1397.86h.88v6.81c.25-.14,.51-.22,.77-.22s.49,.06,.71,.17c.21,.11,.4,.29,.55,.53,.15,.24,.23,.53,.23,.86,0,.45-.16,.82-.47,1.11-.31,.3-.69,.45-1.14,.45s-.82-.15-1.1-.44c-.29-.29-.43-.67-.43-1.12v-8.16Zm2.3,8.16c0-.5-.24-.74-.73-.74-.52,0-.78,.26-.78,.77s.25,.74,.74,.74,.77-.26,.77-.77Zm1.87-8.16h.88v6.81c.25-.14,.51-.22,.77-.22,.29,0,.54,.07,.76,.2,.22,.13,.39,.32,.53,.55,.13,.23,.2,.5,.2,.8,0,.45-.16,.82-.47,1.11-.31,.3-.69,.45-1.14,.45s-.82-.15-1.1-.44c-.29-.29-.43-.67-.43-1.12v-8.16Zm2.3,8.16c0-.5-.24-.74-.73-.74-.52,0-.78,.26-.78,.77s.25,.74,.74,.74,.77-.26,.77-.77Z" style="fill: #231f20;"/>
      <path d="M658.14,1407.46h-.89l-2.35-7.37-.29-1.25-.26,1.25-2.38,7.37h-.88v-6.79c-.18,.14-.42,.22-.72,.22-.42,0-.78-.15-1.06-.46s-.43-.68-.43-1.1c0-.27,.06-.52,.18-.75s.31-.43,.56-.59c.25-.16,.54-.24,.87-.24,.46,0,.82,.15,1.09,.44,.27,.29,.4,.67,.4,1.14v5.57l.48-1.58,1.75-5.44h.84l1.92,5.89,.29,1.21v-7.1h.89v9.6Zm-6.89-8.19c0-.48-.24-.72-.71-.72-.55,0-.83,.27-.83,.8,0,.48,.24,.71,.71,.71,.55,0,.82-.26,.82-.79Z" style="fill: #231f20;"/>
      <path d="M668.44,1407.46h-.89v-7.22c0-.99-.4-1.49-1.2-1.49h-.14l-3.17,8.71h-.81v-6.55s0-.06,.01-.13c0-.05,.01-.11,.01-.16-.19,.18-.42,.26-.69,.26s-.53-.06-.75-.17c-.22-.11-.41-.29-.57-.53-.16-.24-.24-.53-.24-.87,0-.27,.06-.52,.18-.75s.31-.43,.56-.59c.25-.16,.54-.24,.87-.24,.46,0,.83,.15,1.11,.45,.28,.3,.42,.68,.42,1.13v5.79l.24-.96,.36-1.14,1.85-5.16h.63c1.49,0,2.23,.81,2.23,2.42v7.18Zm-6.08-8.19c0-.48-.25-.72-.74-.72-.53,0-.79,.27-.79,.8,0,.48,.24,.71,.73,.71,.54,0,.8-.26,.8-.79Z" style="fill: #231f20;"/>
      <path d="M671.48,1397.86h.88v6.81c.25-.14,.51-.22,.77-.22s.49,.06,.71,.17c.21,.11,.4,.29,.55,.53,.15,.24,.23,.53,.23,.86,0,.45-.16,.82-.47,1.11-.31,.3-.69,.45-1.14,.45s-.82-.15-1.1-.44c-.29-.29-.43-.67-.43-1.12v-8.16Zm2.3,8.16c0-.5-.24-.74-.73-.74-.52,0-.78,.26-.78,.77s.25,.74,.74,.74,.77-.26,.77-.77Z" style="fill: #231f20;"/>
      <path d="M683.58,1407.46h-.89v-7.22c0-.99-.4-1.49-1.2-1.49h-.14l-3.17,8.71h-.81v-6.55s0-.06,.01-.13c0-.05,.01-.11,.01-.16-.19,.18-.42,.26-.69,.26s-.53-.06-.75-.17c-.22-.11-.41-.29-.57-.53s-.24-.53-.24-.87c0-.27,.06-.52,.18-.75s.31-.43,.56-.59c.25-.16,.54-.24,.87-.24,.46,0,.83,.15,1.11,.45,.28,.3,.42,.68,.42,1.13v5.79l.24-.96,.36-1.14,1.85-5.16h.63c1.49,0,2.23,.81,2.23,2.42v7.18Zm-6.08-8.19c0-.48-.25-.72-.74-.72-.53,0-.79,.27-.79,.8,0,.48,.24,.71,.73,.71,.54,0,.8-.26,.8-.79Z" style="fill: #231f20;"/>
      <path d="M683.53,1396.3c-.96-.35-1.86-.6-2.71-.76-.85-.15-1.74-.23-2.67-.23-.88,0-1.65,.04-2.3,.12,0-.24,.08-.53,.23-.86,.15-.33,.34-.62,.56-.86,.22-.24,.47-.44,.77-.6,.29-.16,.62-.28,.98-.36,.36-.08,.76-.12,1.2-.12,.61,0,1.15,.1,1.62,.3s.88,.46,1.22,.76c.34,.3,.61,.64,.81,1.03,.19,.39,.29,.91,.29,1.58Zm-.67-.74c-.23-.66-.66-1.17-1.3-1.54-.64-.37-1.38-.55-2.22-.55-1.17,0-2.06,.46-2.67,1.37,.14-.07,.41-.14,.81-.22,.41-.08,.9-.12,1.49-.12,1.02,0,1.84,.12,2.47,.35,.63,.23,1.1,.47,1.41,.71Z" style="fill: #231f20;"/>
      <path d="M691.8,1400.93h-.84v-.19c0-.42-.09-.8-.28-1.12-.19-.33-.44-.59-.75-.78-.31-.19-.67-.28-1.08-.28-1.3,0-2.03,.62-2.19,1.88,.3-.1,.52-.15,.67-.15h2.62v5.86c0,.39-.15,.73-.45,1.01s-.65,.42-1.04,.42c-1.09,0-1.63-.54-1.63-1.63,0-.29,.07-.55,.2-.79,.13-.23,.31-.41,.54-.55,.22-.13,.48-.2,.78-.2,.27,0,.5,.07,.71,.22v-3.5h-3.21v-.48c0-.82,.29-1.51,.87-2.07,.58-.56,1.29-.84,2.13-.84,.57,0,1.08,.13,1.52,.38,.44,.25,.79,.59,1.04,1,.26,.42,.38,.9,.38,1.45v.36Zm-2.68,5.04c0-.48-.24-.72-.72-.72s-.74,.25-.74,.74,.24,.72,.72,.72,.74-.25,.74-.74Z" style="fill: #231f20;"/>
      <path d="M694.82,1392.82c0,.14-.35,.32-1.05,.52-.7,.2-1.46,.3-2.28,.3-.39,0-.66,.05-.81,.14,.8,.11,1.2,.55,1.2,1.32,0,.29-.06,.54-.19,.76-.12,.22-.29,.39-.51,.52s-.46,.19-.74,.19c-.3,0-.56-.06-.79-.19s-.4-.31-.53-.53-.19-.49-.19-.79c0-1.38,.97-2.1,2.9-2.16,1.12-.03,1.99-.29,2.6-.79l.4,.71Zm-3.72,2.31c0-.48-.26-.72-.77-.72-.41,0-.62,.22-.62,.67,0,.48,.26,.72,.77,.72,.41,0,.62-.22,.62-.67Z" style="fill: #231f20;"/>
      <path d="M698.9,1405.05c-.15,0-.49,.16-1.01,.49-.52,.33-.96,.66-1.31,.99s-.64,.64-.85,.93h-.88v-6.74c-.14,.11-.35,.17-.62,.17-.29,0-.54-.05-.76-.16-.22-.11-.42-.28-.58-.52s-.25-.53-.25-.88c0-.27,.06-.52,.18-.75s.31-.43,.56-.59c.25-.16,.54-.24,.87-.24,.3,0,.57,.06,.79,.19,.22,.13,.4,.31,.53,.55s.19,.52,.19,.84v6.87c.61-.59,1.2-1.05,1.78-1.38s1.11-.55,1.61-.67c.5-.12,.85-.18,1.05-.18v-6.09h.89v6.26c.73,.3,1.1,.85,1.1,1.65,0,1.2-.6,1.8-1.8,1.8-.35,0-.65-.08-.91-.23s-.47-.36-.62-.62c-.15-.26-.22-.57-.22-.92,0-.28,.09-.53,.26-.75Zm-3.88-5.78c0-.48-.24-.72-.71-.72-.55,0-.82,.27-.82,.8,0,.48,.24,.71,.72,.71,.54,0,.81-.26,.81-.79Zm6.41,6.53c0-.69-.34-1.03-1.03-1.03s-1.01,.33-1.01,.98,.34,1.03,1.03,1.03,1.01-.33,1.01-.98Z" style="fill: #231f20;"/>
      <path d="M704.14,1397.86h.88v6.81c.25-.14,.51-.22,.77-.22s.49,.06,.71,.17c.21,.11,.4,.29,.55,.53s.23,.53,.23,.86c0,.45-.16,.82-.47,1.11-.31,.3-.69,.45-1.14,.45s-.82-.15-1.1-.44c-.29-.29-.43-.67-.43-1.12v-8.16Zm2.3,8.16c0-.5-.24-.74-.73-.74-.52,0-.78,.26-.78,.77s.25,.74,.74,.74,.77-.26,.77-.77Z" style="fill: #231f20;"/>
      <path d="M715.66,1407.46h-.81l-2.61-3.19-2.62,3.19h-.84v-8.14c0-.31,.07-.58,.21-.82s.32-.42,.54-.56c.22-.13,.49-.2,.79-.2,.45,0,.82,.15,1.14,.46s.47,.68,.47,1.12c0,.31-.07,.58-.2,.81-.13,.23-.31,.42-.53,.55-.22,.13-.48,.2-.78,.2s-.54-.09-.74-.26v5.42l2.19-2.68h.77l2.16,2.61v-8.11h.88v9.6Zm-4.58-8.11c0-.53-.27-.8-.81-.8-.48,0-.72,.24-.72,.72,0,.53,.25,.79,.76,.79s.77-.24,.77-.71Z" style="fill: #231f20;"/>
      <path d="M715.55,1396.3c-.96-.35-1.86-.6-2.71-.76-.85-.15-1.74-.23-2.67-.23-.88,0-1.65,.04-2.3,.12,0-.32,.13-.71,.39-1.17,.26-.46,.68-.85,1.25-1.17,.57-.31,1.2-.47,1.89-.47,.61,0,1.11,.07,1.51,.22v-1.81h.84v2.19c.07,0,.26,.14,.58,.42,.31,.28,.5,.5,.55,.65-.11-.51-.16-.85-.16-1.03v-2.23h.84v5.26Zm-.67-.74c-.23-.66-.67-1.17-1.3-1.54-.64-.37-1.38-.55-2.22-.55-1.17,0-2.06,.46-2.67,1.37,.14-.07,.41-.14,.81-.22,.41-.08,.9-.12,1.49-.12,1.02,0,1.84,.12,2.47,.35,.63,.23,1.1,.47,1.41,.71Z" style="fill: #231f20;"/>
      <path d="M715.46,1390.08h-.91v-3.36h.91v3.36Z" style="fill: #231f20;"/>
      <path d="M725.11,1407.46h-5.68v-5.64c0-.45,.14-.83,.43-1.13,.29-.3,.66-.45,1.1-.45,.31,0,.58,.07,.82,.22,.24,.14,.43,.33,.57,.57s.21,.5,.21,.8c0,.44-.14,.81-.43,1.11-.29,.3-.65,.45-1.08,.45-.28,0-.53-.07-.74-.22v3.4h3.91v-5.35c0-.75-.27-1.37-.8-1.88-.54-.51-1.18-.76-1.93-.76-.5,0-.96,.11-1.38,.34-.42,.23-.79,.58-1.09,1.06-.3,.48-.46,1.05-.46,1.7v.64h-.89v-.64c0-.79,.17-1.47,.5-2.06,.33-.59,.79-1.05,1.35-1.38,.57-.33,1.23-.5,1.99-.5,1,0,1.84,.33,2.55,.99,.7,.66,1.05,1.47,1.05,2.42v6.31Zm-3.38-5.61c0-.52-.26-.77-.79-.77-.46,0-.7,.24-.7,.72,0,.51,.26,.77,.79,.77,.47,0,.7-.24,.7-.71Z" style="fill: #231f20;"/>
      <path d="M735.12,1407.46h-.89v-6.94c0-1.2-.33-1.8-1-1.8-.25,0-.46,.06-.6,.17l-1.01,.77-1.01-.77c-.17-.13-.41-.19-.71-.19-.75,0-1.13,.61-1.13,1.82v5.78l2.01-2.4c.04-.05,.15-.16,.33-.33,.07-.06,.18-.14,.32-.23-.42,0-.79-.14-1.09-.43s-.46-.62-.46-1c0-.46,.14-.83,.43-1.12,.29-.29,.66-.44,1.13-.44s.83,.14,1.13,.42c.3,.28,.45,.64,.45,1.08,0,.41-.18,.82-.53,1.23l-3.69,4.37h-.91v-7.44c0-.57,.18-1.07,.55-1.51s.82-.65,1.35-.65,.96,.11,1.22,.32c.14,.09,.35,.27,.63,.52,.19-.17,.41-.35,.67-.52,.27-.21,.67-.32,1.21-.32,.28,0,.53,.06,.76,.19,.22,.13,.43,.34,.6,.64,.18,.3,.27,.68,.27,1.13v7.63Zm-2.91-5.59c0-.55-.27-.82-.81-.82-.5,0-.74,.25-.74,.74,0,.58,.27,.87,.81,.87,.5,0,.74-.26,.74-.79Z" style="fill: #231f20;"/>
      <path d="M744.53,1398.37c-.45,.91-1.08,1.63-1.87,2.17-.79,.54-1.63,.81-2.52,.81-.52,0-.98-.09-1.41-.28-.42-.19-.74-.42-.95-.7-.21-.28-.31-.6-.31-.96,0-.29,.07-.55,.21-.78s.33-.41,.57-.55c.24-.14,.52-.21,.83-.21,.44,0,.8,.14,1.08,.43s.41,.65,.41,1.09c0,.68-.3,1.11-.91,1.27,.63,0,1.22-.13,1.76-.38,.54-.25,1-.58,1.39-.98,.38-.4,.7-.87,.95-1.42l.77,.5Zm0,6.12c-.45,.91-1.08,1.63-1.87,2.17-.79,.54-1.63,.81-2.52,.81-.51,0-.98-.09-1.4-.28s-.74-.42-.95-.69-.32-.6-.32-.97c0-.26,.06-.5,.18-.72,.12-.22,.3-.41,.55-.57,.25-.16,.54-.24,.87-.24,.3,0,.55,.06,.77,.19,.22,.13,.39,.31,.52,.53,.13,.23,.19,.49,.19,.79,0,.68-.3,1.11-.91,1.27,.86,0,1.66-.24,2.4-.73,.73-.49,1.3-1.17,1.71-2.05l.77,.5Zm-4.71-5.02c0-.53-.27-.79-.81-.79-.48,0-.73,.24-.73,.72,0,.53,.27,.79,.8,.79,.49,0,.73-.24,.73-.72Zm0,6.12c0-.53-.27-.79-.81-.79-.48,0-.73,.24-.73,.72,0,.53,.27,.79,.8,.79,.49,0,.73-.24,.73-.72Z" style="fill: #231f20;"/>
      <path d="M746.79,1397.86h.88v6.81c.25-.14,.51-.22,.77-.22s.49,.06,.71,.17c.21,.11,.4,.29,.55,.53,.15,.24,.23,.53,.23,.86,0,.45-.16,.82-.47,1.11-.31,.3-.69,.45-1.14,.45s-.82-.15-1.1-.44c-.29-.29-.43-.67-.43-1.12v-8.16Zm2.3,8.16c0-.5-.24-.74-.73-.74-.52,0-.78,.26-.78,.77s.25,.74,.74,.74,.77-.26,.77-.77Z" style="fill: #231f20;"/>
      <path d="M757.6,1407.46h-4.92v-.89h1.2v-4.54c0-.22,.13-.61,.39-1.15,.27-.55,.4-.92,.4-1.13,0-.7-.39-1.1-1.18-1.2-.68,0-1.19,.11-1.54,.34,.34,0,.63,.06,.89,.18,.26,.12,.44,.29,.56,.53,.12,.23,.18,.5,.18,.82,0,.27-.06,.51-.17,.74s-.29,.42-.54,.57c-.24,.16-.54,.24-.89,.24-.32,0-.59-.07-.8-.2-.21-.13-.39-.33-.52-.59-.14-.26-.21-.53-.21-.83,0-.44,.08-.83,.23-1.17,.15-.34,.44-.67,.88-.98s1.04-.46,1.83-.46c.65,0,1.19,.18,1.61,.54,.42,.36,.63,.84,.63,1.45,0,.28-.14,.71-.42,1.29-.28,.59-.42,.97-.42,1.15v4.39h1.95v-8.71h.89v9.6Zm-4.83-7.13c0-.49-.26-.74-.77-.74s-.74,.25-.74,.74,.25,.77,.74,.77,.77-.26,.77-.77Z" style="fill: #231f20;"/>
      <path d="M758.27,1392.44c-.58,.62-1.29,.93-2.12,.93-.25,0-.55-.02-.91-.06-.66-.08-1.08-.12-1.25-.12-.37,0-.66,.1-.86,.3-.2,.2-.3,.49-.3,.86,0,.41,.19,.78,.58,1.1,.12-.31,.33-.69,.62-1.13,.61,.86,1.14,1.32,1.59,1.39-.2-.21-.29-.43-.29-.65s.05-.4,.14-.57c.1-.16,.22-.29,.38-.39,.16-.1,.35-.14,.56-.14,.23,0,.43,.05,.6,.15,.17,.1,.3,.24,.4,.42,.1,.18,.15,.39,.15,.63,0,.83-.54,1.24-1.62,1.24-.32,0-.65-.11-1-.33-.35-.22-.61-.43-.78-.63-.05,0-.2,.32-.46,.96-1.09-.43-1.63-1.12-1.63-2.07,0-1.26,.73-1.89,2.19-1.89,.19,0,.56,.03,1.12,.08,.29,.03,.55,.04,.76,.04,.35,0,.65-.06,.9-.17s.49-.29,.7-.53l.55,.57Zm-1.34,2.67c0-.36-.18-.53-.53-.53-.32,0-.48,.17-.48,.5,0,.36,.18,.53,.53,.53,.32,0,.48-.17,.48-.5Z" style="fill: #231f20;"/>
      <path d="M768.31,1407.46h-7.68v-.89h1.1v-5.9c-.16,.13-.4,.19-.74,.19-.44,0-.8-.15-1.08-.44-.29-.29-.43-.66-.43-1.1,0-.27,.06-.52,.18-.75,.12-.23,.31-.42,.56-.59,.25-.16,.55-.25,.88-.25,.3,0,.57,.07,.79,.2,.22,.13,.4,.31,.53,.55,.13,.24,.2,.51,.2,.83v7.25h4.8v-8.71h.88v9.6Zm-6.46-8.19c0-.48-.24-.72-.71-.72-.55,0-.82,.27-.82,.8,0,.48,.24,.71,.72,.71,.54,0,.81-.26,.81-.79Z" style="fill: #231f20;"/>
      <path d="M771.36,1397.86h.88v6.81c.25-.14,.51-.22,.77-.22s.49,.06,.71,.17c.21,.11,.4,.29,.55,.53,.15,.24,.23,.53,.23,.86,0,.45-.16,.82-.47,1.11-.31,.3-.69,.45-1.14,.45s-.82-.15-1.1-.44c-.29-.29-.43-.67-.43-1.12v-8.16Zm2.3,8.16c0-.5-.24-.74-.73-.74-.52,0-.78,.26-.78,.77s.25,.74,.74,.74,.77-.26,.77-.77Zm1.87-8.16h.88v6.81c.25-.14,.51-.22,.77-.22,.29,0,.54,.07,.76,.2,.22,.13,.39,.32,.53,.55,.13,.23,.2,.5,.2,.8,0,.45-.16,.82-.47,1.11-.31,.3-.69,.45-1.14,.45s-.82-.15-1.1-.44c-.29-.29-.43-.67-.43-1.12v-8.16Zm2.3,8.16c0-.5-.24-.74-.73-.74-.52,0-.78,.26-.78,.77s.25,.74,.74,.74,.77-.26,.77-.77Z" style="fill: #231f20;"/>
      <path d="M787.05,1407.46h-.88c0-.74-.36-1.88-1.07-3.4-.71-1.52-1.29-2.51-1.74-2.96-.29,.27-.68,.78-1.17,1.53s-.84,1.47-1.06,2.15c.26-.21,.51-.32,.76-.32,.45,0,.83,.15,1.14,.44,.31,.29,.46,.67,.46,1.12s-.16,.82-.47,1.11c-.31,.3-.69,.45-1.14,.45-.48,0-.87-.17-1.18-.52-.3-.35-.46-.76-.46-1.26s.06-.96,.17-1.42c.11-.45,.29-.91,.52-1.36,.23-.45,.58-.98,1.05-1.6,.47-.61,.93-1.12,1.39-1.53,.53,.4,1.09,1.16,1.69,2.28,.6,1.12,1.05,2.27,1.36,3.46l.05-.02-.31-2.6v-1.8c0-.74-.26-1.37-.79-1.88-.53-.51-1.17-.76-1.92-.76-.56,0-1.06,.13-1.49,.4-.43,.27-.78,.64-1.04,1.1-.26,.46-.4,1-.4,1.59v.64h-.88v-.64c0-.78,.17-1.46,.5-2.05,.33-.59,.78-1.05,1.35-1.38s1.23-.5,2-.5c.49,0,.95,.08,1.37,.24,.42,.16,.81,.41,1.16,.74,.35,.33,.61,.7,.79,1.1,.17,.4,.26,.84,.26,1.32v6.31Zm-4.39-1.46c0-.48-.26-.72-.77-.72s-.77,.26-.77,.79c0,.48,.25,.72,.74,.72,.53,0,.79-.26,.79-.79Z" style="fill: #231f20;"/>
      <path d="M789.62,1393.01c-.4,1.24-1.05,2.14-1.94,2.7s-1.9,.83-3.03,.83c-.42,0-.78-.03-1.08-.09l-.05-.55c.78-.35,1.39-.89,1.82-1.63-.14,.16-.38,.24-.7,.24-.27,0-.5-.06-.69-.18s-.35-.29-.47-.5c-.12-.21-.18-.46-.18-.74,0-.39,.13-.71,.4-.97,.27-.26,.6-.39,.99-.39,.3,0,.56,.07,.79,.22,.22,.14,.4,.34,.53,.6s.2,.54,.2,.87c0,1.09-.5,1.92-1.51,2.47,.93,0,1.78-.29,2.53-.86s1.28-1.34,1.58-2.31l.81,.31Zm-4.2,.15c0-.46-.23-.7-.7-.7s-.67,.22-.67,.67,.23,.69,.7,.69,.67-.22,.67-.67Z" style="fill: #231f20;"/>
      <path d="M794.49,1404.63v-3.89c0-.41-.09-.77-.28-1.08-.19-.31-.44-.56-.76-.75s-.7-.28-1.11-.28c-.67,0-1.23,.23-1.68,.69s-.68,1.02-.68,1.68v1.39h-.88v-1.46c0-.89,.31-1.65,.94-2.27s1.39-.93,2.3-.93c.83,0,1.55,.28,2.15,.84s.9,1.25,.9,2.07v5.5c0,.27-.07,.5-.2,.71-.13,.21-.31,.38-.54,.52-.22,.13-.47,.2-.75,.2-1.07,0-1.61-.54-1.61-1.63,0-.29,.07-.56,.2-.79,.14-.23,.31-.42,.53-.55,.22-.13,.47-.2,.75-.2,.3,0,.54,.07,.72,.22Zm.05,1.32c0-.46-.23-.7-.69-.7-.5,0-.74,.26-.74,.77,0,.46,.23,.7,.69,.7,.5,0,.74-.26,.74-.77Z" style="fill: #231f20;"/>
      <path d="M806.32,1407.46h-.83v-8.09c-.73,.69-1.55,1.2-2.45,1.55v-.73c1.38-.76,2.29-1.56,2.72-2.42h.56v9.68Z" style="fill: #231f20;"/>
      <path d="M822.45,1397.69l-1.54,1.54,1.12,1.01v7.22h-4.8v-.89h1.18v-5.42c0-.4,.21-.81,.62-1.22l.65-.65c-.38-.37-.62-.55-.7-.55-.1,0-.48,.3-1.15,.89-.67-.66-1.14-.98-1.41-.98-.23,0-.43,.12-.62,.37-.19,.25-.3,.5-.34,.77,.3-.17,.56-.26,.77-.26,.43,0,.79,.15,1.06,.44,.27,.29,.41,.66,.41,1.1,0,.4-.14,.75-.43,1.05-.29,.3-.62,.44-1.02,.44-1.05,0-1.58-.72-1.58-2.16,0-.61,.18-1.2,.54-1.78,.36-.58,.79-.87,1.29-.87,.18,0,.31,.04,.41,.12l.91,.77,.91-.74c.12-.1,.23-.15,.33-.15s.49,.31,1.18,.94l1.58-1.58,.63,.6Zm-5.5,3.29c0-.5-.26-.74-.77-.74s-.74,.25-.74,.74,.25,.77,.74,.77,.77-.26,.77-.77Zm4.2,5.59v-5.97l-.89-.77c-.08,.07-.22,.2-.42,.4-.2,.2-.34,.37-.41,.53-.07,.16-.11,.33-.11,.51v5.3h1.83Z" style="fill: #231f20;"/>
      <path d="M832.46,1407.46h-.88c0-.08-.13-.25-.39-.51-.26-.26-.58-.55-.97-.86-.39-.31-.86-.61-1.42-.91-.56-.3-1.05-.46-1.47-.49v1.8c0,.72-.35,1.08-1.06,1.08-.36,0-.68-.09-.96-.26-.29-.18-.52-.41-.69-.69-.18-.29-.26-.61-.26-.96,0-.59,.19-1.06,.57-1.39,.38-.34,.89-.5,1.54-.5v-3.07c-.08,.13-.31,.19-.68,.19-.48,0-.86-.15-1.15-.45-.29-.3-.43-.67-.43-1.11s.16-.83,.47-1.13,.69-.45,1.14-.45,.82,.15,1.11,.44c.29,.29,.43,.67,.43,1.14v4.52c.53,0,1.25,.25,2.16,.75,.91,.5,1.6,1.06,2.07,1.67v-8.4h.88v9.6Zm-5.88-8.19c0-.48-.25-.72-.74-.72-.54,0-.8,.27-.8,.8,0,.48,.25,.71,.74,.71,.54,0,.8-.26,.8-.79Zm-.1,6.87v-1.49c-.83,0-1.25,.34-1.25,1.01,0,.26,.1,.51,.31,.74,.21,.23,.44,.34,.7,.34,.16,0,.24-.2,.24-.6Z" style="fill: #231f20;"/>
      <path d="M836.73,1407.46h-1.34v-1.49h1.34v1.49Z" style="fill: #231f20;"/>
      <path d="M839.61,1409.98h-.69c1.57-2.5,2.36-5,2.36-7.5s-.81-4.94-2.42-7.26h.76c1.78,2.45,2.67,4.88,2.67,7.32,0,1.36-.23,2.63-.68,3.79-.45,1.17-1.12,2.38-1.99,3.65Z" style="fill: #231f20;"/>
    </g>
    <g>
      <path d="M667.21,1226.22v-28.14h3.72v11.56h14.63v-11.56h3.72v28.14h-3.72v-13.26h-14.63v13.26h-3.72Z" style="fill: #231f20;"/>
      <path d="M708.78,1226.22v-28.14h10.55c3.18,0,5.53,.7,7.05,2.09,1.52,1.39,2.28,3.09,2.28,5.1,0,2.69-1.31,4.68-3.94,5.98,3.54,1.04,5.3,3.31,5.3,6.81,0,5.44-3.51,8.16-10.52,8.16h-10.72Zm3.72-16.32h6.08c2.14,0,3.74-.29,4.81-.87,1.07-.58,1.6-1.68,1.6-3.3,0-1.23-.33-2.26-1-3.08-.66-.83-2.62-1.24-5.87-1.24h-5.62v8.5Zm0,12.99h7c2.24,0,3.91-.38,5.01-1.14,1.1-.76,1.66-1.99,1.66-3.69,0-1.53-.49-2.72-1.48-3.57-.99-.84-2.88-1.27-5.68-1.27h-6.5v9.67Z" style="fill: #231f20;"/>
      <path d="M745.5,1226.22l10.81-28.14h4.01l11.51,28.14h-4.25l-3.28-8.53h-11.76l-3.09,8.53h-3.96Zm8.12-11.56h9.55l-2.94-7.79c-.9-2.37-1.56-4.32-1.99-5.83-.37,1.86-.88,3.65-1.52,5.38l-3.09,8.25Z" style="fill: #231f20;"/>
      <path d="M788.22,1226.22v-28.14h3.82l14.78,22.09v-22.09h3.57v28.14h-3.82l-14.78-22.12v22.12h-3.57Z" style="fill: #231f20;"/>
    </g>
    <g>
      <path d="M972.51,1785.67h-.89l-2.37-7.36-.29-1.25-.26,1.25-2.36,7.37h-.88l-.02-6.79c-.18,.15-.42,.22-.72,.22-.42,0-.78-.15-1.06-.46-.29-.31-.43-.67-.43-1.1,0-.27,.06-.52,.18-.75,.12-.23,.31-.43,.56-.59,.25-.16,.54-.25,.87-.25,.46,0,.82,.15,1.09,.44,.27,.29,.4,.67,.4,1.14l.02,5.57,.48-1.58,1.74-5.45h.84l1.93,5.88,.3,1.21-.02-7.1h.89l.03,9.6Zm-6.92-8.16c0-.48-.24-.72-.71-.72-.55,0-.83,.27-.82,.8,0,.48,.24,.71,.72,.71,.55,0,.82-.27,.82-.79Z" style="fill: #231f20;"/>
      <path d="M976.02,1771.5c-.68,.87-1.46,1.58-2.36,2.15-.9,.56-1.75,.84-2.55,.85-.69,0-1.23-.15-1.62-.45-.39-.31-.59-.71-.59-1.21,0-.26,.06-.51,.17-.73,.11-.23,.29-.42,.51-.57,.23-.15,.49-.23,.8-.23,.27,0,.51,.06,.73,.2,.22,.13,.39,.3,.52,.51,.13,.2,.19,.43,.19,.69,0,.5-.13,.84-.41,1.01,.27,0,.82-.22,1.64-.65,.82-.43,1.59-1.14,2.29-2.13l.68,.57Zm-4.96,1.32c0-.48-.24-.72-.72-.72-.45,0-.67,.22-.67,.67,0,.48,.24,.72,.72,.72,.45,0,.67-.23,.67-.67Z" style="fill: #231f20;"/>
      <path d="M983.21,1785.64l-7.68,.02v-.89h1.1l-.02-5.9c-.16,.13-.4,.19-.74,.2-.44,0-.8-.14-1.09-.44-.29-.29-.43-.66-.43-1.1,0-.27,.06-.52,.18-.75,.12-.23,.31-.43,.56-.59,.25-.16,.55-.25,.88-.25,.3,0,.57,.06,.79,.19,.22,.13,.4,.31,.53,.55,.13,.24,.2,.51,.2,.83l.02,7.25h4.8l-.03-8.72h.88l.03,9.6Zm-6.48-8.17c0-.48-.24-.72-.72-.72-.55,0-.82,.27-.82,.8,0,.48,.24,.71,.72,.71,.54,0,.81-.27,.81-.79Z" style="fill: #231f20;"/>
      <path d="M992.72,1775.84l-1.53,1.54,1.13,.81,.02,7.42h-4.73v-.88h1.1l-.02-5.26c0-.3,.02-.52,.06-.66,.04-.14,.15-.32,.33-.53s.43-.46,.75-.72c-.73-.51-1.44-.76-2.11-.76-.77,0-1.28,.18-1.56,.53,.15-.07,.28-.1,.4-.1,.24,0,.47,.05,.68,.16,.21,.1,.39,.28,.53,.52,.14,.24,.21,.53,.21,.86,0,.43-.16,.79-.49,1.09-.33,.3-.71,.45-1.14,.45-.48,0-.85-.15-1.12-.44-.27-.3-.4-.74-.41-1.32,0-.72,.28-1.32,.84-1.82,.56-.49,1.25-.74,2.07-.74,.89,0,1.78,.31,2.67,.93l1.67-1.66,.63,.6Zm-5.53,2.82c0-.5-.26-.74-.78-.74-.49,0-.74,.25-.74,.75,0,.51,.25,.77,.74,.77,.52,0,.77-.26,.77-.77Zm4.27,6.06l-.02-6.12-.87-.62c-.26,.25-.47,.46-.63,.63-.15,.17-.25,.31-.28,.39-.03,.09-.05,.26-.05,.52l.02,5.2h1.83Z" style="fill: #231f20;"/>
      <path d="M1000.71,1785.59h-.89l-.02-6.55c0-.48-.1-.89-.29-1.24-.19-.35-.45-.61-.77-.8-.32-.19-.71-.28-1.15-.28-.6,0-1.12,.22-1.57,.65-.45,.43-.68,.94-.67,1.52v.1h-.86v-.17c0-.8,.31-1.5,.93-2.07,.62-.58,1.35-.87,2.18-.87,.89,0,1.63,.28,2.22,.83,.59,.56,.89,1.28,.89,2.16l.02,6.72Z" style="fill: #231f20;"/>
      <path d="M1010.28,1785.56l-6.41,.02v-3.26c-.01-.82,.21-1.33,.66-1.51-1.09-.36-1.64-1.12-1.64-2.3,0-.31,.04-.6,.13-.88,.09-.28,.24-.56,.45-.84,.21-.28,.47-.51,.77-.68,.31-.17,.65-.25,1.04-.25,.52,0,.93,.14,1.24,.44,.31,.29,.46,.67,.47,1.14,0,.3-.07,.57-.2,.81-.13,.23-.31,.42-.53,.56-.22,.14-.48,.2-.77,.2-.96,0-1.44-.44-1.45-1.34,0-.04,0-.14,.02-.29-.21,.21-.31,.57-.31,1.07,0,.52,.17,.95,.51,1.31,.34,.36,.76,.54,1.24,.54h1.39v.83h-1.25c-.61,0-.91,.36-.9,1.06v2.5h4.64l-.03-8.72h.89l.03,9.6Zm-4.13-8.1c0-.53-.27-.8-.8-.79-.49,0-.74,.24-.74,.72,0,.53,.27,.79,.81,.79,.49,0,.73-.24,.73-.72Z" style="fill: #231f20;"/>
      <path d="M1013.32,1775.95h.88l.02,6.81c.25-.15,.5-.22,.77-.22,.26,0,.49,.06,.71,.17,.22,.11,.4,.29,.55,.53,.15,.24,.23,.53,.23,.86,0,.45-.15,.82-.46,1.11-.31,.3-.69,.45-1.14,.45-.45,0-.82-.14-1.11-.44-.29-.29-.43-.67-.43-1.12l-.02-8.16Zm2.33,8.15c0-.5-.25-.74-.73-.74-.52,0-.78,.26-.78,.77,0,.5,.25,.74,.74,.74,.52,0,.77-.26,.77-.77Z" style="fill: #231f20;"/>
      <path d="M1024.87,1785.51h-.88c0-.74-.36-1.86-1.06-3.37-.71-1.51-1.28-2.48-1.72-2.92-.69,.75-1.24,1.47-1.64,2.16-.4,.69-.64,1.24-.72,1.65,.24-.31,.54-.46,.91-.46,.31,0,.58,.07,.82,.2,.23,.13,.42,.31,.55,.53s.2,.48,.2,.78c0,.45-.15,.82-.46,1.11-.31,.3-.69,.45-1.14,.45-.33,0-.62-.08-.87-.24-.25-.16-.44-.37-.57-.65-.13-.27-.2-.58-.2-.93,0-.72,.17-1.49,.5-2.3s1.06-1.84,2.16-3.08l1.45-1.65c0-.11-.31-.17-.94-.17-.56,0-1.06,.14-1.49,.41-.43,.27-.78,.64-1.04,1.11-.26,.47-.39,1-.39,1.59v.64h-.88v-.64c0-.78,.16-1.47,.49-2.05s.78-1.05,1.34-1.39c.57-.34,1.23-.51,1.99-.51,.56,0,1.04,.08,1.42,.26,.13,0,.38-.49,.74-1.47l.82,.36c-.29,.66-.56,1.18-.81,1.56,.52,.34,.89,.74,1.1,1.21,.21,.47,.32,.96,.32,1.47l.02,6.31Zm-4.35-1.45c0-.5-.24-.74-.72-.74-.56,0-.84,.27-.84,.82,0,.52,.25,.77,.76,.77,.54,0,.8-.28,.8-.85Zm3.55-1.09v-3.65c-.01-.59-.15-1.08-.42-1.46-.27-.38-.51-.6-.73-.67l-1.2,1.44c.3,.23,.68,.78,1.16,1.66,.48,.88,.74,1.45,.8,1.72l.38,.96Z" style="fill: #231f20;"/>
      <path d="M1024.84,1774.35c-.96-.35-1.86-.6-2.71-.75-.85-.15-1.74-.22-2.67-.22-.88,0-1.65,.05-2.3,.13,0-.32,.13-.71,.39-1.17,.26-.47,.67-.86,1.24-1.17,.57-.31,1.2-.47,1.89-.47,.61,0,1.11,.07,1.51,.22v-1.81h.83v2.18c.08,0,.27,.14,.59,.42,.32,.28,.5,.5,.55,.65-.11-.51-.17-.85-.17-1.02v-2.23h.83l.02,5.25Zm-.67-.74c-.23-.66-.67-1.17-1.31-1.53-.64-.37-1.38-.55-2.23-.54-1.17,0-2.06,.46-2.66,1.38,.14-.07,.41-.14,.81-.23,.41-.08,.9-.13,1.49-.13,1.02,0,1.84,.11,2.47,.34,.63,.23,1.1,.47,1.41,.71Z" style="fill: #231f20;"/>
      <path d="M1027.38,1765.25c-.39,1.14-.99,1.95-1.81,2.44-.82,.49-1.74,.74-2.76,.74-.31,0-.59-.02-.84-.07l-.05-.5c.73-.36,1.27-.87,1.63-1.52-.13,.18-.33,.26-.6,.27-.37,0-.66-.12-.89-.37-.23-.25-.34-.55-.34-.92,0-.34,.12-.63,.36-.87,.24-.24,.54-.36,.88-.36,.4,0,.73,.14,.99,.43,.26,.29,.39,.65,.39,1.07,0,1.01-.45,1.75-1.36,2.24,.84,0,1.6-.26,2.25-.77,.66-.51,1.14-1.22,1.43-2.11l.72,.31Zm-3.79,.11c0-.4-.2-.6-.61-.6-.41,0-.62,.2-.62,.6,0,.42,.21,.63,.62,.62,.4,0,.6-.21,.6-.63Z" style="fill: #231f20;"/>
      <path d="M1034.32,1785.49l-5.68,.02-.02-5.64c0-.45,.14-.83,.43-1.13,.29-.3,.65-.45,1.1-.45,.31,0,.58,.07,.82,.21,.24,.14,.43,.33,.57,.56,.14,.23,.21,.5,.21,.8,0,.44-.14,.81-.43,1.11-.29,.3-.65,.45-1.08,.45-.28,0-.53-.07-.74-.21v3.4h3.92l-.02-5.36c0-.75-.27-1.37-.81-1.88-.54-.51-1.18-.76-1.94-.76-.5,0-.96,.12-1.38,.34-.42,.23-.79,.58-1.09,1.06-.3,.48-.45,1.05-.45,1.7v.64h-.89v-.64c0-.79,.16-1.47,.49-2.06,.33-.59,.78-1.05,1.35-1.38,.57-.34,1.23-.5,1.99-.51,1,0,1.85,.32,2.55,.98,.7,.66,1.06,1.46,1.06,2.42l.02,6.31Zm-3.4-5.6c0-.52-.27-.77-.79-.77-.46,0-.7,.24-.69,.72,0,.51,.26,.77,.79,.77,.47,0,.7-.24,.7-.72Z" style="fill: #231f20;"/>
    </g>
  </g>
</svg>