<?xml version="1.0" encoding="utf-8"?>
<svg viewBox="939.023 612.839 125.891 283.932" xmlns="http://www.w3.org/2000/svg">
  <g transform="matrix(1, 0, 0, 1, -326.285309, -104.44632)">
    <g transform="matrix(1, 0, 0, 1, 801.382263, 697.605713)">
      <g transform="matrix(1, 0, 0, 1, 198.151779, -266.743317)">
        <path style="fill: rgb(243, 214, 174);" d="M 307.822 420.157 C 307.822 420.157 292.385 449.63 290.111 454.994 C 287.837 460.358 284.328 473.546 282.022 479.109 C 279.716 484.672 274.448 496.864 274.935 503.275 C 275.422 509.686 279.454 528.98 280.878 537.352 C 282.302 545.724 287.033 569.535 287.033 569.535 L 329.353 568.922 L 328.636 525.107 L 331.16 521.742 L 334.013 525.458 L 334.702 570.355 L 377.356 569.494 C 377.356 569.494 382.652 536.942 383.302 531.436 C 383.952 525.93 388.52 510.596 387.204 501.424 C 385.888 492.252 384.292 486.371 381.001 478.031 C 377.71 469.691 377.678 463.135 374.122 455.079 C 370.566 447.023 357.195 418.831 357.195 418.831 L 307.822 420.157 Z"/>
        <path style="stroke: rgb(255, 255, 255); fill: none;" d="M 331.124 433.166 L 331.165 522.631"/>
        <path style="fill: none; stroke: rgb(255, 255, 255);" d="M 313.127 431.593 C 304.18 473.09 292.679 518.328 305.052 569.576"/>
        <path style="fill: none; stroke: rgb(255, 255, 255);" d="M 363.248 568.629 C 354.301 527.132 342.8 481.894 355.173 430.646" transform="matrix(-1, 0, 0, -1, 713.009064, 999.275024)"/>
        <path style="stroke: rgb(255, 255, 255); fill: none;" d="M 334.117 524.526 C 334.117 524.526 345.553 511.947 359.112 506.315 C 372.671 500.683 387.234 503.129 387.234 503.129"/>
        <path style="stroke: rgb(255, 255, 255); fill: none;" d="M 274.894 502.517 C 274.894 502.517 286.33 515.096 299.889 520.728 C 313.448 526.36 328.011 523.914 328.011 523.914" transform="matrix(-1, 0, 0, -1, 602.904999, 1026.959503)"/>
        <path style="stroke: rgb(255, 253, 253); fill: none;" d="M 282.959 479.658 C 282.959 479.658 313.415 487.709 331.414 487.174 C 349.413 486.639 380.328 477.321 380.328 477.321"/>
        <path style="stroke: rgb(255, 253, 253); fill: none;" d="M 288.025 458.944 C 288.025 458.944 314.144 467.824 330.693 467.024 C 347.242 466.224 375.533 457.011 375.533 457.011"/>
        <path style="fill: none; stroke: rgb(255, 251, 251);" d="M 294.557 447.425 C 294.557 447.425 320.429 452.052 332.263 451.702 C 344.097 451.352 368.284 443.972 368.284 443.972"/>
      </g>
      <g>
        <path style="fill: rgb(244, 215, 174);" d="M 515.511 19.68 L 544.317 19.8 L 543.82 29.466 C 543.82 29.466 543.123 32.888 549.024 35.405 C 554.925 37.922 577.537 48.426 577.537 48.426 L 572.136 81.551 L 485.166 80.093 L 481.914 48.624 L 508.998 35.908 C 508.998 35.908 515.136 32.988 515.27 29.867 C 515.404 26.746 516.442 20.751 515.511 19.68 Z"/>
        <path style="fill: rgb(216, 216, 216); stroke: rgb(255, 255, 255);" d="M 483.309 49.567 L 574.98 48.831"/>
        <path style="fill: rgb(216, 216, 216); stroke: rgb(255, 255, 255);" d="M 528.925 92.604 L 529.5 21.051" transform="matrix(-1, 0, 0, -1, 1058.424988, 113.654995)"/>
      </g>
    </g>
    <g transform="matrix(1, 0, 0, 1, 1027.484619, 452.599243)">
      <g>
        <path style="stroke: rgb(0, 0, 0); fill: rgb(255, 255, 255);" d="M 278.321 281.688 L 252.233 294.641 C 252.233 294.641 256.354 338.446 253.627 361.133 C 250.9 383.82 237.824 472.6 237.824 472.6 C 237.824 472.6 272.901 482.927 301.627 483.192 C 330.353 483.457 363.715 471.954 363.715 471.954 C 363.715 471.954 351.581 389.841 348.596 362.001 C 345.611 334.161 350.625 293.661 350.625 293.661 L 323.186 280.876 L 301.01 312.531 C 301.01 312.531 278.027 282.862 278.321 281.688 Z"/>
      </g>
      <g transform="matrix(1, 0, 0, 1, 45.236931, 5.029261)">
        <path d="M 258.562 303.757 L 258.569 478.144 L 252.663 478.144 L 252.663 303.83 L 255.743 307.233 L 258.562 303.757 Z" style="stroke: rgb(0, 0, 0); fill: rgb(255, 255, 255);"/>
        <ellipse style="stroke: rgb(0, 0, 0); fill: rgb(255, 255, 255);" cx="255.668" cy="310.37" rx="1.503" ry="1.466"/>
        <ellipse style="stroke: rgb(0, 0, 0); fill: rgb(255, 255, 255);" cx="255.578" cy="339.381" rx="1.503" ry="1.466"/>
        <ellipse style="stroke: rgb(0, 0, 0); fill: rgb(255, 255, 255);" cx="255.657" cy="369.826" rx="1.503" ry="1.466"/>
        <ellipse style="stroke: rgb(0, 0, 0); fill: rgb(255, 255, 255);" cx="255.556" cy="399.165" rx="1.503" ry="1.466"/>
        <ellipse style="stroke: rgb(0, 0, 0); fill: rgb(255, 255, 255);" cx="255.658" cy="429.419" rx="1.503" ry="1.466"/>
        <ellipse style="stroke: rgb(0, 0, 0); fill: rgb(255, 255, 255);" cx="255.564" cy="459.881" rx="1.503" ry="1.466"/>
      </g>
    </g>
  </g>
</svg>