<?xml version="1.0" encoding="UTF-8"?>
<svg id="a" data-name="Layer 1" xmlns="http://www.w3.org/2000/svg" width="3.93in" height="3.93in" viewBox="0 0 283.18 283.18">
  <rect x=".14" y=".14" width="282.9" height="282.9" style="fill: none; stroke: blue; stroke-miterlimit: 1.13; stroke-width: .28px;"/>
  <line x1="28.2" y1="56.55" x2="28.2" y2="28.2" style="fill: none; stroke: #888; stroke-miterlimit: 1.13; stroke-width: .57px;"/>
  <line x1="113.24" y1="28.2" x2="113.24" y2="56.55" style="fill: none; stroke: #888; stroke-miterlimit: 1.13; stroke-width: .57px;"/>
  <path d="M28.2,56.55c0-28.35,85.04-28.35,85.04,0" style="fill: none; stroke: red; stroke-miterlimit: 1.13; stroke-width: 1.42px;"/>
  <circle cx="28.2" cy="56.55" r="2.83" style="fill: none; stroke: #888; stroke-miterlimit: 1.13; stroke-width: .57px;"/>
  <circle cx="113.24" cy="56.55" r="2.83" style="fill: none; stroke: #888; stroke-miterlimit: 1.13; stroke-width: .57px;"/>
  <circle cx="28.2" cy="28.2" r="2.83" style="fill: #888;"/>
  <circle cx="113.24" cy="28.2" r="2.83" style="fill: #888;"/>
  <text transform="translate(10.52 77.81)" style="font-family: Verdana, Verdana; font-size: 6.24px; isolation: isolate;"><tspan x="0" y="0">M100,200 C100,100 400,100 400,200</tspan></text>
  <line x1="28.2" y1="141.59" x2="6.94" y2="113.24" style="fill: none; stroke: #888; stroke-miterlimit: 1.13; stroke-width: .57px;"/>
  <line x1="134.5" y1="113.24" x2="113.24" y2="141.59" style="fill: none; stroke: #888; stroke-miterlimit: 1.13; stroke-width: .57px;"/>
  <path d="M28.2,141.59c-21.26-28.35,106.3-28.35,85.04,0" style="fill: none; stroke: red; stroke-miterlimit: 1.13; stroke-width: 1.42px;"/>
  <circle cx="28.2" cy="141.59" r="2.83" style="fill: none; stroke: #888; stroke-miterlimit: 1.13; stroke-width: .57px;"/>
  <circle cx="113.24" cy="141.59" r="2.83" style="fill: none; stroke: #888; stroke-miterlimit: 1.13; stroke-width: .57px;"/>
  <circle cx="6.94" cy="113.24" r="2.83" style="fill: #888;"/>
  <circle cx="134.5" cy="113.24" r="2.83" style="fill: #888;"/>
  <text transform="translate(12.5 162.85)" style="font-family: Verdana, Verdana; font-size: 6.24px; isolation: isolate;"><tspan x="0" y="0">M100,500 C25,400 475,400 400,500</tspan></text>
  <line x1="28.2" y1="226.63" x2="49.46" y2="198.28" style="fill: none; stroke: #888; stroke-miterlimit: 1.13; stroke-width: .57px;"/>
  <line x1="91.98" y1="198.28" x2="113.24" y2="226.63" style="fill: none; stroke: #888; stroke-miterlimit: 1.13; stroke-width: .57px;"/>
  <path d="M28.2,226.63c21.26-28.35,63.78-28.35,85.04,0" style="fill: none; stroke: red; stroke-miterlimit: 1.13; stroke-width: 1.42px;"/>
  <circle cx="28.2" cy="226.63" r="2.83" style="fill: none; stroke: #888; stroke-miterlimit: 1.13; stroke-width: .57px;"/>
  <circle cx="113.24" cy="226.63" r="2.83" style="fill: none; stroke: #888; stroke-miterlimit: 1.13; stroke-width: .57px;"/>
  <circle cx="49.46" cy="198.28" r="2.83" style="fill: #888;"/>
  <circle cx="91.98" cy="198.28" r="2.83" style="fill: #888;"/>
  <text transform="translate(10.52 247.89)" style="font-family: Verdana, Verdana; font-size: 6.24px; isolation: isolate;"><tspan x="0" y="0">M100,800 C175,700 325,700 400,800</tspan></text>
  <line x1="169.94" y1="56.55" x2="191.2" y2="28.2" style="fill: none; stroke: #888; stroke-miterlimit: 1.13; stroke-width: .57px;"/>
  <line x1="276.24" y1="28.2" x2="254.98" y2="56.55" style="fill: none; stroke: #888; stroke-miterlimit: 1.13; stroke-width: .57px;"/>
  <path d="M169.94,56.55c21.26-28.35,106.3-28.35,85.04,0" style="fill: none; stroke: red; stroke-miterlimit: 1.13; stroke-width: 1.42px;"/>
  <circle cx="169.94" cy="56.55" r="2.83" style="fill: none; stroke: #888; stroke-miterlimit: 1.13; stroke-width: .57px;"/>
  <circle cx="254.98" cy="56.55" r="2.83" style="fill: none; stroke: #888; stroke-miterlimit: 1.13; stroke-width: .57px;"/>
  <circle cx="191.2" cy="28.2" r="2.83" style="fill: #888;"/>
  <circle cx="276.24" cy="28.2" r="2.83" style="fill: #888;"/>
  <text transform="translate(152.25 77.81)" style="font-family: Verdana, Verdana; font-size: 6.24px; isolation: isolate;"><tspan x="0" y="0">M600,200 C675,100 975,100 900,200</tspan></text>
  <line x1="169.94" y1="141.59" x2="169.94" y2="99.07" style="fill: none; stroke: #888; stroke-miterlimit: 1.13; stroke-width: .57px;"/>
  <line x1="254.98" y1="184.11" x2="254.98" y2="141.59" style="fill: none; stroke: #888; stroke-miterlimit: 1.13; stroke-width: .57px;"/>
  <path d="M169.94,141.59c0-42.52,85.04,42.52,85.04,0" style="fill: none; stroke: red; stroke-miterlimit: 1.13; stroke-width: 1.42px;"/>
  <circle cx="169.94" cy="141.59" r="2.83" style="fill: none; stroke: #888; stroke-miterlimit: 1.13; stroke-width: .57px;"/>
  <circle cx="254.98" cy="141.59" r="2.83" style="fill: none; stroke: #888; stroke-miterlimit: 1.13; stroke-width: .57px;"/>
  <circle cx="169.94" cy="99.07" r="2.83" style="fill: #888;"/>
  <circle cx="254.98" cy="184.11" r="2.83" style="fill: #888;"/>
  <text transform="translate(152.25 162.85)" style="font-family: Verdana, Verdana; font-size: 6.24px; isolation: isolate;"><tspan x="0" y="0">M600,500 C600,350 900,650 900,500</tspan></text>
  <line x1="169.94" y1="226.63" x2="177.02" y2="198.28" style="fill: none; stroke: #888; stroke-miterlimit: 1.13; stroke-width: .57px;"/>
  <line x1="205.37" y1="198.28" x2="212.46" y2="226.63" style="fill: none; stroke: #888; stroke-miterlimit: 1.13; stroke-width: .57px;"/>
  <line x1="212.46" y1="226.63" x2="219.54" y2="254.98" style="fill: none; stroke: #888; stroke-miterlimit: 1.13; stroke-width: .57px;"/>
  <line x1="247.89" y1="254.98" x2="254.98" y2="226.63" style="fill: none; stroke: #888; stroke-miterlimit: 1.13; stroke-width: .57px;"/>
  <path d="M169.94,226.63c7.09-28.35,35.43-28.35,42.52,0s35.43,28.35,42.52,0" style="fill: none; stroke: red; stroke-miterlimit: 1.13; stroke-width: 1.42px;"/>
  <circle cx="169.94" cy="226.63" r="2.83" style="fill: none; stroke: #888; stroke-miterlimit: 1.13; stroke-width: .57px;"/>
  <circle cx="212.46" cy="226.63" r="2.83" style="fill: none; stroke: #888; stroke-miterlimit: 1.13; stroke-width: .57px;"/>
  <circle cx="254.98" cy="226.63" r="2.83" style="fill: none; stroke: #888; stroke-miterlimit: 1.13; stroke-width: .57px;"/>
  <circle cx="177.02" cy="198.28" r="2.83" style="fill: #888;"/>
  <circle cx="205.37" cy="198.28" r="2.83" style="fill: #888;"/>
  <circle cx="247.89" cy="254.98" r="2.83" style="fill: #888;"/>
  <circle cx="219.54" cy="254.98" r="2.55" style="fill: none; stroke: blue; stroke-miterlimit: 1.13; stroke-width: 1.13px;"/>
  <text transform="translate(152.25 267.73)" style="font-family: Verdana, Verdana; font-size: 6.24px; isolation: isolate;"><tspan x="0" y="0">M600,800 C625,700 725,700 750,800</tspan></text>
  <text transform="translate(183.17 276.24)" style="font-family: Verdana, Verdana; font-size: 6.24px; isolation: isolate;"><tspan x="0" y="0">S875,900 900,800</tspan></text>
</svg>