<?xml version="1.0" standalone="no"?>
<!DOCTYPE svg PUBLIC "-//W3C//DTD SVG 1.1//EN" 
  "http://www.w3.org/Graphics/SVG/1.1/DTD/svg11.dtd">
<svg width="12cm" height="10cm" viewBox="0 0 1200 1000"
     xmlns="http://www.w3.org/2000/svg" version="1.1">
  <desc>Example rect03 - rounded rectangles</desc>

  <!-- Show outline of canvas using 'rect' element -->
  <rect x="1" y="1" width="1198" height="998" fill="none" stroke="blue" stroke-width="2"/>
  <g transform="translate(0 0) rotate(45 300 300) scale(0.75)" transform-origin="300 300">
	  <g transform="translate(350 300) rotate(40)">
		  <g transform="translate(0 0) rotate(0)">
			  <circle cx="0" cy="0" r="50" fill="none" stroke="green" stroke-width="5" />
			  <circle cx="10" cy="10" r="10" fill="none" stroke="red" stroke-width="5" />
			  <rect x="0" y="0" width="410" height="410" fill="none" stroke="red" stroke-width="5" />
			  <rect x="100" y="100" width="200" height="100" rx="25" fill="red" />
			  <rect x="210" y="210" width="200" height="100" rx="25" fill="red" />
			  <circle cx="400" cy="400" r="10" fill="none" stroke="red" stroke-width="5" />
		  </g>
		  <g transform="translate(0 0) rotate(-60)">
			  <circle cx="10" cy="10" r="10" fill="none" stroke="blue" stroke-width="5" />
			  <rect x="0" y="0" width="410" height="410" fill="none" stroke="blue" stroke-width="5" />
			  <rect x="100" y="100" width="200" height="100" rx="25" fill="green" />
			  <rect x="210" y="210" width="200" height="100" rx="25" fill="green" />
			  <circle cx="400" cy="400" r="10" fill="none" stroke="blue" stroke-width="5" />
		  </g>
	  </g>
  </g>	  
  <g transform="translate(700 700) rotate(-30)">
    <rect x="0" y="0" width="400" height="200" rx="50"
          fill="none" stroke="purple" stroke-width="30" />
  </g>
</svg>
