<?xml version="1.0"?>
<svg x="-452px" y="-389px" width="90.4522mm" height="77.9286mm" viewBox="-452 -389 904 779" xmlns="http://www.w3.org/2000/svg" xmlns:xlink="http://www.w3.org/1999/xlink">
	<path d=" M452.267,-152.928 C452.267,-283.456 346.08,-389.642 215.553,-389.642 C119.597,-389.642 37.0471,-332.492 0.00546265,-250.294 C-37.0362,-332.139 -119.939,-389.642 -215.542,-389.642 C-346.07,-389.642 -452.256,-283.456 -452.256,-152.928 C-452.256,-125.411 -447.67,-98.9528 -438.85,-74.2583 C-428.972,-46.3889 -413.803,-20.6361 -394.753,1.5889 C-386.639,11.1139 -377.82,19.9333 -368.295,27.6945 L-7.05011,386.469 C-4.93341,388.586 -2.11124,389.644 1.06381,389.644 C3.88602,389.644 7.061,388.586 9.1777,386.469 L383.828,14.2889 L383.828,14.2889 C408.169,-10.0528 427.219,-39.6862 439.214,-72.4945 C447.328,-97.8944 452.267,-124.706 452.267,-152.928 Z " fill="#4FB4DE" stroke="#000000" stroke-width="2" fill-opacity="1" stroke-opacity="1" />
</svg>
