<?xml version="1.0"?>
<svg x="-474px" y="-161px" width="95.0736mm" height="32.3497mm" viewBox="-474 -161 950 323" xmlns="http://www.w3.org/2000/svg" xmlns:xlink="http://www.w3.org/1999/xlink">
	<path d=" M376.594,162.314 C374.831,161.961 367.069,139.031 316.269,91.4055 C265.822,47.6611 171.983,-21.1306 0.886017,-25.0112 C-170.564,-21.1306 -264.05,47.3083 -314.497,91.0527 C-365.297,138.678 -373.058,161.608 -374.822,161.961 C-407.983,131.269 -441.497,100.225 -474.658,69.5333 C-472.542,70.5916 -450.317,27.2 -376.939,-31.7139 C-304.972,-88.1584 -181.5,-160.125 0.533234,-161.183 C182.919,-160.125 306.039,-88.1584 378.358,-31.7139 C451.736,27.2 473.961,70.5916 476.078,69.5333 C442.917,100.578 409.756,131.622 376.594,162.314 Z " fill="#66BA49" stroke="#000000" stroke-width="2" fill-opacity="1" stroke-opacity="1" />
</svg>
